<ttFont>
    <TTGlyph name=".notdef" xMin="0" yMin="0" xMax="848" yMax="1264">
      <contour>
        <pt x="848" y="1264" on="1"/>
        <pt x="848" y="0" on="1"/>
        <pt x="0" y="0" on="1"/>
        <pt x="0" y="1264" on="1"/>
      </contour>
      <contour>
        <pt x="764" y="88" on="1"/>
        <pt x="764" y="1176" on="1"/>
        <pt x="82" y="1176" on="1"/>
        <pt x="82" y="88" on="1"/>
      </contour>
      <contour>
        <pt x="371" y="412" on="1"/>
        <pt x="369" y="442" on="1"/>
        <pt x="369" y="515" on="0"/>
        <pt x="399" y="610" on="0"/>
        <pt x="467" y="688" on="1"/>
        <pt x="499" y="720" on="0"/>
        <pt x="532" y="762" on="0"/>
        <pt x="551" y="809" on="0"/>
        <pt x="551" y="838" on="1"/>
        <pt x="551" y="903" on="0"/>
        <pt x="477" y="985" on="0"/>
        <pt x="426" y="985" on="1"/>
        <pt x="305" y="985" on="0"/>
        <pt x="287" y="819" on="1"/>
        <pt x="205" y="831" on="1"/>
        <pt x="219" y="956" on="0"/>
        <pt x="340" y="1073" on="0"/>
        <pt x="430" y="1073" on="1"/>
        <pt x="518" y="1073" on="0"/>
        <pt x="632" y="955" on="0"/>
        <pt x="633" y="846" on="1"/>
        <pt x="633" y="800" on="0"/>
        <pt x="604" y="709" on="0"/>
        <pt x="532" y="633" on="1"/>
        <pt x="467" y="573" on="0"/>
        <pt x="457" y="537" on="1"/>
        <pt x="449" y="508" on="0"/>
        <pt x="449" y="416" on="1"/>
      </contour>
      <contour>
        <pt x="354" y="264" on="1"/>
        <pt x="354" y="291" on="0"/>
        <pt x="389" y="326" on="0"/>
        <pt x="414" y="326" on="1"/>
        <pt x="438" y="326" on="0"/>
        <pt x="473" y="291" on="0"/>
        <pt x="473" y="264" on="1"/>
        <pt x="473" y="236" on="0"/>
        <pt x="438" y="201" on="0"/>
        <pt x="414" y="201" on="1"/>
        <pt x="389" y="201" on="0"/>
        <pt x="354" y="236" on="0"/>
      </contour>
    </TTGlyph>
    <TTGlyph name="uni1200" xMin="184" yMin="-20" xMax="1081" yMax="1462">
      <contour>
        <pt x="1081" y="1462" on="1"/>
        <pt x="1081" y="516" on="1"/>
        <pt x="1081" y="256" on="0"/>
        <pt x="846" y="-20" on="0"/>
        <pt x="627" y="-20" on="1"/>
        <pt x="410" y="-20" on="0"/>
        <pt x="184" y="258" on="0"/>
        <pt x="184" y="520" on="1"/>
        <pt x="184" y="1462" on="1"/>
        <pt x="371" y="1462" on="1"/>
        <pt x="371" y="510" on="1"/>
        <pt x="371" y="317" on="0"/>
        <pt x="501" y="143" on="0"/>
        <pt x="637" y="143" on="1"/>
        <pt x="768" y="143" on="0"/>
        <pt x="895" y="318" on="0"/>
        <pt x="895" y="512" on="1"/>
        <pt x="895" y="1462" on="1"/>
      </contour>
    </TTGlyph>
    <TTGlyph name="uni1201" xMin="184" yMin="-20" xMax="1487" yMax="1462">
      <contour>
        <pt x="1081" y="1462" on="1"/>
        <pt x="1081" y="811" on="1"/>
        <pt x="1446" y="811" on="1"/>
        <pt x="1487" y="492" on="1"/>
        <pt x="1448" y="492" on="1"/>
        <pt x="1378" y="492" on="0"/>
        <pt x="1284" y="596" on="0"/>
        <pt x="1272" y="676" on="1"/>
        <pt x="1081" y="676" on="1"/>
        <pt x="1081" y="516" on="1"/>
        <pt x="1081" y="256" on="0"/>
        <pt x="846" y="-20" on="0"/>
        <pt x="627" y="-20" on="1"/>
        <pt x="410" y="-20" on="0"/>
        <pt x="184" y="258" on="0"/>
        <pt x="184" y="520" on="1"/>
        <pt x="184" y="1462" on="1"/>
        <pt x="371" y="1462" on="1"/>
        <pt x="371" y="510" on="1"/>
        <pt x="371" y="317" on="0"/>
        <pt x="501" y="143" on="0"/>
        <pt x="637" y="143" on="1"/>
        <pt x="768" y="143" on="0"/>
        <pt x="895" y="318" on="0"/>
        <pt x="895" y="512" on="1"/>
        <pt x="895" y="1462" on="1"/>
      </contour>
    </TTGlyph>
    <TTGlyph name="uni1202" xMin="164" yMin="-164" xMax="1032" yMax="1462">
      <contour>
        <pt x="299" y="115" on="1"/>
        <pt x="547" y="729" on="1"/>
        <pt x="164" y="762" on="0"/>
        <pt x="164" y="1124" on="1"/>
        <pt x="164" y="1462" on="1"/>
        <pt x="350" y="1462" on="1"/>
        <pt x="350" y="1130" on="1"/>
        <pt x="350" y="883" on="0"/>
        <pt x="600" y="862" on="1"/>
        <pt x="844" y="1462" on="1"/>
        <pt x="1032" y="1462" on="1"/>
        <pt x="494" y="135" on="1"/>
        <pt x="791" y="135" on="1"/>
        <pt x="808" y="202" on="0"/>
        <pt x="907" y="299" on="0"/>
        <pt x="963" y="299" on="1"/>
        <pt x="1001" y="299" on="1"/>
        <pt x="969" y="70" on="1"/>
        <pt x="1001" y="-164" on="1"/>
        <pt x="963" y="-164" on="1"/>
        <pt x="907" y="-164" on="0"/>
        <pt x="807" y="-66" on="0"/>
        <pt x="791" y="0" on="1"/>
        <pt x="299" y="0" on="1"/>
      </contour>
    </TTGlyph>
    <TTGlyph name="uni1203" xMin="164" yMin="0" xMax="1032" yMax="1462">
      <contour>
        <pt x="256" y="0" on="1"/>
        <pt x="549" y="727" on="1"/>
        <pt x="352" y="744" on="0"/>
        <pt x="164" y="944" on="0"/>
        <pt x="164" y="1124" on="1"/>
        <pt x="164" y="1462" on="1"/>
        <pt x="350" y="1462" on="1"/>
        <pt x="350" y="1130" on="1"/>
        <pt x="350" y="883" on="0"/>
        <pt x="602" y="862" on="1"/>
        <pt x="844" y="1462" on="1"/>
        <pt x="1032" y="1462" on="1"/>
        <pt x="444" y="0" on="1"/>
      </contour>
    </TTGlyph>
    <TTGlyph name="uni1204" xMin="164" yMin="0" xMax="1061" yMax="1462">
      <contour>
        <pt x="319" y="145" on="1"/>
        <pt x="551" y="727" on="1"/>
        <pt x="354" y="744" on="0"/>
        <pt x="164" y="942" on="0"/>
        <pt x="164" y="1124" on="1"/>
        <pt x="164" y="1462" on="1"/>
        <pt x="346" y="1462" on="1"/>
        <pt x="346" y="1130" on="1"/>
        <pt x="346" y="884" on="0"/>
        <pt x="604" y="862" on="1"/>
        <pt x="844" y="1462" on="1"/>
        <pt x="1032" y="1462" on="1"/>
        <pt x="662" y="541" on="1"/>
        <pt x="782" y="541" on="1"/>
        <pt x="911" y="541" on="0"/>
        <pt x="1061" y="403" on="0"/>
        <pt x="1061" y="287" on="1"/>
        <pt x="1061" y="148" on="0"/>
        <pt x="873" y="0" on="0"/>
        <pt x="702" y="0" on="1"/>
        <pt x="319" y="0" on="1"/>
      </contour>
      <contour>
        <pt x="604" y="401" on="1"/>
        <pt x="498" y="135" on="1"/>
        <pt x="668" y="135" on="1"/>
        <pt x="774" y="135" on="0"/>
        <pt x="879" y="206" on="0"/>
        <pt x="879" y="281" on="1"/>
        <pt x="879" y="401" on="0"/>
        <pt x="723" y="401" on="1"/>
      </contour>
    </TTGlyph>
    <TTGlyph name="uni1205" xMin="102" yMin="-20" xMax="1343" yMax="1462">
      <contour>
        <pt x="1343" y="1462" on="1"/>
        <pt x="1343" y="516" on="1"/>
        <pt x="1343" y="257" on="0"/>
        <pt x="1111" y="-20" on="0"/>
        <pt x="889" y="-20" on="1"/>
        <pt x="674" y="-20" on="0"/>
        <pt x="446" y="257" on="0"/>
        <pt x="446" y="520" on="1"/>
        <pt x="446" y="932" on="1"/>
        <pt x="259" y="941" on="0"/>
        <pt x="102" y="1118" on="0"/>
        <pt x="102" y="1309" on="1"/>
        <pt x="102" y="1462" on="1"/>
        <pt x="289" y="1462" on="1"/>
        <pt x="289" y="1315" on="1"/>
        <pt x="289" y="1188" on="0"/>
        <pt x="375" y="1079" on="0"/>
        <pt x="487" y="1079" on="1"/>
        <pt x="633" y="1079" on="1"/>
        <pt x="633" y="510" on="1"/>
        <pt x="633" y="317" on="0"/>
        <pt x="763" y="143" on="0"/>
        <pt x="899" y="143" on="1"/>
        <pt x="1030" y="143" on="0"/>
        <pt x="1157" y="318" on="0"/>
        <pt x="1157" y="512" on="1"/>
        <pt x="1157" y="1462" on="1"/>
      </contour>
    </TTGlyph>
    <TTGlyph name="uni1206" xMin="184" yMin="-20" xMax="1548" yMax="1483">
      <contour>
        <pt x="895" y="1411" on="1"/>
        <pt x="1036" y="1456" on="0"/>
        <pt x="1119" y="1475" on="0"/>
        <pt x="1202" y="1483" on="0"/>
        <pt x="1245" y="1483" on="1"/>
        <pt x="1397" y="1483" on="0"/>
        <pt x="1548" y="1351" on="0"/>
        <pt x="1548" y="1229" on="1"/>
        <pt x="1548" y="1091" on="0"/>
        <pt x="1377" y="942" on="0"/>
        <pt x="1219" y="942" on="1"/>
        <pt x="1081" y="942" on="1"/>
        <pt x="1081" y="516" on="1"/>
        <pt x="1081" y="260" on="0"/>
        <pt x="843" y="-20" on="0"/>
        <pt x="623" y="-20" on="1"/>
        <pt x="408" y="-20" on="0"/>
        <pt x="184" y="257" on="0"/>
        <pt x="184" y="520" on="1"/>
        <pt x="184" y="1462" on="1"/>
        <pt x="371" y="1462" on="1"/>
        <pt x="371" y="510" on="1"/>
        <pt x="371" y="317" on="0"/>
        <pt x="501" y="143" on="0"/>
        <pt x="637" y="143" on="1"/>
        <pt x="768" y="143" on="0"/>
        <pt x="895" y="318" on="0"/>
        <pt x="895" y="512" on="1"/>
      </contour>
      <contour>
        <pt x="1231" y="1343" on="1"/>
        <pt x="1135" y="1343" on="0"/>
        <pt x="1081" y="1309" on="1"/>
        <pt x="1081" y="1077" on="1"/>
        <pt x="1196" y="1077" on="1"/>
        <pt x="1366" y="1077" on="0"/>
        <pt x="1366" y="1227" on="1"/>
        <pt x="1366" y="1289" on="0"/>
        <pt x="1297" y="1343" on="0"/>
      </contour>
    </TTGlyph>
    <TTGlyph name="uni1207" xMin="82" yMin="-20" xMax="1851" yMax="1483">
      <contour>
        <pt x="1198" y="1411" on="1"/>
        <pt x="1339" y="1456" on="0"/>
        <pt x="1422" y="1475" on="0"/>
        <pt x="1505" y="1483" on="0"/>
        <pt x="1548" y="1483" on="1"/>
        <pt x="1700" y="1483" on="0"/>
        <pt x="1851" y="1351" on="0"/>
        <pt x="1851" y="1229" on="1"/>
        <pt x="1851" y="1091" on="0"/>
        <pt x="1680" y="942" on="0"/>
        <pt x="1522" y="942" on="1"/>
        <pt x="1384" y="942" on="1"/>
        <pt x="1384" y="516" on="1"/>
        <pt x="1384" y="260" on="0"/>
        <pt x="1146" y="-20" on="0"/>
        <pt x="926" y="-20" on="1"/>
        <pt x="713" y="-20" on="0"/>
        <pt x="487" y="256" on="0"/>
        <pt x="487" y="520" on="1"/>
        <pt x="487" y="573" on="1"/>
        <pt x="293" y="573" on="1"/>
        <pt x="273" y="502" on="0"/>
        <pt x="176" y="410" on="0"/>
        <pt x="121" y="410" on="1"/>
        <pt x="82" y="410" on="1"/>
        <pt x="115" y="643" on="1"/>
        <pt x="82" y="872" on="1"/>
        <pt x="121" y="872" on="1"/>
        <pt x="175" y="872" on="0"/>
        <pt x="272" y="781" on="0"/>
        <pt x="293" y="709" on="1"/>
        <pt x="487" y="709" on="1"/>
        <pt x="487" y="1462" on="1"/>
        <pt x="674" y="1462" on="1"/>
        <pt x="674" y="510" on="1"/>
        <pt x="674" y="317" on="0"/>
        <pt x="804" y="143" on="0"/>
        <pt x="940" y="143" on="1"/>
        <pt x="1071" y="143" on="0"/>
        <pt x="1198" y="318" on="0"/>
        <pt x="1198" y="512" on="1"/>
      </contour>
      <contour>
        <pt x="1534" y="1343" on="1"/>
        <pt x="1438" y="1343" on="0"/>
        <pt x="1384" y="1309" on="1"/>
        <pt x="1384" y="1077" on="1"/>
        <pt x="1499" y="1077" on="1"/>
        <pt x="1669" y="1077" on="0"/>
        <pt x="1669" y="1227" on="1"/>
        <pt x="1669" y="1289" on="0"/>
        <pt x="1600" y="1343" on="0"/>
      </contour>
    </TTGlyph>
    <TTGlyph name="uni1208" xMin="102" yMin="0" xMax="1159" yMax="1462">
      <contour>
        <pt x="1159" y="0" on="1"/>
        <pt x="965" y="0" on="1"/>
        <pt x="627" y="999" on="1"/>
        <pt x="529" y="969" on="0"/>
        <pt x="408" y="744" on="0"/>
        <pt x="322" y="333" on="0"/>
        <pt x="289" y="0" on="1"/>
        <pt x="102" y="0" on="1"/>
        <pt x="137" y="378" on="0"/>
        <pt x="251" y="859" on="0"/>
        <pt x="427" y="1116" on="0"/>
        <pt x="573" y="1153" on="1"/>
        <pt x="465" y="1462" on="1"/>
        <pt x="659" y="1462" on="1"/>
      </contour>
    </TTGlyph>
    <TTGlyph name="uni1209" xMin="102" yMin="0" xMax="1313" yMax="1462">
      <contour>
        <pt x="883" y="811" on="1"/>
        <pt x="1272" y="811" on="1"/>
        <pt x="1313" y="492" on="1"/>
        <pt x="1274" y="492" on="1"/>
        <pt x="1204" y="492" on="0"/>
        <pt x="1110" y="596" on="0"/>
        <pt x="1098" y="676" on="1"/>
        <pt x="928" y="676" on="1"/>
        <pt x="1159" y="0" on="1"/>
        <pt x="965" y="0" on="1"/>
        <pt x="627" y="999" on="1"/>
        <pt x="529" y="969" on="0"/>
        <pt x="408" y="744" on="0"/>
        <pt x="322" y="333" on="0"/>
        <pt x="289" y="0" on="1"/>
        <pt x="102" y="0" on="1"/>
        <pt x="137" y="378" on="0"/>
        <pt x="251" y="859" on="0"/>
        <pt x="427" y="1116" on="0"/>
        <pt x="573" y="1153" on="1"/>
        <pt x="467" y="1462" on="1"/>
        <pt x="662" y="1462" on="1"/>
      </contour>
    </TTGlyph>
    <TTGlyph name="uni120A" xMin="102" yMin="-164" xMax="1526" yMax="1462">
      <contour>
        <pt x="1493" y="70" on="1"/>
        <pt x="1526" y="-164" on="1"/>
        <pt x="1487" y="-164" on="1"/>
        <pt x="1431" y="-164" on="0"/>
        <pt x="1331" y="-66" on="0"/>
        <pt x="1315" y="0" on="1"/>
        <pt x="965" y="0" on="1"/>
        <pt x="627" y="999" on="1"/>
        <pt x="529" y="969" on="0"/>
        <pt x="408" y="744" on="0"/>
        <pt x="322" y="333" on="0"/>
        <pt x="289" y="0" on="1"/>
        <pt x="102" y="0" on="1"/>
        <pt x="137" y="378" on="0"/>
        <pt x="251" y="859" on="0"/>
        <pt x="427" y="1116" on="0"/>
        <pt x="573" y="1153" on="1"/>
        <pt x="467" y="1462" on="1"/>
        <pt x="662" y="1462" on="1"/>
        <pt x="1112" y="135" on="1"/>
        <pt x="1315" y="135" on="1"/>
        <pt x="1332" y="202" on="0"/>
        <pt x="1431" y="299" on="0"/>
        <pt x="1487" y="299" on="1"/>
        <pt x="1526" y="299" on="1"/>
      </contour>
    </TTGlyph>
    <TTGlyph name="uni120B" xMin="82" yMin="0" xMax="1139" yMax="1462">
      <contour>
        <pt x="1139" y="0" on="1"/>
        <pt x="944" y="0" on="1"/>
        <pt x="606" y="993" on="1"/>
        <pt x="502" y="973" on="0"/>
        <pt x="387" y="853" on="0"/>
        <pt x="306" y="603" on="0"/>
        <pt x="268" y="362" on="1"/>
        <pt x="82" y="362" on="1"/>
        <pt x="118" y="625" on="0"/>
        <pt x="235" y="951" on="0"/>
        <pt x="411" y="1121" on="0"/>
        <pt x="557" y="1145" on="1"/>
        <pt x="446" y="1462" on="1"/>
        <pt x="641" y="1462" on="1"/>
      </contour>
    </TTGlyph>
    <TTGlyph name="uni120C" xMin="102" yMin="0" xMax="1520" yMax="1462">
      <contour>
        <pt x="975" y="541" on="1"/>
        <pt x="1241" y="541" on="1"/>
        <pt x="1370" y="541" on="0"/>
        <pt x="1520" y="403" on="0"/>
        <pt x="1520" y="287" on="1"/>
        <pt x="1520" y="148" on="0"/>
        <pt x="1332" y="0" on="0"/>
        <pt x="1161" y="0" on="1"/>
        <pt x="965" y="0" on="1"/>
        <pt x="627" y="999" on="1"/>
        <pt x="529" y="969" on="0"/>
        <pt x="408" y="744" on="0"/>
        <pt x="322" y="333" on="0"/>
        <pt x="289" y="0" on="1"/>
        <pt x="102" y="0" on="1"/>
        <pt x="137" y="378" on="0"/>
        <pt x="251" y="859" on="0"/>
        <pt x="427" y="1116" on="0"/>
        <pt x="573" y="1153" on="1"/>
        <pt x="467" y="1462" on="1"/>
        <pt x="662" y="1462" on="1"/>
      </contour>
      <contour>
        <pt x="1022" y="401" on="1"/>
        <pt x="1112" y="135" on="1"/>
        <pt x="1126" y="135" on="1"/>
        <pt x="1232" y="135" on="0"/>
        <pt x="1337" y="206" on="0"/>
        <pt x="1337" y="281" on="1"/>
        <pt x="1337" y="401" on="0"/>
        <pt x="1182" y="401" on="1"/>
      </contour>
    </TTGlyph>
    <TTGlyph name="uni120D" xMin="102" yMin="0" xMax="1282" yMax="1462">
      <contour>
        <pt x="1282" y="0" on="1"/>
        <pt x="1087" y="0" on="1"/>
        <pt x="647" y="1004" on="1"/>
        <pt x="538" y="972" on="0"/>
        <pt x="409" y="762" on="0"/>
        <pt x="362" y="541" on="1"/>
        <pt x="479" y="541" on="1"/>
        <pt x="608" y="541" on="0"/>
        <pt x="758" y="403" on="0"/>
        <pt x="758" y="287" on="1"/>
        <pt x="758" y="148" on="0"/>
        <pt x="570" y="0" on="0"/>
        <pt x="399" y="0" on="1"/>
        <pt x="102" y="0" on="1"/>
        <pt x="137" y="372" on="0"/>
        <pt x="255" y="856" on="0"/>
        <pt x="438" y="1116" on="0"/>
        <pt x="586" y="1153" on="1"/>
        <pt x="453" y="1462" on="1"/>
        <pt x="651" y="1462" on="1"/>
      </contour>
      <contour>
        <pt x="338" y="401" on="1"/>
        <pt x="317" y="268" on="0"/>
        <pt x="303" y="135" on="1"/>
        <pt x="365" y="135" on="1"/>
        <pt x="471" y="135" on="0"/>
        <pt x="575" y="206" on="0"/>
        <pt x="575" y="281" on="1"/>
        <pt x="575" y="401" on="0"/>
        <pt x="420" y="401" on="1"/>
      </contour>
    </TTGlyph>
    <TTGlyph name="uni120E" xMin="102" yMin="0" xMax="1737" yMax="1462">
      <contour>
        <pt x="848" y="915" on="1"/>
        <pt x="1147" y="915" on="1"/>
        <pt x="1229" y="989" on="0"/>
        <pt x="1403" y="989" on="1"/>
        <pt x="1567" y="989" on="0"/>
        <pt x="1737" y="854" on="0"/>
        <pt x="1737" y="727" on="1"/>
        <pt x="1737" y="599" on="0"/>
        <pt x="1563" y="449" on="0"/>
        <pt x="1403" y="449" on="1"/>
        <pt x="1246" y="449" on="0"/>
        <pt x="1069" y="601" on="0"/>
        <pt x="1069" y="727" on="1"/>
        <pt x="1069" y="764" on="0"/>
        <pt x="1073" y="780" on="1"/>
        <pt x="893" y="780" on="1"/>
        <pt x="1159" y="0" on="1"/>
        <pt x="965" y="0" on="1"/>
        <pt x="627" y="999" on="1"/>
        <pt x="529" y="969" on="0"/>
        <pt x="408" y="744" on="0"/>
        <pt x="322" y="333" on="0"/>
        <pt x="289" y="0" on="1"/>
        <pt x="102" y="0" on="1"/>
        <pt x="137" y="378" on="0"/>
        <pt x="251" y="859" on="0"/>
        <pt x="427" y="1116" on="0"/>
        <pt x="573" y="1153" on="1"/>
        <pt x="467" y="1462" on="1"/>
        <pt x="662" y="1462" on="1"/>
      </contour>
      <contour>
        <pt x="1403" y="872" on="1"/>
        <pt x="1332" y="872" on="0"/>
        <pt x="1251" y="795" on="0"/>
        <pt x="1251" y="727" on="1"/>
        <pt x="1251" y="655" on="0"/>
        <pt x="1331" y="565" on="0"/>
        <pt x="1403" y="565" on="1"/>
        <pt x="1473" y="565" on="0"/>
        <pt x="1554" y="653" on="0"/>
        <pt x="1554" y="727" on="1"/>
        <pt x="1554" y="796" on="0"/>
        <pt x="1473" y="872" on="0"/>
      </contour>
    </TTGlyph>
    <TTGlyph name="uni120F" xMin="82" yMin="-164" xMax="1466" yMax="1462">
      <contour>
        <pt x="270" y="-164" on="1"/>
        <pt x="311" y="135" on="1"/>
        <pt x="897" y="135" on="1"/>
        <pt x="604" y="999" on="1"/>
        <pt x="511" y="982" on="0"/>
        <pt x="390" y="843" on="0"/>
        <pt x="301" y="574" on="0"/>
        <pt x="268" y="362" on="1"/>
        <pt x="82" y="362" on="1"/>
        <pt x="118" y="624" on="0"/>
        <pt x="234" y="958" on="0"/>
        <pt x="413" y="1130" on="0"/>
        <pt x="553" y="1153" on="1"/>
        <pt x="446" y="1462" on="1"/>
        <pt x="641" y="1462" on="1"/>
        <pt x="1092" y="135" on="1"/>
        <pt x="1425" y="135" on="1"/>
        <pt x="1466" y="-164" on="1"/>
        <pt x="1427" y="-164" on="1"/>
        <pt x="1372" y="-164" on="0"/>
        <pt x="1276" y="-75" on="0"/>
        <pt x="1253" y="0" on="1"/>
        <pt x="483" y="0" on="1"/>
        <pt x="465" y="-69" on="0"/>
        <pt x="366" y="-164" on="0"/>
        <pt x="309" y="-164" on="1"/>
      </contour>
    </TTGlyph>
    <TTGlyph name="uni1210" xMin="164" yMin="0" xMax="1389" yMax="1462">
      <contour>
        <pt x="1202" y="0" on="1"/>
        <pt x="1202" y="356" on="1"/>
        <pt x="1202" y="506" on="0"/>
        <pt x="1027" y="698" on="0"/>
        <pt x="868" y="719" on="1"/>
        <pt x="868" y="0" on="1"/>
        <pt x="682" y="0" on="1"/>
        <pt x="682" y="719" on="1"/>
        <pt x="521" y="697" on="0"/>
        <pt x="350" y="511" on="0"/>
        <pt x="350" y="358" on="1"/>
        <pt x="350" y="0" on="1"/>
        <pt x="164" y="0" on="1"/>
        <pt x="164" y="348" on="1"/>
        <pt x="164" y="570" on="0"/>
        <pt x="444" y="859" on="0"/>
        <pt x="682" y="883" on="1"/>
        <pt x="682" y="1462" on="1"/>
        <pt x="868" y="1462" on="1"/>
        <pt x="868" y="883" on="1"/>
        <pt x="1109" y="855" on="0"/>
        <pt x="1389" y="561" on="0"/>
        <pt x="1389" y="352" on="1"/>
        <pt x="1389" y="0" on="1"/>
      </contour>
    </TTGlyph>
    <TTGlyph name="uni1211" xMin="164" yMin="0" xMax="1722" yMax="1462">
      <contour>
        <pt x="682" y="719" on="1"/>
        <pt x="521" y="697" on="0"/>
        <pt x="350" y="511" on="0"/>
        <pt x="350" y="358" on="1"/>
        <pt x="350" y="0" on="1"/>
        <pt x="164" y="0" on="1"/>
        <pt x="164" y="348" on="1"/>
        <pt x="164" y="570" on="0"/>
        <pt x="444" y="859" on="0"/>
        <pt x="682" y="883" on="1"/>
        <pt x="682" y="1462" on="1"/>
        <pt x="868" y="1462" on="1"/>
        <pt x="868" y="883" on="1"/>
        <pt x="1011" y="866" on="0"/>
        <pt x="1224" y="749" on="0"/>
        <pt x="1290" y="659" on="1"/>
        <pt x="1681" y="659" on="1"/>
        <pt x="1722" y="360" on="1"/>
        <pt x="1683" y="360" on="1"/>
        <pt x="1629" y="360" on="0"/>
        <pt x="1536" y="449" on="0"/>
        <pt x="1511" y="524" on="1"/>
        <pt x="1360" y="524" on="1"/>
        <pt x="1389" y="441" on="0"/>
        <pt x="1389" y="352" on="1"/>
        <pt x="1389" y="0" on="1"/>
        <pt x="1202" y="0" on="1"/>
        <pt x="1202" y="356" on="1"/>
        <pt x="1202" y="506" on="0"/>
        <pt x="1027" y="698" on="0"/>
        <pt x="868" y="719" on="1"/>
        <pt x="868" y="0" on="1"/>
        <pt x="682" y="0" on="1"/>
      </contour>
    </TTGlyph>
    <TTGlyph name="uni1212" xMin="164" yMin="-164" xMax="1778" yMax="1462">
      <contour>
        <pt x="682" y="719" on="1"/>
        <pt x="521" y="697" on="0"/>
        <pt x="350" y="511" on="0"/>
        <pt x="350" y="358" on="1"/>
        <pt x="350" y="0" on="1"/>
        <pt x="164" y="0" on="1"/>
        <pt x="164" y="348" on="1"/>
        <pt x="164" y="570" on="0"/>
        <pt x="444" y="859" on="0"/>
        <pt x="682" y="883" on="1"/>
        <pt x="682" y="1462" on="1"/>
        <pt x="868" y="1462" on="1"/>
        <pt x="868" y="883" on="1"/>
        <pt x="1109" y="855" on="0"/>
        <pt x="1389" y="561" on="0"/>
        <pt x="1389" y="352" on="1"/>
        <pt x="1389" y="135" on="1"/>
        <pt x="1567" y="135" on="1"/>
        <pt x="1584" y="202" on="0"/>
        <pt x="1683" y="299" on="0"/>
        <pt x="1739" y="299" on="1"/>
        <pt x="1778" y="299" on="1"/>
        <pt x="1745" y="70" on="1"/>
        <pt x="1778" y="-164" on="1"/>
        <pt x="1739" y="-164" on="1"/>
        <pt x="1683" y="-164" on="0"/>
        <pt x="1583" y="-66" on="0"/>
        <pt x="1567" y="0" on="1"/>
        <pt x="1202" y="0" on="1"/>
        <pt x="1202" y="356" on="1"/>
        <pt x="1202" y="506" on="0"/>
        <pt x="1027" y="698" on="0"/>
        <pt x="868" y="719" on="1"/>
        <pt x="868" y="0" on="1"/>
        <pt x="682" y="0" on="1"/>
      </contour>
    </TTGlyph>
    <TTGlyph name="uni1213" xMin="123" yMin="0" xMax="1348" yMax="1462">
      <contour>
        <pt x="1161" y="0" on="1"/>
        <pt x="1161" y="356" on="1"/>
        <pt x="1159" y="510" on="0"/>
        <pt x="984" y="698" on="0"/>
        <pt x="827" y="719" on="1"/>
        <pt x="827" y="291" on="1"/>
        <pt x="641" y="291" on="1"/>
        <pt x="641" y="719" on="1"/>
        <pt x="480" y="697" on="0"/>
        <pt x="309" y="511" on="0"/>
        <pt x="309" y="358" on="1"/>
        <pt x="309" y="291" on="1"/>
        <pt x="123" y="291" on="1"/>
        <pt x="123" y="348" on="1"/>
        <pt x="123" y="570" on="0"/>
        <pt x="403" y="859" on="0"/>
        <pt x="641" y="883" on="1"/>
        <pt x="641" y="1462" on="1"/>
        <pt x="827" y="1462" on="1"/>
        <pt x="827" y="883" on="1"/>
        <pt x="1068" y="855" on="0"/>
        <pt x="1348" y="561" on="0"/>
        <pt x="1348" y="352" on="1"/>
        <pt x="1348" y="0" on="1"/>
      </contour>
    </TTGlyph>
    <TTGlyph name="uni1214" xMin="164" yMin="0" xMax="1858" yMax="1462">
      <contour>
        <pt x="682" y="719" on="1"/>
        <pt x="521" y="697" on="0"/>
        <pt x="350" y="511" on="0"/>
        <pt x="350" y="358" on="1"/>
        <pt x="350" y="0" on="1"/>
        <pt x="164" y="0" on="1"/>
        <pt x="164" y="348" on="1"/>
        <pt x="164" y="570" on="0"/>
        <pt x="444" y="859" on="0"/>
        <pt x="682" y="883" on="1"/>
        <pt x="682" y="1462" on="1"/>
        <pt x="868" y="1462" on="1"/>
        <pt x="868" y="883" on="1"/>
        <pt x="1048" y="861" on="0"/>
        <pt x="1300" y="682" on="0"/>
        <pt x="1354" y="541" on="1"/>
        <pt x="1579" y="541" on="1"/>
        <pt x="1708" y="541" on="0"/>
        <pt x="1858" y="403" on="0"/>
        <pt x="1858" y="287" on="1"/>
        <pt x="1858" y="148" on="0"/>
        <pt x="1670" y="0" on="0"/>
        <pt x="1499" y="0" on="1"/>
        <pt x="1202" y="0" on="1"/>
        <pt x="1202" y="356" on="1"/>
        <pt x="1202" y="506" on="0"/>
        <pt x="1027" y="698" on="0"/>
        <pt x="868" y="719" on="1"/>
        <pt x="868" y="0" on="1"/>
        <pt x="682" y="0" on="1"/>
      </contour>
      <contour>
        <pt x="1386" y="401" on="1"/>
        <pt x="1389" y="383" on="0"/>
        <pt x="1389" y="352" on="1"/>
        <pt x="1389" y="135" on="1"/>
        <pt x="1464" y="135" on="1"/>
        <pt x="1570" y="135" on="0"/>
        <pt x="1675" y="206" on="0"/>
        <pt x="1675" y="281" on="1"/>
        <pt x="1675" y="401" on="0"/>
        <pt x="1520" y="401" on="1"/>
      </contour>
    </TTGlyph>
    <TTGlyph name="uni1215" xMin="164" yMin="0" xMax="1389" yMax="1647">
      <contour>
        <pt x="682" y="719" on="1"/>
        <pt x="521" y="697" on="0"/>
        <pt x="350" y="511" on="0"/>
        <pt x="350" y="358" on="1"/>
        <pt x="350" y="0" on="1"/>
        <pt x="164" y="0" on="1"/>
        <pt x="164" y="348" on="1"/>
        <pt x="164" y="570" on="0"/>
        <pt x="444" y="859" on="0"/>
        <pt x="682" y="883" on="1"/>
        <pt x="682" y="1327" on="1"/>
        <pt x="328" y="1327" on="1"/>
        <pt x="287" y="1647" on="1"/>
        <pt x="326" y="1647" on="1"/>
        <pt x="392" y="1647" on="0"/>
        <pt x="490" y="1544" on="0"/>
        <pt x="502" y="1462" on="1"/>
        <pt x="868" y="1462" on="1"/>
        <pt x="868" y="883" on="1"/>
        <pt x="1109" y="855" on="0"/>
        <pt x="1389" y="561" on="0"/>
        <pt x="1389" y="352" on="1"/>
        <pt x="1389" y="0" on="1"/>
        <pt x="1202" y="0" on="1"/>
        <pt x="1202" y="356" on="1"/>
        <pt x="1202" y="506" on="0"/>
        <pt x="1027" y="698" on="0"/>
        <pt x="868" y="719" on="1"/>
        <pt x="868" y="0" on="1"/>
        <pt x="682" y="0" on="1"/>
      </contour>
    </TTGlyph>
    <TTGlyph name="uni1216" xMin="164" yMin="0" xMax="1389" yMax="1462">
      <contour>
        <pt x="1202" y="291" on="1"/>
        <pt x="1202" y="350" on="1"/>
        <pt x="1200" y="503" on="0"/>
        <pt x="1023" y="693" on="0"/>
        <pt x="868" y="713" on="1"/>
        <pt x="868" y="291" on="1"/>
        <pt x="682" y="291" on="1"/>
        <pt x="682" y="713" on="1"/>
        <pt x="521" y="691" on="0"/>
        <pt x="350" y="505" on="0"/>
        <pt x="350" y="352" on="1"/>
        <pt x="350" y="0" on="1"/>
        <pt x="164" y="0" on="1"/>
        <pt x="164" y="342" on="1"/>
        <pt x="164" y="564" on="0"/>
        <pt x="444" y="853" on="0"/>
        <pt x="682" y="877" on="1"/>
        <pt x="682" y="1462" on="1"/>
        <pt x="868" y="1462" on="1"/>
        <pt x="868" y="877" on="1"/>
        <pt x="1109" y="849" on="0"/>
        <pt x="1389" y="555" on="0"/>
        <pt x="1389" y="346" on="1"/>
        <pt x="1389" y="291" on="1"/>
      </contour>
    </TTGlyph>
    <TTGlyph name="uni1217" xMin="123" yMin="-184" xMax="1686" yMax="1462">
      <contour>
        <pt x="600" y="-184" on="1"/>
        <pt x="641" y="135" on="1"/>
        <pt x="1161" y="135" on="1"/>
        <pt x="1161" y="350" on="1"/>
        <pt x="1161" y="500" on="0"/>
        <pt x="986" y="692" on="0"/>
        <pt x="827" y="713" on="1"/>
        <pt x="827" y="291" on="1"/>
        <pt x="641" y="291" on="1"/>
        <pt x="641" y="713" on="1"/>
        <pt x="480" y="691" on="0"/>
        <pt x="309" y="505" on="0"/>
        <pt x="309" y="352" on="1"/>
        <pt x="309" y="291" on="1"/>
        <pt x="123" y="291" on="1"/>
        <pt x="123" y="342" on="1"/>
        <pt x="123" y="564" on="0"/>
        <pt x="403" y="853" on="0"/>
        <pt x="641" y="877" on="1"/>
        <pt x="641" y="1462" on="1"/>
        <pt x="827" y="1462" on="1"/>
        <pt x="827" y="877" on="1"/>
        <pt x="1068" y="849" on="0"/>
        <pt x="1348" y="555" on="0"/>
        <pt x="1348" y="346" on="1"/>
        <pt x="1348" y="135" on="1"/>
        <pt x="1645" y="135" on="1"/>
        <pt x="1686" y="-184" on="1"/>
        <pt x="1647" y="-184" on="1"/>
        <pt x="1590" y="-184" on="0"/>
        <pt x="1493" y="-78" on="0"/>
        <pt x="1473" y="0" on="1"/>
        <pt x="811" y="0" on="1"/>
        <pt x="791" y="-80" on="0"/>
        <pt x="694" y="-184" on="0"/>
        <pt x="639" y="-184" on="1"/>
      </contour>
    </TTGlyph>
    <TTGlyph name="uni1218" xMin="143" yMin="-20" xMax="1802" yMax="1462">
      <contour>
        <pt x="1112" y="1327" on="1"/>
        <pt x="905" y="1327" on="1"/>
        <pt x="905" y="223" on="1"/>
        <pt x="733" y="-20" on="0"/>
        <pt x="530" y="-20" on="1"/>
        <pt x="143" y="-20" on="0"/>
        <pt x="143" y="639" on="1"/>
        <pt x="143" y="1022" on="0"/>
        <pt x="427" y="1462" on="0"/>
        <pt x="674" y="1462" on="1"/>
        <pt x="1393" y="1462" on="1"/>
        <pt x="1594" y="1462" on="0"/>
        <pt x="1802" y="1152" on="0"/>
        <pt x="1802" y="852" on="1"/>
        <pt x="1802" y="150" on="0"/>
        <pt x="1407" y="150" on="1"/>
        <pt x="1112" y="150" on="1"/>
      </contour>
      <contour>
        <pt x="539" y="119" on="1"/>
        <pt x="591" y="119" on="0"/>
        <pt x="677" y="171" on="0"/>
        <pt x="719" y="229" on="1"/>
        <pt x="719" y="1327" on="1"/>
        <pt x="690" y="1327" on="1"/>
        <pt x="515" y="1327" on="0"/>
        <pt x="326" y="983" on="0"/>
        <pt x="326" y="645" on="1"/>
        <pt x="326" y="390" on="0"/>
        <pt x="439" y="119" on="0"/>
      </contour>
      <contour>
        <pt x="1298" y="1327" on="1"/>
        <pt x="1298" y="285" on="1"/>
        <pt x="1380" y="285" on="1"/>
        <pt x="1503" y="285" on="0"/>
        <pt x="1620" y="542" on="0"/>
        <pt x="1620" y="815" on="1"/>
        <pt x="1620" y="1078" on="0"/>
        <pt x="1506" y="1327" on="0"/>
        <pt x="1389" y="1327" on="1"/>
      </contour>
    </TTGlyph>
    <TTGlyph name="uni1219" xMin="143" yMin="-20" xMax="2169" yMax="1462">
      <contour>
        <pt x="1112" y="1327" on="1"/>
        <pt x="905" y="1327" on="1"/>
        <pt x="905" y="223" on="1"/>
        <pt x="733" y="-20" on="0"/>
        <pt x="530" y="-20" on="1"/>
        <pt x="143" y="-20" on="0"/>
        <pt x="143" y="639" on="1"/>
        <pt x="143" y="1022" on="0"/>
        <pt x="427" y="1462" on="0"/>
        <pt x="674" y="1462" on="1"/>
        <pt x="1393" y="1462" on="1"/>
        <pt x="1586" y="1462" on="0"/>
        <pt x="1793" y="1172" on="0"/>
        <pt x="1800" y="899" on="1"/>
        <pt x="2128" y="899" on="1"/>
        <pt x="2169" y="580" on="1"/>
        <pt x="2130" y="580" on="1"/>
        <pt x="2060" y="580" on="0"/>
        <pt x="1966" y="684" on="0"/>
        <pt x="1954" y="764" on="1"/>
        <pt x="1800" y="764" on="1"/>
        <pt x="1775" y="150" on="0"/>
        <pt x="1407" y="150" on="1"/>
        <pt x="1112" y="150" on="1"/>
      </contour>
      <contour>
        <pt x="539" y="119" on="1"/>
        <pt x="591" y="119" on="0"/>
        <pt x="677" y="171" on="0"/>
        <pt x="719" y="229" on="1"/>
        <pt x="719" y="1327" on="1"/>
        <pt x="690" y="1327" on="1"/>
        <pt x="515" y="1327" on="0"/>
        <pt x="326" y="983" on="0"/>
        <pt x="326" y="645" on="1"/>
        <pt x="326" y="390" on="0"/>
        <pt x="439" y="119" on="0"/>
      </contour>
      <contour>
        <pt x="1298" y="1327" on="1"/>
        <pt x="1298" y="285" on="1"/>
        <pt x="1380" y="285" on="1"/>
        <pt x="1503" y="285" on="0"/>
        <pt x="1620" y="542" on="0"/>
        <pt x="1620" y="815" on="1"/>
        <pt x="1620" y="1078" on="0"/>
        <pt x="1506" y="1327" on="0"/>
        <pt x="1389" y="1327" on="1"/>
      </contour>
    </TTGlyph>
    <TTGlyph name="uni121A" xMin="123" yMin="-162" xMax="1958" yMax="1462">
      <contour>
        <pt x="1413" y="1462" on="1"/>
        <pt x="1794" y="1462" on="0"/>
        <pt x="1794" y="1174" on="1"/>
        <pt x="1794" y="1117" on="0"/>
        <pt x="1750" y="951" on="0"/>
        <pt x="1686" y="795" on="1"/>
        <pt x="1417" y="135" on="1"/>
        <pt x="1747" y="135" on="1"/>
        <pt x="1763" y="199" on="0"/>
        <pt x="1862" y="299" on="0"/>
        <pt x="1919" y="299" on="1"/>
        <pt x="1958" y="299" on="1"/>
        <pt x="1925" y="70" on="1"/>
        <pt x="1958" y="-162" on="1"/>
        <pt x="1919" y="-162" on="1"/>
        <pt x="1862" y="-162" on="0"/>
        <pt x="1764" y="-63" on="0"/>
        <pt x="1747" y="0" on="1"/>
        <pt x="1219" y="0" on="1"/>
        <pt x="1219" y="115" on="1"/>
        <pt x="1477" y="741" on="1"/>
        <pt x="1368" y="741" on="1"/>
        <pt x="1225" y="741" on="0"/>
        <pt x="1069" y="885" on="0"/>
        <pt x="1069" y="1022" on="1"/>
        <pt x="1073" y="1090" on="1"/>
        <pt x="1092" y="1327" on="1"/>
        <pt x="885" y="1327" on="1"/>
        <pt x="885" y="735" on="1"/>
        <pt x="800" y="661" on="0"/>
        <pt x="606" y="573" on="0"/>
        <pt x="485" y="573" on="1"/>
        <pt x="310" y="573" on="0"/>
        <pt x="123" y="781" on="0"/>
        <pt x="123" y="977" on="1"/>
        <pt x="123" y="1119" on="0"/>
        <pt x="245" y="1340" on="0"/>
        <pt x="474" y="1462" on="0"/>
        <pt x="623" y="1462" on="1"/>
      </contour>
      <contour>
        <pt x="494" y="713" on="1"/>
        <pt x="559" y="713" on="0"/>
        <pt x="656" y="742" on="0"/>
        <pt x="698" y="776" on="1"/>
        <pt x="698" y="1327" on="1"/>
        <pt x="629" y="1327" on="1"/>
        <pt x="473" y="1327" on="0"/>
        <pt x="305" y="1146" on="0"/>
        <pt x="305" y="973" on="1"/>
        <pt x="305" y="848" on="0"/>
        <pt x="406" y="713" on="0"/>
      </contour>
      <contour>
        <pt x="1274" y="1327" on="1"/>
        <pt x="1255" y="1112" on="1"/>
        <pt x="1251" y="1040" on="1"/>
        <pt x="1251" y="951" on="0"/>
        <pt x="1347" y="877" on="0"/>
        <pt x="1473" y="877" on="1"/>
        <pt x="1532" y="877" on="1"/>
        <pt x="1577" y="995" on="0"/>
        <pt x="1603" y="1085" on="0"/>
        <pt x="1614" y="1153" on="0"/>
        <pt x="1614" y="1174" on="1"/>
        <pt x="1614" y="1252" on="0"/>
        <pt x="1527" y="1327" on="0"/>
        <pt x="1436" y="1327" on="1"/>
      </contour>
    </TTGlyph>
    <TTGlyph name="uni121B" xMin="123" yMin="0" xMax="1794" yMax="1462">
      <contour>
        <pt x="885" y="1327" on="1"/>
        <pt x="885" y="735" on="1"/>
        <pt x="800" y="661" on="0"/>
        <pt x="606" y="573" on="0"/>
        <pt x="485" y="573" on="1"/>
        <pt x="310" y="573" on="0"/>
        <pt x="123" y="781" on="0"/>
        <pt x="123" y="977" on="1"/>
        <pt x="123" y="1119" on="0"/>
        <pt x="245" y="1340" on="0"/>
        <pt x="474" y="1462" on="0"/>
        <pt x="623" y="1462" on="1"/>
        <pt x="1413" y="1462" on="1"/>
        <pt x="1794" y="1462" on="0"/>
        <pt x="1794" y="1174" on="1"/>
        <pt x="1794" y="1117" on="0"/>
        <pt x="1750" y="951" on="0"/>
        <pt x="1686" y="795" on="1"/>
        <pt x="1362" y="0" on="1"/>
        <pt x="1171" y="0" on="1"/>
        <pt x="1477" y="741" on="1"/>
        <pt x="1368" y="741" on="1"/>
        <pt x="1225" y="741" on="0"/>
        <pt x="1069" y="885" on="0"/>
        <pt x="1069" y="1022" on="1"/>
        <pt x="1073" y="1090" on="1"/>
        <pt x="1092" y="1327" on="1"/>
      </contour>
      <contour>
        <pt x="494" y="713" on="1"/>
        <pt x="559" y="713" on="0"/>
        <pt x="656" y="742" on="0"/>
        <pt x="698" y="776" on="1"/>
        <pt x="698" y="1327" on="1"/>
        <pt x="629" y="1327" on="1"/>
        <pt x="473" y="1327" on="0"/>
        <pt x="305" y="1146" on="0"/>
        <pt x="305" y="973" on="1"/>
        <pt x="305" y="848" on="0"/>
        <pt x="406" y="713" on="0"/>
      </contour>
      <contour>
        <pt x="1274" y="1327" on="1"/>
        <pt x="1255" y="1112" on="1"/>
        <pt x="1251" y="1040" on="1"/>
        <pt x="1251" y="951" on="0"/>
        <pt x="1347" y="877" on="0"/>
        <pt x="1473" y="877" on="1"/>
        <pt x="1532" y="877" on="1"/>
        <pt x="1577" y="995" on="0"/>
        <pt x="1603" y="1085" on="0"/>
        <pt x="1614" y="1153" on="0"/>
        <pt x="1614" y="1174" on="1"/>
        <pt x="1614" y="1252" on="0"/>
        <pt x="1527" y="1327" on="0"/>
        <pt x="1436" y="1327" on="1"/>
      </contour>
    </TTGlyph>
    <TTGlyph name="uni121C" xMin="123" yMin="0" xMax="1968" yMax="1462">
      <contour>
        <pt x="885" y="1327" on="1"/>
        <pt x="885" y="735" on="1"/>
        <pt x="800" y="661" on="0"/>
        <pt x="606" y="573" on="0"/>
        <pt x="485" y="573" on="1"/>
        <pt x="310" y="573" on="0"/>
        <pt x="123" y="781" on="0"/>
        <pt x="123" y="977" on="1"/>
        <pt x="123" y="1119" on="0"/>
        <pt x="245" y="1340" on="0"/>
        <pt x="474" y="1462" on="0"/>
        <pt x="623" y="1462" on="1"/>
        <pt x="1413" y="1462" on="1"/>
        <pt x="1794" y="1462" on="0"/>
        <pt x="1794" y="1174" on="1"/>
        <pt x="1794" y="1130" on="0"/>
        <pt x="1770" y="1021" on="0"/>
        <pt x="1729" y="899" on="0"/>
        <pt x="1581" y="541" on="1"/>
        <pt x="1690" y="541" on="1"/>
        <pt x="1817" y="541" on="0"/>
        <pt x="1968" y="406" on="0"/>
        <pt x="1968" y="287" on="1"/>
        <pt x="1968" y="149" on="0"/>
        <pt x="1783" y="0" on="0"/>
        <pt x="1610" y="0" on="1"/>
        <pt x="1227" y="0" on="1"/>
        <pt x="1227" y="135" on="1"/>
        <pt x="1477" y="741" on="1"/>
        <pt x="1368" y="741" on="1"/>
        <pt x="1225" y="741" on="0"/>
        <pt x="1069" y="885" on="0"/>
        <pt x="1069" y="1022" on="1"/>
        <pt x="1073" y="1090" on="1"/>
        <pt x="1092" y="1327" on="1"/>
      </contour>
      <contour>
        <pt x="494" y="713" on="1"/>
        <pt x="559" y="713" on="0"/>
        <pt x="656" y="742" on="0"/>
        <pt x="698" y="776" on="1"/>
        <pt x="698" y="1327" on="1"/>
        <pt x="629" y="1327" on="1"/>
        <pt x="473" y="1327" on="0"/>
        <pt x="305" y="1146" on="0"/>
        <pt x="305" y="973" on="1"/>
        <pt x="305" y="848" on="0"/>
        <pt x="406" y="713" on="0"/>
      </contour>
      <contour>
        <pt x="1274" y="1327" on="1"/>
        <pt x="1255" y="1112" on="1"/>
        <pt x="1251" y="1040" on="1"/>
        <pt x="1251" y="951" on="0"/>
        <pt x="1347" y="877" on="0"/>
        <pt x="1473" y="877" on="1"/>
        <pt x="1532" y="877" on="1"/>
        <pt x="1577" y="995" on="0"/>
        <pt x="1603" y="1085" on="0"/>
        <pt x="1614" y="1153" on="0"/>
        <pt x="1614" y="1174" on="1"/>
        <pt x="1614" y="1252" on="0"/>
        <pt x="1527" y="1327" on="0"/>
        <pt x="1436" y="1327" on="1"/>
      </contour>
      <contour>
        <pt x="1526" y="401" on="1"/>
        <pt x="1417" y="135" on="1"/>
        <pt x="1575" y="135" on="1"/>
        <pt x="1681" y="135" on="0"/>
        <pt x="1786" y="206" on="0"/>
        <pt x="1786" y="281" on="1"/>
        <pt x="1786" y="401" on="0"/>
        <pt x="1630" y="401" on="1"/>
      </contour>
    </TTGlyph>
    <TTGlyph name="uni121D" xMin="123" yMin="0" xMax="1782" yMax="1462">
      <contour>
        <pt x="1411" y="1462" on="1"/>
        <pt x="1586" y="1462" on="0"/>
        <pt x="1782" y="1279" on="0"/>
        <pt x="1782" y="1122" on="1"/>
        <pt x="1782" y="942" on="0"/>
        <pt x="1594" y="743" on="0"/>
        <pt x="1423" y="743" on="1"/>
        <pt x="1092" y="743" on="1"/>
        <pt x="1092" y="1327" on="1"/>
        <pt x="885" y="1327" on="1"/>
        <pt x="885" y="735" on="1"/>
        <pt x="594" y="0" on="1"/>
        <pt x="403" y="0" on="1"/>
        <pt x="651" y="598" on="1"/>
        <pt x="572" y="573" on="0"/>
        <pt x="485" y="573" on="1"/>
        <pt x="310" y="573" on="0"/>
        <pt x="123" y="781" on="0"/>
        <pt x="123" y="977" on="1"/>
        <pt x="123" y="1119" on="0"/>
        <pt x="245" y="1340" on="0"/>
        <pt x="474" y="1462" on="0"/>
        <pt x="623" y="1462" on="1"/>
      </contour>
      <contour>
        <pt x="494" y="713" on="1"/>
        <pt x="559" y="713" on="0"/>
        <pt x="656" y="742" on="0"/>
        <pt x="698" y="776" on="1"/>
        <pt x="698" y="1327" on="1"/>
        <pt x="629" y="1327" on="1"/>
        <pt x="473" y="1327" on="0"/>
        <pt x="305" y="1146" on="0"/>
        <pt x="305" y="973" on="1"/>
        <pt x="305" y="848" on="0"/>
        <pt x="406" y="713" on="0"/>
      </contour>
      <contour>
        <pt x="1278" y="1327" on="1"/>
        <pt x="1278" y="879" on="1"/>
        <pt x="1389" y="879" on="1"/>
        <pt x="1491" y="879" on="0"/>
        <pt x="1599" y="1000" on="0"/>
        <pt x="1599" y="1112" on="1"/>
        <pt x="1599" y="1214" on="0"/>
        <pt x="1498" y="1327" on="0"/>
        <pt x="1407" y="1327" on="1"/>
      </contour>
    </TTGlyph>
    <TTGlyph name="uni121E" xMin="123" yMin="0" xMax="1782" yMax="1462">
      <contour>
        <pt x="698" y="614" on="1"/>
        <pt x="598" y="573" on="0"/>
        <pt x="485" y="573" on="1"/>
        <pt x="310" y="573" on="0"/>
        <pt x="123" y="781" on="0"/>
        <pt x="123" y="977" on="1"/>
        <pt x="123" y="1119" on="0"/>
        <pt x="245" y="1340" on="0"/>
        <pt x="474" y="1462" on="0"/>
        <pt x="623" y="1462" on="1"/>
        <pt x="1411" y="1462" on="1"/>
        <pt x="1586" y="1462" on="0"/>
        <pt x="1782" y="1279" on="0"/>
        <pt x="1782" y="1122" on="1"/>
        <pt x="1782" y="942" on="0"/>
        <pt x="1594" y="743" on="0"/>
        <pt x="1423" y="743" on="1"/>
        <pt x="1092" y="743" on="1"/>
        <pt x="1092" y="1327" on="1"/>
        <pt x="885" y="1327" on="1"/>
        <pt x="885" y="0" on="1"/>
        <pt x="698" y="0" on="1"/>
      </contour>
      <contour>
        <pt x="494" y="713" on="1"/>
        <pt x="559" y="713" on="0"/>
        <pt x="656" y="742" on="0"/>
        <pt x="698" y="776" on="1"/>
        <pt x="698" y="1327" on="1"/>
        <pt x="629" y="1327" on="1"/>
        <pt x="473" y="1327" on="0"/>
        <pt x="305" y="1146" on="0"/>
        <pt x="305" y="973" on="1"/>
        <pt x="305" y="848" on="0"/>
        <pt x="406" y="713" on="0"/>
      </contour>
      <contour>
        <pt x="1278" y="1327" on="1"/>
        <pt x="1278" y="879" on="1"/>
        <pt x="1389" y="879" on="1"/>
        <pt x="1491" y="879" on="0"/>
        <pt x="1599" y="1000" on="0"/>
        <pt x="1599" y="1112" on="1"/>
        <pt x="1599" y="1214" on="0"/>
        <pt x="1498" y="1327" on="0"/>
        <pt x="1407" y="1327" on="1"/>
      </contour>
    </TTGlyph>
    <TTGlyph name="uni121F" xMin="123" yMin="-164" xMax="1800" yMax="1462">
      <contour>
        <pt x="885" y="1327" on="1"/>
        <pt x="885" y="735" on="1"/>
        <pt x="800" y="661" on="0"/>
        <pt x="606" y="573" on="0"/>
        <pt x="485" y="573" on="1"/>
        <pt x="310" y="573" on="0"/>
        <pt x="123" y="781" on="0"/>
        <pt x="123" y="977" on="1"/>
        <pt x="123" y="1119" on="0"/>
        <pt x="245" y="1340" on="0"/>
        <pt x="474" y="1462" on="0"/>
        <pt x="623" y="1462" on="1"/>
        <pt x="1413" y="1462" on="1"/>
        <pt x="1794" y="1462" on="0"/>
        <pt x="1794" y="1174" on="1"/>
        <pt x="1794" y="1117" on="0"/>
        <pt x="1750" y="951" on="0"/>
        <pt x="1686" y="795" on="1"/>
        <pt x="1417" y="135" on="1"/>
        <pt x="1759" y="135" on="1"/>
        <pt x="1800" y="-164" on="1"/>
        <pt x="1761" y="-164" on="1"/>
        <pt x="1706" y="-164" on="0"/>
        <pt x="1610" y="-75" on="0"/>
        <pt x="1587" y="0" on="1"/>
        <pt x="1055" y="0" on="1"/>
        <pt x="1032" y="-76" on="0"/>
        <pt x="938" y="-164" on="0"/>
        <pt x="883" y="-164" on="1"/>
        <pt x="844" y="-164" on="1"/>
        <pt x="885" y="135" on="1"/>
        <pt x="1227" y="135" on="1"/>
        <pt x="1477" y="741" on="1"/>
        <pt x="1368" y="741" on="1"/>
        <pt x="1225" y="741" on="0"/>
        <pt x="1069" y="885" on="0"/>
        <pt x="1069" y="1022" on="1"/>
        <pt x="1073" y="1090" on="1"/>
        <pt x="1092" y="1327" on="1"/>
      </contour>
      <contour>
        <pt x="494" y="713" on="1"/>
        <pt x="559" y="713" on="0"/>
        <pt x="656" y="742" on="0"/>
        <pt x="698" y="776" on="1"/>
        <pt x="698" y="1327" on="1"/>
        <pt x="629" y="1327" on="1"/>
        <pt x="473" y="1327" on="0"/>
        <pt x="305" y="1146" on="0"/>
        <pt x="305" y="973" on="1"/>
        <pt x="305" y="848" on="0"/>
        <pt x="406" y="713" on="0"/>
      </contour>
      <contour>
        <pt x="1274" y="1327" on="1"/>
        <pt x="1255" y="1112" on="1"/>
        <pt x="1251" y="1040" on="1"/>
        <pt x="1251" y="951" on="0"/>
        <pt x="1347" y="877" on="0"/>
        <pt x="1473" y="877" on="1"/>
        <pt x="1532" y="877" on="1"/>
        <pt x="1577" y="995" on="0"/>
        <pt x="1603" y="1085" on="0"/>
        <pt x="1614" y="1153" on="0"/>
        <pt x="1614" y="1174" on="1"/>
        <pt x="1614" y="1252" on="0"/>
        <pt x="1527" y="1327" on="0"/>
        <pt x="1436" y="1327" on="1"/>
      </contour>
    </TTGlyph>
    <TTGlyph name="uni1220" xMin="184" yMin="-20" xMax="1505" yMax="1462">
      <contour>
        <pt x="752" y="1462" on="1"/>
        <pt x="938" y="1462" on="1"/>
        <pt x="938" y="662" on="1"/>
        <pt x="938" y="499" on="0"/>
        <pt x="1034" y="348" on="0"/>
        <pt x="1133" y="348" on="1"/>
        <pt x="1223" y="348" on="0"/>
        <pt x="1317" y="494" on="0"/>
        <pt x="1319" y="659" on="1"/>
        <pt x="1319" y="1462" on="1"/>
        <pt x="1505" y="1462" on="1"/>
        <pt x="1505" y="653" on="1"/>
        <pt x="1505" y="433" on="0"/>
        <pt x="1307" y="184" on="0"/>
        <pt x="1128" y="184" on="1"/>
        <pt x="985" y="184" on="0"/>
        <pt x="897" y="270" on="1"/>
        <pt x="822" y="-20" on="0"/>
        <pt x="549" y="-20" on="1"/>
        <pt x="374" y="-20" on="0"/>
        <pt x="184" y="231" on="0"/>
        <pt x="184" y="457" on="1"/>
        <pt x="184" y="1462" on="1"/>
        <pt x="371" y="1462" on="1"/>
        <pt x="371" y="457" on="1"/>
        <pt x="371" y="294" on="0"/>
        <pt x="467" y="143" on="0"/>
        <pt x="565" y="143" on="1"/>
        <pt x="658" y="143" on="0"/>
        <pt x="752" y="294" on="0"/>
        <pt x="752" y="461" on="1"/>
      </contour>
    </TTGlyph>
    <TTGlyph name="uni1221" xMin="184" yMin="-20" xMax="1911" yMax="1462">
      <contour>
        <pt x="752" y="1462" on="1"/>
        <pt x="938" y="1462" on="1"/>
        <pt x="938" y="662" on="1"/>
        <pt x="938" y="499" on="0"/>
        <pt x="1034" y="348" on="0"/>
        <pt x="1133" y="348" on="1"/>
        <pt x="1223" y="348" on="0"/>
        <pt x="1317" y="494" on="0"/>
        <pt x="1319" y="659" on="1"/>
        <pt x="1319" y="1462" on="1"/>
        <pt x="1505" y="1462" on="1"/>
        <pt x="1505" y="899" on="1"/>
        <pt x="1870" y="899" on="1"/>
        <pt x="1911" y="580" on="1"/>
        <pt x="1872" y="580" on="1"/>
        <pt x="1802" y="580" on="0"/>
        <pt x="1708" y="684" on="0"/>
        <pt x="1696" y="764" on="1"/>
        <pt x="1505" y="764" on="1"/>
        <pt x="1505" y="653" on="1"/>
        <pt x="1505" y="433" on="0"/>
        <pt x="1307" y="184" on="0"/>
        <pt x="1128" y="184" on="1"/>
        <pt x="985" y="184" on="0"/>
        <pt x="897" y="270" on="1"/>
        <pt x="822" y="-20" on="0"/>
        <pt x="549" y="-20" on="1"/>
        <pt x="374" y="-20" on="0"/>
        <pt x="184" y="231" on="0"/>
        <pt x="184" y="457" on="1"/>
        <pt x="184" y="1462" on="1"/>
        <pt x="371" y="1462" on="1"/>
        <pt x="371" y="457" on="1"/>
        <pt x="371" y="294" on="0"/>
        <pt x="467" y="143" on="0"/>
        <pt x="565" y="143" on="1"/>
        <pt x="658" y="143" on="0"/>
        <pt x="752" y="294" on="0"/>
        <pt x="752" y="461" on="1"/>
      </contour>
    </TTGlyph>
    <TTGlyph name="uni1222" xMin="123" yMin="-162" xMax="1567" yMax="1462">
      <contour>
        <pt x="1126" y="762" on="1"/>
        <pt x="1106" y="758" on="0"/>
        <pt x="1067" y="758" on="1"/>
        <pt x="988" y="758" on="0"/>
        <pt x="884" y="796" on="0"/>
        <pt x="836" y="844" on="1"/>
        <pt x="761" y="553" on="0"/>
        <pt x="487" y="553" on="1"/>
        <pt x="311" y="553" on="0"/>
        <pt x="123" y="805" on="0"/>
        <pt x="123" y="1030" on="1"/>
        <pt x="123" y="1462" on="1"/>
        <pt x="309" y="1462" on="1"/>
        <pt x="309" y="1030" on="1"/>
        <pt x="309" y="869" on="0"/>
        <pt x="404" y="717" on="0"/>
        <pt x="504" y="717" on="1"/>
        <pt x="596" y="717" on="0"/>
        <pt x="690" y="866" on="0"/>
        <pt x="690" y="1028" on="1"/>
        <pt x="690" y="1462" on="1"/>
        <pt x="877" y="1462" on="1"/>
        <pt x="877" y="1235" on="1"/>
        <pt x="877" y="1074" on="0"/>
        <pt x="972" y="922" on="0"/>
        <pt x="1071" y="922" on="1"/>
        <pt x="1164" y="922" on="0"/>
        <pt x="1257" y="1073" on="0"/>
        <pt x="1257" y="1233" on="1"/>
        <pt x="1257" y="1462" on="1"/>
        <pt x="1444" y="1462" on="1"/>
        <pt x="1444" y="1227" on="1"/>
        <pt x="1444" y="1084" on="0"/>
        <pt x="1397" y="973" on="1"/>
        <pt x="1057" y="135" on="1"/>
        <pt x="1356" y="135" on="1"/>
        <pt x="1372" y="199" on="0"/>
        <pt x="1471" y="299" on="0"/>
        <pt x="1528" y="299" on="1"/>
        <pt x="1567" y="299" on="1"/>
        <pt x="1534" y="70" on="1"/>
        <pt x="1567" y="-162" on="1"/>
        <pt x="1528" y="-162" on="1"/>
        <pt x="1471" y="-162" on="0"/>
        <pt x="1373" y="-63" on="0"/>
        <pt x="1356" y="0" on="1"/>
        <pt x="864" y="0" on="1"/>
        <pt x="864" y="115" on="1"/>
      </contour>
    </TTGlyph>
    <TTGlyph name="uni1223" xMin="164" yMin="0" xMax="1485" yMax="1462">
      <contour>
        <pt x="852" y="0" on="1"/>
        <pt x="1157" y="760" on="1"/>
        <pt x="1133" y="758" on="1"/>
        <pt x="1108" y="758" on="1"/>
        <pt x="965" y="758" on="0"/>
        <pt x="877" y="844" on="1"/>
        <pt x="802" y="553" on="0"/>
        <pt x="528" y="553" on="1"/>
        <pt x="352" y="553" on="0"/>
        <pt x="164" y="805" on="0"/>
        <pt x="164" y="1030" on="1"/>
        <pt x="164" y="1462" on="1"/>
        <pt x="350" y="1462" on="1"/>
        <pt x="350" y="1030" on="1"/>
        <pt x="350" y="869" on="0"/>
        <pt x="445" y="717" on="0"/>
        <pt x="545" y="717" on="1"/>
        <pt x="637" y="717" on="0"/>
        <pt x="731" y="866" on="0"/>
        <pt x="731" y="1028" on="1"/>
        <pt x="731" y="1462" on="1"/>
        <pt x="918" y="1462" on="1"/>
        <pt x="918" y="1235" on="1"/>
        <pt x="918" y="1070" on="0"/>
        <pt x="1013" y="922" on="0"/>
        <pt x="1112" y="922" on="1"/>
        <pt x="1205" y="922" on="0"/>
        <pt x="1298" y="1073" on="0"/>
        <pt x="1298" y="1233" on="1"/>
        <pt x="1298" y="1462" on="1"/>
        <pt x="1485" y="1462" on="1"/>
        <pt x="1485" y="1227" on="1"/>
        <pt x="1485" y="1084" on="0"/>
        <pt x="1438" y="973" on="1"/>
        <pt x="1042" y="0" on="1"/>
      </contour>
    </TTGlyph>
    <TTGlyph name="uni1224" xMin="164" yMin="0" xMax="1620" yMax="1462">
      <contour>
        <pt x="1165" y="764" on="1"/>
        <pt x="1141" y="758" on="0"/>
        <pt x="1108" y="758" on="1"/>
        <pt x="965" y="758" on="0"/>
        <pt x="877" y="844" on="1"/>
        <pt x="802" y="553" on="0"/>
        <pt x="528" y="553" on="1"/>
        <pt x="352" y="553" on="0"/>
        <pt x="164" y="805" on="0"/>
        <pt x="164" y="1030" on="1"/>
        <pt x="164" y="1462" on="1"/>
        <pt x="350" y="1462" on="1"/>
        <pt x="350" y="1030" on="1"/>
        <pt x="350" y="869" on="0"/>
        <pt x="445" y="717" on="0"/>
        <pt x="545" y="717" on="1"/>
        <pt x="637" y="717" on="0"/>
        <pt x="731" y="866" on="0"/>
        <pt x="731" y="1028" on="1"/>
        <pt x="731" y="1462" on="1"/>
        <pt x="918" y="1462" on="1"/>
        <pt x="918" y="1235" on="1"/>
        <pt x="918" y="1070" on="0"/>
        <pt x="1013" y="922" on="0"/>
        <pt x="1112" y="922" on="1"/>
        <pt x="1205" y="922" on="0"/>
        <pt x="1298" y="1073" on="0"/>
        <pt x="1298" y="1233" on="1"/>
        <pt x="1298" y="1462" on="1"/>
        <pt x="1485" y="1462" on="1"/>
        <pt x="1485" y="1227" on="1"/>
        <pt x="1485" y="1084" on="0"/>
        <pt x="1438" y="973" on="1"/>
        <pt x="1257" y="541" on="1"/>
        <pt x="1341" y="541" on="1"/>
        <pt x="1470" y="541" on="0"/>
        <pt x="1620" y="403" on="0"/>
        <pt x="1620" y="287" on="1"/>
        <pt x="1620" y="149" on="0"/>
        <pt x="1435" y="0" on="0"/>
        <pt x="1262" y="0" on="1"/>
        <pt x="905" y="0" on="1"/>
        <pt x="905" y="115" on="1"/>
      </contour>
      <contour>
        <pt x="1202" y="401" on="1"/>
        <pt x="1096" y="135" on="1"/>
        <pt x="1227" y="135" on="1"/>
        <pt x="1333" y="135" on="0"/>
        <pt x="1438" y="206" on="0"/>
        <pt x="1438" y="281" on="1"/>
        <pt x="1438" y="401" on="0"/>
        <pt x="1282" y="401" on="1"/>
      </contour>
    </TTGlyph>
    <TTGlyph name="uni1225" xMin="82" yMin="0" xMax="1743" yMax="1462">
      <contour>
        <pt x="989" y="1462" on="1"/>
        <pt x="1176" y="1462" on="1"/>
        <pt x="1176" y="1235" on="1"/>
        <pt x="1176" y="1074" on="0"/>
        <pt x="1271" y="922" on="0"/>
        <pt x="1370" y="922" on="1"/>
        <pt x="1463" y="922" on="0"/>
        <pt x="1556" y="1073" on="0"/>
        <pt x="1556" y="1233" on="1"/>
        <pt x="1556" y="1462" on="1"/>
        <pt x="1743" y="1462" on="1"/>
        <pt x="1743" y="1227" on="1"/>
        <pt x="1743" y="1007" on="0"/>
        <pt x="1545" y="758" on="0"/>
        <pt x="1366" y="758" on="1"/>
        <pt x="1223" y="758" on="0"/>
        <pt x="1135" y="844" on="1"/>
        <pt x="1060" y="553" on="0"/>
        <pt x="786" y="553" on="1"/>
        <pt x="631" y="553" on="0"/>
        <pt x="541" y="649" on="1"/>
        <pt x="272" y="0" on="1"/>
        <pt x="82" y="0" on="1"/>
        <pt x="438" y="860" on="1"/>
        <pt x="422" y="931" on="0"/>
        <pt x="422" y="1030" on="1"/>
        <pt x="422" y="1462" on="1"/>
        <pt x="608" y="1462" on="1"/>
        <pt x="608" y="1030" on="1"/>
        <pt x="608" y="869" on="0"/>
        <pt x="703" y="717" on="0"/>
        <pt x="803" y="717" on="1"/>
        <pt x="895" y="717" on="0"/>
        <pt x="989" y="866" on="0"/>
        <pt x="989" y="1028" on="1"/>
      </contour>
    </TTGlyph>
    <TTGlyph name="uni1226" xMin="164" yMin="0" xMax="1485" yMax="1462">
      <contour>
        <pt x="731" y="1462" on="1"/>
        <pt x="918" y="1462" on="1"/>
        <pt x="918" y="1235" on="1"/>
        <pt x="918" y="1070" on="0"/>
        <pt x="1013" y="922" on="0"/>
        <pt x="1112" y="922" on="1"/>
        <pt x="1205" y="922" on="0"/>
        <pt x="1298" y="1073" on="0"/>
        <pt x="1298" y="1233" on="1"/>
        <pt x="1298" y="1462" on="1"/>
        <pt x="1485" y="1462" on="1"/>
        <pt x="1485" y="1227" on="1"/>
        <pt x="1485" y="1010" on="0"/>
        <pt x="1287" y="758" on="0"/>
        <pt x="1108" y="758" on="1"/>
        <pt x="980" y="758" on="0"/>
        <pt x="895" y="827" on="1"/>
        <pt x="551" y="0" on="1"/>
        <pt x="360" y="0" on="1"/>
        <pt x="590" y="557" on="1"/>
        <pt x="571" y="553" on="0"/>
        <pt x="528" y="553" on="1"/>
        <pt x="352" y="553" on="0"/>
        <pt x="164" y="805" on="0"/>
        <pt x="164" y="1030" on="1"/>
        <pt x="164" y="1462" on="1"/>
        <pt x="350" y="1462" on="1"/>
        <pt x="350" y="1030" on="1"/>
        <pt x="350" y="869" on="0"/>
        <pt x="445" y="717" on="0"/>
        <pt x="545" y="717" on="1"/>
        <pt x="637" y="717" on="0"/>
        <pt x="731" y="866" on="0"/>
        <pt x="731" y="1028" on="1"/>
      </contour>
    </TTGlyph>
    <TTGlyph name="uni1227" xMin="164" yMin="-164" xMax="1513" yMax="1462">
      <contour>
        <pt x="516" y="-164" on="1"/>
        <pt x="557" y="135" on="1"/>
        <pt x="899" y="135" on="1"/>
        <pt x="1157" y="760" on="1"/>
        <pt x="1133" y="758" on="1"/>
        <pt x="1108" y="758" on="1"/>
        <pt x="965" y="758" on="0"/>
        <pt x="877" y="844" on="1"/>
        <pt x="802" y="553" on="0"/>
        <pt x="528" y="553" on="1"/>
        <pt x="352" y="553" on="0"/>
        <pt x="164" y="805" on="0"/>
        <pt x="164" y="1030" on="1"/>
        <pt x="164" y="1462" on="1"/>
        <pt x="350" y="1462" on="1"/>
        <pt x="350" y="1030" on="1"/>
        <pt x="350" y="869" on="0"/>
        <pt x="445" y="717" on="0"/>
        <pt x="545" y="717" on="1"/>
        <pt x="637" y="717" on="0"/>
        <pt x="731" y="866" on="0"/>
        <pt x="731" y="1028" on="1"/>
        <pt x="731" y="1462" on="1"/>
        <pt x="918" y="1462" on="1"/>
        <pt x="918" y="1235" on="1"/>
        <pt x="918" y="1070" on="0"/>
        <pt x="1013" y="922" on="0"/>
        <pt x="1112" y="922" on="1"/>
        <pt x="1205" y="922" on="0"/>
        <pt x="1298" y="1073" on="0"/>
        <pt x="1298" y="1233" on="1"/>
        <pt x="1298" y="1462" on="1"/>
        <pt x="1485" y="1462" on="1"/>
        <pt x="1485" y="1227" on="1"/>
        <pt x="1485" y="1084" on="0"/>
        <pt x="1438" y="973" on="1"/>
        <pt x="1090" y="135" on="1"/>
        <pt x="1473" y="135" on="1"/>
        <pt x="1513" y="-164" on="1"/>
        <pt x="1475" y="-164" on="1"/>
        <pt x="1420" y="-164" on="0"/>
        <pt x="1323" y="-76" on="0"/>
        <pt x="1300" y="0" on="1"/>
        <pt x="727" y="0" on="1"/>
        <pt x="708" y="-70" on="0"/>
        <pt x="612" y="-164" on="0"/>
        <pt x="555" y="-164" on="1"/>
      </contour>
    </TTGlyph>
    <TTGlyph name="uni1228" xMin="102" yMin="-164" xMax="1006" yMax="1462">
      <contour>
        <pt x="567" y="0" on="1"/>
        <pt x="330" y="0" on="0"/>
        <pt x="102" y="172" on="0"/>
        <pt x="102" y="356" on="1"/>
        <pt x="102" y="529" on="0"/>
        <pt x="281" y="812" on="0"/>
        <pt x="508" y="995" on="1"/>
        <pt x="590" y="1062" on="0"/>
        <pt x="687" y="1202" on="0"/>
        <pt x="731" y="1351" on="0"/>
        <pt x="731" y="1462" on="1"/>
        <pt x="920" y="1462" on="1"/>
        <pt x="920" y="1273" on="0"/>
        <pt x="767" y="982" on="0"/>
        <pt x="610" y="864" on="1"/>
        <pt x="444" y="738" on="0"/>
        <pt x="289" y="490" on="0"/>
        <pt x="289" y="356" on="1"/>
        <pt x="289" y="239" on="0"/>
        <pt x="426" y="135" on="0"/>
        <pt x="567" y="135" on="1"/>
        <pt x="795" y="135" on="1"/>
        <pt x="815" y="204" on="0"/>
        <pt x="911" y="299" on="0"/>
        <pt x="967" y="299" on="1"/>
        <pt x="1006" y="299" on="1"/>
        <pt x="973" y="70" on="1"/>
        <pt x="1006" y="-164" on="1"/>
        <pt x="967" y="-164" on="1"/>
        <pt x="911" y="-164" on="0"/>
        <pt x="813" y="-67" on="0"/>
        <pt x="795" y="0" on="1"/>
      </contour>
    </TTGlyph>
    <TTGlyph name="uni1229" xMin="102" yMin="0" xMax="1200" yMax="1462">
      <contour>
        <pt x="649" y="395" on="1"/>
        <pt x="567" y="395" on="1"/>
        <pt x="327" y="395" on="0"/>
        <pt x="102" y="527" on="0"/>
        <pt x="102" y="678" on="1"/>
        <pt x="102" y="798" on="0"/>
        <pt x="277" y="1001" on="0"/>
        <pt x="467" y="1102" on="1"/>
        <pt x="596" y="1171" on="0"/>
        <pt x="731" y="1344" on="0"/>
        <pt x="731" y="1462" on="1"/>
        <pt x="920" y="1462" on="1"/>
        <pt x="920" y="1315" on="0"/>
        <pt x="746" y="1066" on="0"/>
        <pt x="586" y="983" on="1"/>
        <pt x="427" y="902" on="0"/>
        <pt x="289" y="764" on="0"/>
        <pt x="289" y="684" on="1"/>
        <pt x="289" y="602" on="0"/>
        <pt x="425" y="530" on="0"/>
        <pt x="567" y="530" on="1"/>
        <pt x="1159" y="530" on="1"/>
        <pt x="1200" y="231" on="1"/>
        <pt x="1161" y="231" on="1"/>
        <pt x="1107" y="231" on="0"/>
        <pt x="1012" y="321" on="0"/>
        <pt x="989" y="395" on="1"/>
        <pt x="836" y="395" on="1"/>
        <pt x="836" y="0" on="1"/>
        <pt x="649" y="0" on="1"/>
      </contour>
    </TTGlyph>
    <TTGlyph name="uni122A" xMin="102" yMin="-20" xMax="1061" yMax="1462">
      <contour>
        <pt x="569" y="-20" on="1"/>
        <pt x="102" y="-20" on="0"/>
        <pt x="102" y="356" on="1"/>
        <pt x="102" y="526" on="0"/>
        <pt x="275" y="802" on="0"/>
        <pt x="508" y="989" on="1"/>
        <pt x="590" y="1056" on="0"/>
        <pt x="686" y="1197" on="0"/>
        <pt x="731" y="1347" on="0"/>
        <pt x="731" y="1462" on="1"/>
        <pt x="920" y="1462" on="1"/>
        <pt x="920" y="1273" on="0"/>
        <pt x="768" y="977" on="0"/>
        <pt x="610" y="858" on="1"/>
        <pt x="442" y="730" on="0"/>
        <pt x="289" y="487" on="0"/>
        <pt x="289" y="356" on="1"/>
        <pt x="289" y="240" on="0"/>
        <pt x="436" y="115" on="0"/>
        <pt x="569" y="115" on="1"/>
        <pt x="719" y="115" on="0"/>
        <pt x="872" y="285" on="0"/>
        <pt x="872" y="446" on="1"/>
        <pt x="872" y="524" on="1"/>
        <pt x="1061" y="524" on="1"/>
        <pt x="1061" y="465" on="1"/>
        <pt x="1061" y="-20" on="0"/>
      </contour>
    </TTGlyph>
    <TTGlyph name="uni122B" xMin="102" yMin="0" xMax="1292" yMax="1462">
      <contour>
        <pt x="1081" y="502" on="1"/>
        <pt x="914" y="502" on="0"/>
        <pt x="768" y="276" on="0"/>
        <pt x="756" y="0" on="1"/>
        <pt x="567" y="0" on="1"/>
        <pt x="330" y="0" on="0"/>
        <pt x="102" y="172" on="0"/>
        <pt x="102" y="356" on="1"/>
        <pt x="102" y="526" on="0"/>
        <pt x="275" y="802" on="0"/>
        <pt x="508" y="989" on="1"/>
        <pt x="590" y="1056" on="0"/>
        <pt x="686" y="1197" on="0"/>
        <pt x="731" y="1347" on="0"/>
        <pt x="731" y="1462" on="1"/>
        <pt x="899" y="1462" on="1"/>
        <pt x="899" y="1259" on="0"/>
        <pt x="758" y="970" on="0"/>
        <pt x="610" y="858" on="1"/>
        <pt x="442" y="730" on="0"/>
        <pt x="289" y="487" on="0"/>
        <pt x="289" y="356" on="1"/>
        <pt x="289" y="242" on="0"/>
        <pt x="428" y="135" on="0"/>
        <pt x="571" y="135" on="1"/>
        <pt x="600" y="402" on="0"/>
        <pt x="833" y="637" on="0"/>
        <pt x="1075" y="637" on="1"/>
        <pt x="1251" y="637" on="1"/>
        <pt x="1292" y="338" on="1"/>
        <pt x="1253" y="338" on="1"/>
        <pt x="1199" y="338" on="0"/>
        <pt x="1104" y="428" on="0"/>
      </contour>
    </TTGlyph>
    <TTGlyph name="uni122C" xMin="102" yMin="0" xMax="1229" yMax="1462">
      <contour>
        <pt x="567" y="0" on="1"/>
        <pt x="330" y="0" on="0"/>
        <pt x="102" y="172" on="0"/>
        <pt x="102" y="356" on="1"/>
        <pt x="102" y="526" on="0"/>
        <pt x="275" y="802" on="0"/>
        <pt x="508" y="989" on="1"/>
        <pt x="590" y="1056" on="0"/>
        <pt x="686" y="1197" on="0"/>
        <pt x="731" y="1347" on="0"/>
        <pt x="731" y="1462" on="1"/>
        <pt x="899" y="1462" on="1"/>
        <pt x="899" y="1259" on="0"/>
        <pt x="758" y="970" on="0"/>
        <pt x="610" y="858" on="1"/>
        <pt x="442" y="730" on="0"/>
        <pt x="289" y="487" on="0"/>
        <pt x="289" y="356" on="1"/>
        <pt x="289" y="239" on="0"/>
        <pt x="426" y="135" on="0"/>
        <pt x="567" y="135" on="1"/>
        <pt x="520" y="204" on="0"/>
        <pt x="520" y="299" on="1"/>
        <pt x="520" y="436" on="0"/>
        <pt x="703" y="582" on="0"/>
        <pt x="874" y="582" on="1"/>
        <pt x="1045" y="582" on="0"/>
        <pt x="1229" y="437" on="0"/>
        <pt x="1229" y="299" on="1"/>
        <pt x="1229" y="160" on="0"/>
        <pt x="1040" y="0" on="0"/>
        <pt x="874" y="0" on="1"/>
      </contour>
      <contour>
        <pt x="874" y="463" on="1"/>
        <pt x="794" y="463" on="0"/>
        <pt x="702" y="374" on="0"/>
        <pt x="702" y="297" on="1"/>
        <pt x="702" y="218" on="0"/>
        <pt x="794" y="115" on="0"/>
        <pt x="874" y="115" on="1"/>
        <pt x="954" y="115" on="0"/>
        <pt x="1047" y="218" on="0"/>
        <pt x="1047" y="297" on="1"/>
        <pt x="1047" y="374" on="0"/>
        <pt x="956" y="463" on="0"/>
      </contour>
    </TTGlyph>
    <TTGlyph name="uni122D" xMin="184" yMin="-164" xMax="1028" yMax="1462">
      <contour>
        <pt x="686" y="0" on="1"/>
        <pt x="478" y="0" on="0"/>
        <pt x="275" y="85" on="0"/>
        <pt x="184" y="280" on="0"/>
        <pt x="184" y="461" on="1"/>
        <pt x="184" y="600" on="1"/>
        <pt x="184" y="920" on="0"/>
        <pt x="303" y="1287" on="0"/>
        <pt x="560" y="1462" on="0"/>
        <pt x="772" y="1462" on="1"/>
        <pt x="987" y="1462" on="1"/>
        <pt x="1028" y="1163" on="1"/>
        <pt x="989" y="1163" on="1"/>
        <pt x="935" y="1163" on="0"/>
        <pt x="840" y="1253" on="0"/>
        <pt x="817" y="1327" on="1"/>
        <pt x="772" y="1327" on="1"/>
        <pt x="564" y="1327" on="0"/>
        <pt x="371" y="985" on="0"/>
        <pt x="371" y="602" on="1"/>
        <pt x="371" y="440" on="1"/>
        <pt x="371" y="318" on="0"/>
        <pt x="426" y="190" on="0"/>
        <pt x="549" y="135" on="0"/>
        <pt x="692" y="135" on="1"/>
        <pt x="817" y="135" on="1"/>
        <pt x="838" y="207" on="0"/>
        <pt x="935" y="299" on="0"/>
        <pt x="989" y="299" on="1"/>
        <pt x="1028" y="299" on="1"/>
        <pt x="995" y="70" on="1"/>
        <pt x="1028" y="-164" on="1"/>
        <pt x="989" y="-164" on="1"/>
        <pt x="935" y="-164" on="0"/>
        <pt x="837" y="-71" on="0"/>
        <pt x="817" y="0" on="1"/>
      </contour>
    </TTGlyph>
    <TTGlyph name="uni122E" xMin="184" yMin="-164" xMax="1245" yMax="1462">
      <contour>
        <pt x="891" y="881" on="1"/>
        <pt x="726" y="881" on="0"/>
        <pt x="537" y="1045" on="0"/>
        <pt x="537" y="1180" on="1"/>
        <pt x="537" y="1242" on="0"/>
        <pt x="551" y="1282" on="1"/>
        <pt x="457" y="1220" on="0"/>
        <pt x="371" y="902" on="0"/>
        <pt x="371" y="602" on="1"/>
        <pt x="371" y="440" on="1"/>
        <pt x="371" y="318" on="0"/>
        <pt x="426" y="189" on="0"/>
        <pt x="551" y="135" on="0"/>
        <pt x="690" y="135" on="1"/>
        <pt x="817" y="135" on="1"/>
        <pt x="842" y="211" on="0"/>
        <pt x="936" y="299" on="0"/>
        <pt x="989" y="299" on="1"/>
        <pt x="1028" y="299" on="1"/>
        <pt x="995" y="70" on="1"/>
        <pt x="1028" y="-164" on="1"/>
        <pt x="989" y="-164" on="1"/>
        <pt x="935" y="-164" on="0"/>
        <pt x="840" y="-74" on="0"/>
        <pt x="817" y="0" on="1"/>
        <pt x="686" y="0" on="1"/>
        <pt x="480" y="0" on="0"/>
        <pt x="275" y="86" on="0"/>
        <pt x="184" y="282" on="0"/>
        <pt x="184" y="459" on="1"/>
        <pt x="184" y="600" on="1"/>
        <pt x="184" y="920" on="0"/>
        <pt x="303" y="1287" on="0"/>
        <pt x="560" y="1462" on="0"/>
        <pt x="772" y="1462" on="1"/>
        <pt x="891" y="1462" on="1"/>
        <pt x="1064" y="1462" on="0"/>
        <pt x="1245" y="1318" on="0"/>
        <pt x="1245" y="1180" on="1"/>
        <pt x="1245" y="1042" on="0"/>
        <pt x="1059" y="881" on="0"/>
      </contour>
      <contour>
        <pt x="891" y="1343" on="1"/>
        <pt x="812" y="1343" on="0"/>
        <pt x="719" y="1255" on="0"/>
        <pt x="719" y="1178" on="1"/>
        <pt x="719" y="1097" on="0"/>
        <pt x="814" y="995" on="0"/>
        <pt x="891" y="995" on="1"/>
        <pt x="968" y="995" on="0"/>
        <pt x="1063" y="1097" on="0"/>
        <pt x="1063" y="1178" on="1"/>
        <pt x="1063" y="1255" on="0"/>
        <pt x="970" y="1343" on="0"/>
      </contour>
    </TTGlyph>
    <TTGlyph name="uni122F" xMin="102" yMin="0" xMax="1292" yMax="1550">
      <contour>
        <pt x="274" y="1550" on="1"/>
        <pt x="331" y="1550" on="0"/>
        <pt x="428" y="1455" on="0"/>
        <pt x="446" y="1386" on="1"/>
        <pt x="1079" y="1386" on="1"/>
        <pt x="1101" y="1460" on="0"/>
        <pt x="1199" y="1550" on="0"/>
        <pt x="1253" y="1550" on="1"/>
        <pt x="1292" y="1550" on="1"/>
        <pt x="1251" y="1251" on="1"/>
        <pt x="877" y="1251" on="1"/>
        <pt x="823" y="1018" on="0"/>
        <pt x="610" y="858" on="1"/>
        <pt x="442" y="730" on="0"/>
        <pt x="289" y="487" on="0"/>
        <pt x="289" y="356" on="1"/>
        <pt x="289" y="242" on="0"/>
        <pt x="428" y="135" on="0"/>
        <pt x="571" y="135" on="1"/>
        <pt x="600" y="402" on="0"/>
        <pt x="833" y="637" on="0"/>
        <pt x="1075" y="637" on="1"/>
        <pt x="1251" y="637" on="1"/>
        <pt x="1292" y="338" on="1"/>
        <pt x="1253" y="338" on="1"/>
        <pt x="1199" y="338" on="0"/>
        <pt x="1104" y="428" on="0"/>
        <pt x="1081" y="502" on="1"/>
        <pt x="914" y="502" on="0"/>
        <pt x="768" y="276" on="0"/>
        <pt x="756" y="0" on="1"/>
        <pt x="567" y="0" on="1"/>
        <pt x="330" y="0" on="0"/>
        <pt x="102" y="172" on="0"/>
        <pt x="102" y="356" on="1"/>
        <pt x="102" y="471" on="0"/>
        <pt x="177" y="661" on="0"/>
        <pt x="339" y="851" on="0"/>
        <pt x="508" y="989" on="1"/>
        <pt x="656" y="1113" on="0"/>
        <pt x="702" y="1251" on="1"/>
        <pt x="276" y="1251" on="1"/>
        <pt x="236" y="1550" on="1"/>
      </contour>
    </TTGlyph>
    <TTGlyph name="uni1230" xMin="184" yMin="0" xMax="1081" yMax="1556">
      <contour>
        <pt x="895" y="0" on="1"/>
        <pt x="895" y="739" on="1"/>
        <pt x="895" y="932" on="0"/>
        <pt x="768" y="1108" on="0"/>
        <pt x="637" y="1108" on="1"/>
        <pt x="501" y="1108" on="0"/>
        <pt x="371" y="935" on="0"/>
        <pt x="371" y="741" on="1"/>
        <pt x="371" y="0" on="1"/>
        <pt x="184" y="0" on="1"/>
        <pt x="184" y="731" on="1"/>
        <pt x="184" y="965" on="0"/>
        <pt x="364" y="1238" on="0"/>
        <pt x="539" y="1266" on="1"/>
        <pt x="539" y="1556" on="1"/>
        <pt x="725" y="1556" on="1"/>
        <pt x="725" y="1264" on="1"/>
        <pt x="900" y="1237" on="0"/>
        <pt x="1081" y="967" on="0"/>
        <pt x="1081" y="735" on="1"/>
        <pt x="1081" y="0" on="1"/>
      </contour>
    </TTGlyph>
    <TTGlyph name="uni1231" xMin="184" yMin="0" xMax="1487" yMax="1556">
      <contour>
        <pt x="1081" y="0" on="1"/>
        <pt x="895" y="0" on="1"/>
        <pt x="895" y="739" on="1"/>
        <pt x="895" y="932" on="0"/>
        <pt x="768" y="1108" on="0"/>
        <pt x="637" y="1108" on="1"/>
        <pt x="501" y="1108" on="0"/>
        <pt x="371" y="935" on="0"/>
        <pt x="371" y="741" on="1"/>
        <pt x="371" y="0" on="1"/>
        <pt x="184" y="0" on="1"/>
        <pt x="184" y="731" on="1"/>
        <pt x="184" y="965" on="0"/>
        <pt x="364" y="1238" on="0"/>
        <pt x="539" y="1266" on="1"/>
        <pt x="539" y="1556" on="1"/>
        <pt x="725" y="1556" on="1"/>
        <pt x="725" y="1264" on="1"/>
        <pt x="900" y="1237" on="0"/>
        <pt x="1081" y="967" on="0"/>
        <pt x="1081" y="735" on="1"/>
        <pt x="1081" y="729" on="1"/>
        <pt x="1446" y="729" on="1"/>
        <pt x="1487" y="410" on="1"/>
        <pt x="1448" y="410" on="1"/>
        <pt x="1378" y="410" on="0"/>
        <pt x="1284" y="514" on="0"/>
        <pt x="1272" y="594" on="1"/>
        <pt x="1081" y="594" on="1"/>
      </contour>
    </TTGlyph>
    <TTGlyph name="uni1232" xMin="184" yMin="-164" xMax="1507" yMax="1556">
      <contour>
        <pt x="895" y="739" on="1"/>
        <pt x="895" y="932" on="0"/>
        <pt x="768" y="1108" on="0"/>
        <pt x="637" y="1108" on="1"/>
        <pt x="501" y="1108" on="0"/>
        <pt x="371" y="935" on="0"/>
        <pt x="371" y="741" on="1"/>
        <pt x="371" y="0" on="1"/>
        <pt x="184" y="0" on="1"/>
        <pt x="184" y="731" on="1"/>
        <pt x="184" y="965" on="0"/>
        <pt x="364" y="1238" on="0"/>
        <pt x="539" y="1266" on="1"/>
        <pt x="539" y="1556" on="1"/>
        <pt x="725" y="1556" on="1"/>
        <pt x="725" y="1264" on="1"/>
        <pt x="900" y="1237" on="0"/>
        <pt x="1081" y="967" on="0"/>
        <pt x="1081" y="735" on="1"/>
        <pt x="1081" y="135" on="1"/>
        <pt x="1296" y="135" on="1"/>
        <pt x="1317" y="207" on="0"/>
        <pt x="1414" y="299" on="0"/>
        <pt x="1468" y="299" on="1"/>
        <pt x="1507" y="299" on="1"/>
        <pt x="1475" y="70" on="1"/>
        <pt x="1507" y="-164" on="1"/>
        <pt x="1468" y="-164" on="1"/>
        <pt x="1414" y="-164" on="0"/>
        <pt x="1316" y="-71" on="0"/>
        <pt x="1296" y="0" on="1"/>
        <pt x="895" y="0" on="1"/>
      </contour>
    </TTGlyph>
    <TTGlyph name="uni1233" xMin="164" yMin="0" xMax="1061" yMax="1556">
      <contour>
        <pt x="874" y="0" on="1"/>
        <pt x="874" y="739" on="1"/>
        <pt x="874" y="932" on="0"/>
        <pt x="747" y="1108" on="0"/>
        <pt x="616" y="1108" on="1"/>
        <pt x="480" y="1108" on="0"/>
        <pt x="350" y="934" on="0"/>
        <pt x="350" y="741" on="1"/>
        <pt x="350" y="485" on="1"/>
        <pt x="164" y="485" on="1"/>
        <pt x="164" y="731" on="1"/>
        <pt x="164" y="968" on="0"/>
        <pt x="344" y="1238" on="0"/>
        <pt x="518" y="1266" on="1"/>
        <pt x="518" y="1556" on="1"/>
        <pt x="705" y="1556" on="1"/>
        <pt x="705" y="1264" on="1"/>
        <pt x="880" y="1237" on="0"/>
        <pt x="1061" y="967" on="0"/>
        <pt x="1061" y="735" on="1"/>
        <pt x="1061" y="0" on="1"/>
      </contour>
    </TTGlyph>
    <TTGlyph name="uni1234" xMin="184" yMin="0" xMax="1548" yMax="1556">
      <contour>
        <pt x="895" y="0" on="1"/>
        <pt x="895" y="739" on="1"/>
        <pt x="895" y="932" on="0"/>
        <pt x="768" y="1108" on="0"/>
        <pt x="637" y="1108" on="1"/>
        <pt x="501" y="1108" on="0"/>
        <pt x="371" y="935" on="0"/>
        <pt x="371" y="741" on="1"/>
        <pt x="371" y="0" on="1"/>
        <pt x="184" y="0" on="1"/>
        <pt x="184" y="731" on="1"/>
        <pt x="184" y="965" on="0"/>
        <pt x="364" y="1238" on="0"/>
        <pt x="539" y="1266" on="1"/>
        <pt x="539" y="1556" on="1"/>
        <pt x="725" y="1556" on="1"/>
        <pt x="725" y="1264" on="1"/>
        <pt x="900" y="1237" on="0"/>
        <pt x="1081" y="967" on="0"/>
        <pt x="1081" y="735" on="1"/>
        <pt x="1081" y="541" on="1"/>
        <pt x="1270" y="541" on="1"/>
        <pt x="1398" y="541" on="0"/>
        <pt x="1548" y="405" on="0"/>
        <pt x="1548" y="287" on="1"/>
        <pt x="1548" y="149" on="0"/>
        <pt x="1363" y="0" on="0"/>
        <pt x="1190" y="0" on="1"/>
      </contour>
      <contour>
        <pt x="1081" y="401" on="1"/>
        <pt x="1081" y="135" on="1"/>
        <pt x="1155" y="135" on="1"/>
        <pt x="1261" y="135" on="0"/>
        <pt x="1366" y="206" on="0"/>
        <pt x="1366" y="281" on="1"/>
        <pt x="1366" y="401" on="0"/>
        <pt x="1210" y="401" on="1"/>
      </contour>
    </TTGlyph>
    <TTGlyph name="uni1235" xMin="184" yMin="0" xMax="1081" yMax="1556">
      <contour>
        <pt x="895" y="0" on="1"/>
        <pt x="895" y="739" on="1"/>
        <pt x="895" y="932" on="0"/>
        <pt x="768" y="1108" on="0"/>
        <pt x="637" y="1108" on="1"/>
        <pt x="501" y="1108" on="0"/>
        <pt x="371" y="935" on="0"/>
        <pt x="371" y="741" on="1"/>
        <pt x="371" y="0" on="1"/>
        <pt x="184" y="0" on="1"/>
        <pt x="184" y="731" on="1"/>
        <pt x="184" y="956" on="0"/>
        <pt x="352" y="1227" on="0"/>
        <pt x="514" y="1260" on="1"/>
        <pt x="379" y="1556" on="1"/>
        <pt x="582" y="1556" on="1"/>
        <pt x="715" y="1266" on="1"/>
        <pt x="895" y="1239" on="0"/>
        <pt x="1081" y="973" on="0"/>
        <pt x="1081" y="735" on="1"/>
        <pt x="1081" y="0" on="1"/>
      </contour>
    </TTGlyph>
    <TTGlyph name="uni1236" xMin="184" yMin="0" xMax="1081" yMax="1556">
      <contour>
        <pt x="895" y="485" on="1"/>
        <pt x="895" y="739" on="1"/>
        <pt x="895" y="932" on="0"/>
        <pt x="768" y="1108" on="0"/>
        <pt x="637" y="1108" on="1"/>
        <pt x="501" y="1108" on="0"/>
        <pt x="371" y="935" on="0"/>
        <pt x="371" y="741" on="1"/>
        <pt x="371" y="0" on="1"/>
        <pt x="184" y="0" on="1"/>
        <pt x="184" y="731" on="1"/>
        <pt x="184" y="965" on="0"/>
        <pt x="364" y="1238" on="0"/>
        <pt x="539" y="1266" on="1"/>
        <pt x="539" y="1556" on="1"/>
        <pt x="725" y="1556" on="1"/>
        <pt x="725" y="1264" on="1"/>
        <pt x="900" y="1237" on="0"/>
        <pt x="1081" y="967" on="0"/>
        <pt x="1081" y="735" on="1"/>
        <pt x="1081" y="485" on="1"/>
      </contour>
    </TTGlyph>
    <TTGlyph name="uni1237" xMin="123" yMin="-164" xMax="1413" yMax="1556">
      <contour>
        <pt x="123" y="-164" on="1"/>
        <pt x="164" y="135" on="1"/>
        <pt x="874" y="135" on="1"/>
        <pt x="874" y="739" on="1"/>
        <pt x="874" y="932" on="0"/>
        <pt x="747" y="1108" on="0"/>
        <pt x="616" y="1108" on="1"/>
        <pt x="480" y="1108" on="0"/>
        <pt x="350" y="934" on="0"/>
        <pt x="350" y="741" on="1"/>
        <pt x="350" y="485" on="1"/>
        <pt x="164" y="485" on="1"/>
        <pt x="164" y="731" on="1"/>
        <pt x="164" y="968" on="0"/>
        <pt x="344" y="1238" on="0"/>
        <pt x="518" y="1266" on="1"/>
        <pt x="518" y="1556" on="1"/>
        <pt x="705" y="1556" on="1"/>
        <pt x="705" y="1264" on="1"/>
        <pt x="880" y="1237" on="0"/>
        <pt x="1061" y="967" on="0"/>
        <pt x="1061" y="735" on="1"/>
        <pt x="1061" y="135" on="1"/>
        <pt x="1372" y="135" on="1"/>
        <pt x="1413" y="-164" on="1"/>
        <pt x="1374" y="-164" on="1"/>
        <pt x="1319" y="-164" on="0"/>
        <pt x="1223" y="-75" on="0"/>
        <pt x="1200" y="0" on="1"/>
        <pt x="334" y="0" on="1"/>
        <pt x="311" y="-76" on="0"/>
        <pt x="217" y="-164" on="0"/>
        <pt x="162" y="-164" on="1"/>
      </contour>
    </TTGlyph>
    <TTGlyph name="uni1238" xMin="162" yMin="0" xMax="1104" yMax="1720">
      <contour>
        <pt x="895" y="0" on="1"/>
        <pt x="895" y="739" on="1"/>
        <pt x="895" y="932" on="0"/>
        <pt x="768" y="1108" on="0"/>
        <pt x="637" y="1108" on="1"/>
        <pt x="501" y="1108" on="0"/>
        <pt x="371" y="935" on="0"/>
        <pt x="371" y="741" on="1"/>
        <pt x="371" y="0" on="1"/>
        <pt x="184" y="0" on="1"/>
        <pt x="184" y="731" on="1"/>
        <pt x="184" y="965" on="0"/>
        <pt x="364" y="1238" on="0"/>
        <pt x="539" y="1266" on="1"/>
        <pt x="539" y="1462" on="1"/>
        <pt x="373" y="1462" on="1"/>
        <pt x="354" y="1400" on="0"/>
        <pt x="261" y="1319" on="0"/>
        <pt x="201" y="1319" on="1"/>
        <pt x="162" y="1319" on="1"/>
        <pt x="195" y="1520" on="1"/>
        <pt x="162" y="1720" on="1"/>
        <pt x="201" y="1720" on="1"/>
        <pt x="260" y="1720" on="0"/>
        <pt x="353" y="1640" on="0"/>
        <pt x="373" y="1577" on="1"/>
        <pt x="893" y="1577" on="1"/>
        <pt x="910" y="1637" on="0"/>
        <pt x="1003" y="1720" on="0"/>
        <pt x="1065" y="1720" on="1"/>
        <pt x="1104" y="1720" on="1"/>
        <pt x="1071" y="1520" on="1"/>
        <pt x="1104" y="1319" on="1"/>
        <pt x="1065" y="1319" on="1"/>
        <pt x="1003" y="1319" on="0"/>
        <pt x="909" y="1404" on="0"/>
        <pt x="893" y="1462" on="1"/>
        <pt x="725" y="1462" on="1"/>
        <pt x="725" y="1264" on="1"/>
        <pt x="900" y="1237" on="0"/>
        <pt x="1081" y="967" on="0"/>
        <pt x="1081" y="735" on="1"/>
        <pt x="1081" y="0" on="1"/>
      </contour>
    </TTGlyph>
    <TTGlyph name="uni1239" xMin="162" yMin="0" xMax="1487" yMax="1720">
      <contour>
        <pt x="1081" y="0" on="1"/>
        <pt x="895" y="0" on="1"/>
        <pt x="895" y="739" on="1"/>
        <pt x="895" y="932" on="0"/>
        <pt x="768" y="1108" on="0"/>
        <pt x="637" y="1108" on="1"/>
        <pt x="501" y="1108" on="0"/>
        <pt x="371" y="935" on="0"/>
        <pt x="371" y="741" on="1"/>
        <pt x="371" y="0" on="1"/>
        <pt x="184" y="0" on="1"/>
        <pt x="184" y="731" on="1"/>
        <pt x="184" y="965" on="0"/>
        <pt x="364" y="1238" on="0"/>
        <pt x="539" y="1266" on="1"/>
        <pt x="539" y="1462" on="1"/>
        <pt x="373" y="1462" on="1"/>
        <pt x="354" y="1400" on="0"/>
        <pt x="261" y="1319" on="0"/>
        <pt x="201" y="1319" on="1"/>
        <pt x="162" y="1319" on="1"/>
        <pt x="195" y="1520" on="1"/>
        <pt x="162" y="1720" on="1"/>
        <pt x="201" y="1720" on="1"/>
        <pt x="260" y="1720" on="0"/>
        <pt x="353" y="1640" on="0"/>
        <pt x="373" y="1577" on="1"/>
        <pt x="893" y="1577" on="1"/>
        <pt x="910" y="1637" on="0"/>
        <pt x="1003" y="1720" on="0"/>
        <pt x="1065" y="1720" on="1"/>
        <pt x="1104" y="1720" on="1"/>
        <pt x="1071" y="1520" on="1"/>
        <pt x="1104" y="1319" on="1"/>
        <pt x="1065" y="1319" on="1"/>
        <pt x="1003" y="1319" on="0"/>
        <pt x="909" y="1404" on="0"/>
        <pt x="893" y="1462" on="1"/>
        <pt x="725" y="1462" on="1"/>
        <pt x="725" y="1264" on="1"/>
        <pt x="900" y="1237" on="0"/>
        <pt x="1081" y="967" on="0"/>
        <pt x="1081" y="735" on="1"/>
        <pt x="1081" y="729" on="1"/>
        <pt x="1446" y="729" on="1"/>
        <pt x="1487" y="410" on="1"/>
        <pt x="1448" y="410" on="1"/>
        <pt x="1378" y="410" on="0"/>
        <pt x="1284" y="514" on="0"/>
        <pt x="1272" y="594" on="1"/>
        <pt x="1081" y="594" on="1"/>
      </contour>
    </TTGlyph>
    <TTGlyph name="uni123A" xMin="162" yMin="-164" xMax="1507" yMax="1720">
      <contour>
        <pt x="1104" y="1720" on="1"/>
        <pt x="1071" y="1520" on="1"/>
        <pt x="1104" y="1319" on="1"/>
        <pt x="1065" y="1319" on="1"/>
        <pt x="1003" y="1319" on="0"/>
        <pt x="909" y="1404" on="0"/>
        <pt x="893" y="1462" on="1"/>
        <pt x="725" y="1462" on="1"/>
        <pt x="725" y="1264" on="1"/>
        <pt x="900" y="1237" on="0"/>
        <pt x="1081" y="967" on="0"/>
        <pt x="1081" y="735" on="1"/>
        <pt x="1081" y="135" on="1"/>
        <pt x="1296" y="135" on="1"/>
        <pt x="1317" y="207" on="0"/>
        <pt x="1414" y="299" on="0"/>
        <pt x="1468" y="299" on="1"/>
        <pt x="1507" y="299" on="1"/>
        <pt x="1475" y="70" on="1"/>
        <pt x="1507" y="-164" on="1"/>
        <pt x="1468" y="-164" on="1"/>
        <pt x="1414" y="-164" on="0"/>
        <pt x="1316" y="-71" on="0"/>
        <pt x="1296" y="0" on="1"/>
        <pt x="895" y="0" on="1"/>
        <pt x="895" y="739" on="1"/>
        <pt x="895" y="932" on="0"/>
        <pt x="768" y="1108" on="0"/>
        <pt x="637" y="1108" on="1"/>
        <pt x="501" y="1108" on="0"/>
        <pt x="371" y="935" on="0"/>
        <pt x="371" y="741" on="1"/>
        <pt x="371" y="0" on="1"/>
        <pt x="184" y="0" on="1"/>
        <pt x="184" y="731" on="1"/>
        <pt x="184" y="965" on="0"/>
        <pt x="364" y="1238" on="0"/>
        <pt x="539" y="1266" on="1"/>
        <pt x="539" y="1462" on="1"/>
        <pt x="373" y="1462" on="1"/>
        <pt x="354" y="1400" on="0"/>
        <pt x="261" y="1319" on="0"/>
        <pt x="201" y="1319" on="1"/>
        <pt x="162" y="1319" on="1"/>
        <pt x="195" y="1520" on="1"/>
        <pt x="162" y="1720" on="1"/>
        <pt x="201" y="1720" on="1"/>
        <pt x="260" y="1720" on="0"/>
        <pt x="353" y="1640" on="0"/>
        <pt x="373" y="1577" on="1"/>
        <pt x="893" y="1577" on="1"/>
        <pt x="910" y="1637" on="0"/>
        <pt x="1003" y="1720" on="0"/>
        <pt x="1065" y="1720" on="1"/>
      </contour>
    </TTGlyph>
    <TTGlyph name="uni123B" xMin="141" yMin="0" xMax="1083" yMax="1720">
      <contour>
        <pt x="874" y="0" on="1"/>
        <pt x="874" y="739" on="1"/>
        <pt x="874" y="932" on="0"/>
        <pt x="747" y="1108" on="0"/>
        <pt x="616" y="1108" on="1"/>
        <pt x="480" y="1108" on="0"/>
        <pt x="350" y="934" on="0"/>
        <pt x="350" y="741" on="1"/>
        <pt x="350" y="485" on="1"/>
        <pt x="164" y="485" on="1"/>
        <pt x="164" y="731" on="1"/>
        <pt x="164" y="968" on="0"/>
        <pt x="344" y="1238" on="0"/>
        <pt x="518" y="1266" on="1"/>
        <pt x="518" y="1462" on="1"/>
        <pt x="352" y="1462" on="1"/>
        <pt x="335" y="1402" on="0"/>
        <pt x="240" y="1319" on="0"/>
        <pt x="180" y="1319" on="1"/>
        <pt x="141" y="1319" on="1"/>
        <pt x="174" y="1520" on="1"/>
        <pt x="141" y="1720" on="1"/>
        <pt x="180" y="1720" on="1"/>
        <pt x="239" y="1720" on="0"/>
        <pt x="335" y="1638" on="0"/>
        <pt x="352" y="1577" on="1"/>
        <pt x="872" y="1577" on="1"/>
        <pt x="893" y="1643" on="0"/>
        <pt x="985" y="1720" on="0"/>
        <pt x="1044" y="1720" on="1"/>
        <pt x="1083" y="1720" on="1"/>
        <pt x="1051" y="1520" on="1"/>
        <pt x="1083" y="1319" on="1"/>
        <pt x="1044" y="1319" on="1"/>
        <pt x="984" y="1319" on="0"/>
        <pt x="892" y="1398" on="0"/>
        <pt x="872" y="1462" on="1"/>
        <pt x="705" y="1462" on="1"/>
        <pt x="705" y="1264" on="1"/>
        <pt x="880" y="1237" on="0"/>
        <pt x="1061" y="967" on="0"/>
        <pt x="1061" y="735" on="1"/>
        <pt x="1061" y="0" on="1"/>
      </contour>
    </TTGlyph>
    <TTGlyph name="uni123C" xMin="162" yMin="0" xMax="1548" yMax="1720">
      <contour>
        <pt x="1104" y="1720" on="1"/>
        <pt x="1071" y="1520" on="1"/>
        <pt x="1104" y="1319" on="1"/>
        <pt x="1065" y="1319" on="1"/>
        <pt x="1003" y="1319" on="0"/>
        <pt x="909" y="1404" on="0"/>
        <pt x="893" y="1462" on="1"/>
        <pt x="725" y="1462" on="1"/>
        <pt x="725" y="1264" on="1"/>
        <pt x="900" y="1237" on="0"/>
        <pt x="1081" y="967" on="0"/>
        <pt x="1081" y="735" on="1"/>
        <pt x="1081" y="541" on="1"/>
        <pt x="1270" y="541" on="1"/>
        <pt x="1398" y="541" on="0"/>
        <pt x="1548" y="405" on="0"/>
        <pt x="1548" y="287" on="1"/>
        <pt x="1548" y="149" on="0"/>
        <pt x="1363" y="0" on="0"/>
        <pt x="1190" y="0" on="1"/>
        <pt x="895" y="0" on="1"/>
        <pt x="895" y="739" on="1"/>
        <pt x="895" y="932" on="0"/>
        <pt x="768" y="1108" on="0"/>
        <pt x="637" y="1108" on="1"/>
        <pt x="501" y="1108" on="0"/>
        <pt x="371" y="935" on="0"/>
        <pt x="371" y="741" on="1"/>
        <pt x="371" y="0" on="1"/>
        <pt x="184" y="0" on="1"/>
        <pt x="184" y="731" on="1"/>
        <pt x="184" y="965" on="0"/>
        <pt x="364" y="1238" on="0"/>
        <pt x="539" y="1266" on="1"/>
        <pt x="539" y="1462" on="1"/>
        <pt x="373" y="1462" on="1"/>
        <pt x="354" y="1400" on="0"/>
        <pt x="261" y="1319" on="0"/>
        <pt x="201" y="1319" on="1"/>
        <pt x="162" y="1319" on="1"/>
        <pt x="195" y="1520" on="1"/>
        <pt x="162" y="1720" on="1"/>
        <pt x="201" y="1720" on="1"/>
        <pt x="260" y="1720" on="0"/>
        <pt x="353" y="1640" on="0"/>
        <pt x="373" y="1577" on="1"/>
        <pt x="893" y="1577" on="1"/>
        <pt x="910" y="1637" on="0"/>
        <pt x="1003" y="1720" on="0"/>
        <pt x="1065" y="1720" on="1"/>
      </contour>
      <contour>
        <pt x="1081" y="401" on="1"/>
        <pt x="1081" y="135" on="1"/>
        <pt x="1155" y="135" on="1"/>
        <pt x="1261" y="135" on="0"/>
        <pt x="1366" y="206" on="0"/>
        <pt x="1366" y="281" on="1"/>
        <pt x="1366" y="401" on="0"/>
        <pt x="1210" y="401" on="1"/>
      </contour>
    </TTGlyph>
    <TTGlyph name="uni123D" xMin="82" yMin="0" xMax="1104" yMax="1720">
      <contour>
        <pt x="918" y="0" on="1"/>
        <pt x="918" y="739" on="1"/>
        <pt x="918" y="932" on="0"/>
        <pt x="790" y="1108" on="0"/>
        <pt x="659" y="1108" on="1"/>
        <pt x="523" y="1108" on="0"/>
        <pt x="393" y="934" on="0"/>
        <pt x="393" y="741" on="1"/>
        <pt x="393" y="0" on="1"/>
        <pt x="207" y="0" on="1"/>
        <pt x="207" y="731" on="1"/>
        <pt x="207" y="958" on="0"/>
        <pt x="375" y="1226" on="0"/>
        <pt x="537" y="1260" on="1"/>
        <pt x="444" y="1462" on="1"/>
        <pt x="293" y="1462" on="1"/>
        <pt x="274" y="1400" on="0"/>
        <pt x="181" y="1319" on="0"/>
        <pt x="121" y="1319" on="1"/>
        <pt x="82" y="1319" on="1"/>
        <pt x="115" y="1520" on="1"/>
        <pt x="82" y="1720" on="1"/>
        <pt x="121" y="1720" on="1"/>
        <pt x="180" y="1720" on="0"/>
        <pt x="273" y="1640" on="0"/>
        <pt x="293" y="1577" on="1"/>
        <pt x="813" y="1577" on="1"/>
        <pt x="834" y="1643" on="0"/>
        <pt x="926" y="1720" on="0"/>
        <pt x="985" y="1720" on="1"/>
        <pt x="1024" y="1720" on="1"/>
        <pt x="991" y="1520" on="1"/>
        <pt x="1024" y="1319" on="1"/>
        <pt x="985" y="1319" on="1"/>
        <pt x="925" y="1319" on="0"/>
        <pt x="833" y="1398" on="0"/>
        <pt x="813" y="1462" on="1"/>
        <pt x="647" y="1462" on="1"/>
        <pt x="737" y="1266" on="1"/>
        <pt x="918" y="1239" on="0"/>
        <pt x="1104" y="974" on="0"/>
        <pt x="1104" y="735" on="1"/>
        <pt x="1104" y="0" on="1"/>
      </contour>
    </TTGlyph>
    <TTGlyph name="uni123E" xMin="162" yMin="0" xMax="1104" yMax="1720">
      <contour>
        <pt x="895" y="485" on="1"/>
        <pt x="895" y="739" on="1"/>
        <pt x="895" y="932" on="0"/>
        <pt x="768" y="1108" on="0"/>
        <pt x="637" y="1108" on="1"/>
        <pt x="501" y="1108" on="0"/>
        <pt x="371" y="935" on="0"/>
        <pt x="371" y="741" on="1"/>
        <pt x="371" y="0" on="1"/>
        <pt x="184" y="0" on="1"/>
        <pt x="184" y="731" on="1"/>
        <pt x="184" y="965" on="0"/>
        <pt x="364" y="1238" on="0"/>
        <pt x="539" y="1266" on="1"/>
        <pt x="539" y="1462" on="1"/>
        <pt x="373" y="1462" on="1"/>
        <pt x="354" y="1400" on="0"/>
        <pt x="261" y="1319" on="0"/>
        <pt x="201" y="1319" on="1"/>
        <pt x="162" y="1319" on="1"/>
        <pt x="195" y="1520" on="1"/>
        <pt x="162" y="1720" on="1"/>
        <pt x="201" y="1720" on="1"/>
        <pt x="260" y="1720" on="0"/>
        <pt x="353" y="1640" on="0"/>
        <pt x="373" y="1577" on="1"/>
        <pt x="893" y="1577" on="1"/>
        <pt x="910" y="1637" on="0"/>
        <pt x="1003" y="1720" on="0"/>
        <pt x="1065" y="1720" on="1"/>
        <pt x="1104" y="1720" on="1"/>
        <pt x="1071" y="1520" on="1"/>
        <pt x="1104" y="1319" on="1"/>
        <pt x="1065" y="1319" on="1"/>
        <pt x="1003" y="1319" on="0"/>
        <pt x="909" y="1404" on="0"/>
        <pt x="893" y="1462" on="1"/>
        <pt x="725" y="1462" on="1"/>
        <pt x="725" y="1264" on="1"/>
        <pt x="900" y="1237" on="0"/>
        <pt x="1081" y="967" on="0"/>
        <pt x="1081" y="735" on="1"/>
        <pt x="1081" y="485" on="1"/>
      </contour>
    </TTGlyph>
    <TTGlyph name="uni123F" xMin="141" yMin="-164" xMax="1413" yMax="1720">
      <contour>
        <pt x="143" y="-164" on="1"/>
        <pt x="184" y="135" on="1"/>
        <pt x="874" y="135" on="1"/>
        <pt x="874" y="739" on="1"/>
        <pt x="874" y="932" on="0"/>
        <pt x="747" y="1108" on="0"/>
        <pt x="616" y="1108" on="1"/>
        <pt x="480" y="1108" on="0"/>
        <pt x="350" y="934" on="0"/>
        <pt x="350" y="741" on="1"/>
        <pt x="350" y="485" on="1"/>
        <pt x="164" y="485" on="1"/>
        <pt x="164" y="731" on="1"/>
        <pt x="164" y="968" on="0"/>
        <pt x="344" y="1238" on="0"/>
        <pt x="518" y="1266" on="1"/>
        <pt x="518" y="1462" on="1"/>
        <pt x="352" y="1462" on="1"/>
        <pt x="335" y="1402" on="0"/>
        <pt x="240" y="1319" on="0"/>
        <pt x="180" y="1319" on="1"/>
        <pt x="141" y="1319" on="1"/>
        <pt x="174" y="1520" on="1"/>
        <pt x="141" y="1720" on="1"/>
        <pt x="180" y="1720" on="1"/>
        <pt x="239" y="1720" on="0"/>
        <pt x="335" y="1638" on="0"/>
        <pt x="352" y="1577" on="1"/>
        <pt x="893" y="1577" on="1"/>
        <pt x="910" y="1637" on="0"/>
        <pt x="1003" y="1720" on="0"/>
        <pt x="1065" y="1720" on="1"/>
        <pt x="1104" y="1720" on="1"/>
        <pt x="1071" y="1520" on="1"/>
        <pt x="1104" y="1319" on="1"/>
        <pt x="1065" y="1319" on="1"/>
        <pt x="1003" y="1319" on="0"/>
        <pt x="909" y="1404" on="0"/>
        <pt x="893" y="1462" on="1"/>
        <pt x="705" y="1462" on="1"/>
        <pt x="705" y="1264" on="1"/>
        <pt x="880" y="1237" on="0"/>
        <pt x="1061" y="967" on="0"/>
        <pt x="1061" y="735" on="1"/>
        <pt x="1061" y="135" on="1"/>
        <pt x="1372" y="135" on="1"/>
        <pt x="1413" y="-164" on="1"/>
        <pt x="1374" y="-164" on="1"/>
        <pt x="1319" y="-164" on="0"/>
        <pt x="1223" y="-75" on="0"/>
        <pt x="1200" y="0" on="1"/>
        <pt x="354" y="0" on="1"/>
        <pt x="335" y="-70" on="0"/>
        <pt x="239" y="-164" on="0"/>
        <pt x="182" y="-164" on="1"/>
      </contour>
    </TTGlyph>
    <TTGlyph name="uni1240" xMin="102" yMin="0" xMax="1264" yMax="1462">
      <contour>
        <pt x="776" y="0" on="1"/>
        <pt x="590" y="0" on="1"/>
        <pt x="590" y="489" on="1"/>
        <pt x="352" y="489" on="0"/>
        <pt x="102" y="652" on="0"/>
        <pt x="102" y="817" on="1"/>
        <pt x="102" y="989" on="0"/>
        <pt x="345" y="1145" on="0"/>
        <pt x="590" y="1145" on="1"/>
        <pt x="590" y="1462" on="1"/>
        <pt x="776" y="1462" on="1"/>
        <pt x="776" y="1145" on="1"/>
        <pt x="1019" y="1145" on="0"/>
        <pt x="1264" y="986" on="0"/>
        <pt x="1264" y="817" on="1"/>
        <pt x="1264" y="656" on="0"/>
        <pt x="1010" y="489" on="0"/>
        <pt x="776" y="489" on="1"/>
      </contour>
      <contour>
        <pt x="590" y="1010" on="1"/>
        <pt x="436" y="1010" on="0"/>
        <pt x="285" y="922" on="0"/>
        <pt x="285" y="819" on="1"/>
        <pt x="285" y="742" on="0"/>
        <pt x="347" y="664" on="0"/>
        <pt x="481" y="625" on="0"/>
        <pt x="590" y="625" on="1"/>
      </contour>
      <contour>
        <pt x="776" y="625" on="1"/>
        <pt x="934" y="625" on="0"/>
        <pt x="1081" y="713" on="0"/>
        <pt x="1081" y="817" on="1"/>
        <pt x="1081" y="918" on="0"/>
        <pt x="931" y="1010" on="0"/>
        <pt x="776" y="1010" on="1"/>
      </contour>
    </TTGlyph>
    <TTGlyph name="uni1241" xMin="102" yMin="0" xMax="1264" yMax="1462">
      <contour>
        <pt x="1141" y="381" on="1"/>
        <pt x="1182" y="61" on="1"/>
        <pt x="1143" y="61" on="1"/>
        <pt x="1075" y="61" on="0"/>
        <pt x="979" y="165" on="0"/>
        <pt x="967" y="246" on="1"/>
        <pt x="776" y="246" on="1"/>
        <pt x="776" y="0" on="1"/>
        <pt x="590" y="0" on="1"/>
        <pt x="590" y="489" on="1"/>
        <pt x="352" y="489" on="0"/>
        <pt x="102" y="652" on="0"/>
        <pt x="102" y="817" on="1"/>
        <pt x="102" y="989" on="0"/>
        <pt x="345" y="1145" on="0"/>
        <pt x="590" y="1145" on="1"/>
        <pt x="590" y="1462" on="1"/>
        <pt x="776" y="1462" on="1"/>
        <pt x="776" y="1145" on="1"/>
        <pt x="1019" y="1145" on="0"/>
        <pt x="1264" y="986" on="0"/>
        <pt x="1264" y="817" on="1"/>
        <pt x="1264" y="656" on="0"/>
        <pt x="1010" y="489" on="0"/>
        <pt x="776" y="489" on="1"/>
        <pt x="776" y="381" on="1"/>
      </contour>
      <contour>
        <pt x="590" y="1010" on="1"/>
        <pt x="436" y="1010" on="0"/>
        <pt x="285" y="922" on="0"/>
        <pt x="285" y="819" on="1"/>
        <pt x="285" y="742" on="0"/>
        <pt x="347" y="664" on="0"/>
        <pt x="481" y="625" on="0"/>
        <pt x="590" y="625" on="1"/>
      </contour>
      <contour>
        <pt x="776" y="625" on="1"/>
        <pt x="934" y="625" on="0"/>
        <pt x="1081" y="713" on="0"/>
        <pt x="1081" y="817" on="1"/>
        <pt x="1081" y="918" on="0"/>
        <pt x="931" y="1010" on="0"/>
        <pt x="776" y="1010" on="1"/>
      </contour>
    </TTGlyph>
    <TTGlyph name="uni1242" xMin="102" yMin="-164" xMax="1264" yMax="1462">
      <contour>
        <pt x="776" y="1143" on="1"/>
        <pt x="1019" y="1143" on="0"/>
        <pt x="1264" y="984" on="0"/>
        <pt x="1264" y="815" on="1"/>
        <pt x="1264" y="654" on="0"/>
        <pt x="1010" y="487" on="0"/>
        <pt x="776" y="487" on="1"/>
        <pt x="776" y="135" on="1"/>
        <pt x="1022" y="135" on="1"/>
        <pt x="1039" y="202" on="0"/>
        <pt x="1138" y="299" on="0"/>
        <pt x="1194" y="299" on="1"/>
        <pt x="1233" y="299" on="1"/>
        <pt x="1200" y="70" on="1"/>
        <pt x="1233" y="-164" on="1"/>
        <pt x="1194" y="-164" on="1"/>
        <pt x="1138" y="-164" on="0"/>
        <pt x="1038" y="-66" on="0"/>
        <pt x="1022" y="0" on="1"/>
        <pt x="590" y="0" on="1"/>
        <pt x="590" y="487" on="1"/>
        <pt x="352" y="487" on="0"/>
        <pt x="102" y="650" on="0"/>
        <pt x="102" y="815" on="1"/>
        <pt x="102" y="987" on="0"/>
        <pt x="345" y="1143" on="0"/>
        <pt x="590" y="1143" on="1"/>
        <pt x="590" y="1462" on="1"/>
        <pt x="776" y="1462" on="1"/>
      </contour>
      <contour>
        <pt x="590" y="1008" on="1"/>
        <pt x="436" y="1008" on="0"/>
        <pt x="285" y="920" on="0"/>
        <pt x="285" y="817" on="1"/>
        <pt x="285" y="740" on="0"/>
        <pt x="347" y="662" on="0"/>
        <pt x="481" y="623" on="0"/>
        <pt x="590" y="623" on="1"/>
      </contour>
      <contour>
        <pt x="776" y="623" on="1"/>
        <pt x="934" y="623" on="0"/>
        <pt x="1081" y="711" on="0"/>
        <pt x="1081" y="815" on="1"/>
        <pt x="1081" y="916" on="0"/>
        <pt x="931" y="1008" on="0"/>
        <pt x="776" y="1008" on="1"/>
      </contour>
    </TTGlyph>
    <TTGlyph name="uni1243" xMin="82" yMin="-164" xMax="1286" yMax="1462">
      <contour>
        <pt x="326" y="0" on="1"/>
        <pt x="293" y="0" on="1"/>
        <pt x="270" y="-76" on="0"/>
        <pt x="176" y="-164" on="0"/>
        <pt x="121" y="-164" on="1"/>
        <pt x="82" y="-164" on="1"/>
        <pt x="123" y="135" on="1"/>
        <pt x="319" y="135" on="1"/>
        <pt x="435" y="135" on="0"/>
        <pt x="558" y="199" on="0"/>
        <pt x="612" y="344" on="0"/>
        <pt x="612" y="489" on="1"/>
        <pt x="374" y="489" on="0"/>
        <pt x="125" y="651" on="0"/>
        <pt x="125" y="817" on="1"/>
        <pt x="125" y="990" on="0"/>
        <pt x="368" y="1145" on="0"/>
        <pt x="612" y="1145" on="1"/>
        <pt x="612" y="1462" on="1"/>
        <pt x="799" y="1462" on="1"/>
        <pt x="799" y="1145" on="1"/>
        <pt x="1041" y="1145" on="0"/>
        <pt x="1286" y="988" on="0"/>
        <pt x="1286" y="817" on="1"/>
        <pt x="1286" y="656" on="0"/>
        <pt x="1035" y="489" on="0"/>
        <pt x="799" y="489" on="1"/>
        <pt x="796" y="302" on="0"/>
        <pt x="703" y="94" on="0"/>
        <pt x="502" y="0" on="0"/>
      </contour>
      <contour>
        <pt x="612" y="1010" on="1"/>
        <pt x="458" y="1010" on="0"/>
        <pt x="307" y="922" on="0"/>
        <pt x="307" y="819" on="1"/>
        <pt x="307" y="742" on="0"/>
        <pt x="369" y="664" on="0"/>
        <pt x="503" y="625" on="0"/>
        <pt x="612" y="625" on="1"/>
      </contour>
      <contour>
        <pt x="799" y="625" on="1"/>
        <pt x="957" y="625" on="0"/>
        <pt x="1104" y="713" on="0"/>
        <pt x="1104" y="817" on="1"/>
        <pt x="1104" y="918" on="0"/>
        <pt x="954" y="1010" on="0"/>
        <pt x="799" y="1010" on="1"/>
      </contour>
    </TTGlyph>
    <TTGlyph name="uni1244" xMin="102" yMin="0" xMax="1264" yMax="1462">
      <contour>
        <pt x="776" y="479" on="1"/>
        <pt x="967" y="479" on="1"/>
        <pt x="1105" y="479" on="0"/>
        <pt x="1245" y="363" on="0"/>
        <pt x="1245" y="252" on="1"/>
        <pt x="1245" y="124" on="0"/>
        <pt x="1073" y="0" on="0"/>
        <pt x="887" y="0" on="1"/>
        <pt x="590" y="0" on="1"/>
        <pt x="590" y="625" on="1"/>
        <pt x="102" y="625" on="0"/>
        <pt x="102" y="952" on="1"/>
        <pt x="102" y="1124" on="0"/>
        <pt x="345" y="1280" on="0"/>
        <pt x="590" y="1280" on="1"/>
        <pt x="590" y="1462" on="1"/>
        <pt x="776" y="1462" on="1"/>
        <pt x="776" y="1280" on="1"/>
        <pt x="1023" y="1280" on="0"/>
        <pt x="1264" y="1120" on="0"/>
        <pt x="1264" y="952" on="1"/>
        <pt x="1264" y="792" on="0"/>
        <pt x="1012" y="625" on="0"/>
        <pt x="776" y="625" on="1"/>
      </contour>
      <contour>
        <pt x="590" y="1145" on="1"/>
        <pt x="436" y="1145" on="0"/>
        <pt x="285" y="1057" on="0"/>
        <pt x="285" y="954" on="1"/>
        <pt x="285" y="877" on="0"/>
        <pt x="347" y="799" on="0"/>
        <pt x="481" y="760" on="0"/>
        <pt x="590" y="760" on="1"/>
      </contour>
      <contour>
        <pt x="776" y="760" on="1"/>
        <pt x="934" y="760" on="0"/>
        <pt x="1081" y="848" on="0"/>
        <pt x="1081" y="952" on="1"/>
        <pt x="1081" y="1053" on="0"/>
        <pt x="931" y="1145" on="0"/>
        <pt x="776" y="1145" on="1"/>
      </contour>
      <contour>
        <pt x="776" y="340" on="1"/>
        <pt x="776" y="135" on="1"/>
        <pt x="852" y="135" on="1"/>
        <pt x="974" y="135" on="0"/>
        <pt x="1063" y="182" on="0"/>
        <pt x="1063" y="246" on="1"/>
        <pt x="1063" y="297" on="0"/>
        <pt x="1001" y="340" on="0"/>
        <pt x="907" y="340" on="1"/>
      </contour>
    </TTGlyph>
    <TTGlyph name="uni1245" xMin="102" yMin="0" xMax="1264" yMax="1720">
      <contour>
        <pt x="776" y="1145" on="1"/>
        <pt x="1019" y="1145" on="0"/>
        <pt x="1264" y="986" on="0"/>
        <pt x="1264" y="817" on="1"/>
        <pt x="1264" y="656" on="0"/>
        <pt x="1010" y="489" on="0"/>
        <pt x="776" y="489" on="1"/>
        <pt x="776" y="0" on="1"/>
        <pt x="590" y="0" on="1"/>
        <pt x="590" y="489" on="1"/>
        <pt x="352" y="489" on="0"/>
        <pt x="102" y="652" on="0"/>
        <pt x="102" y="817" on="1"/>
        <pt x="102" y="989" on="0"/>
        <pt x="345" y="1145" on="0"/>
        <pt x="590" y="1145" on="1"/>
        <pt x="590" y="1462" on="1"/>
        <pt x="236" y="1462" on="1"/>
        <pt x="195" y="1720" on="1"/>
        <pt x="233" y="1720" on="1"/>
        <pt x="293" y="1720" on="0"/>
        <pt x="381" y="1640" on="0"/>
        <pt x="399" y="1577" on="1"/>
        <pt x="776" y="1577" on="1"/>
      </contour>
      <contour>
        <pt x="590" y="1010" on="1"/>
        <pt x="436" y="1010" on="0"/>
        <pt x="285" y="922" on="0"/>
        <pt x="285" y="819" on="1"/>
        <pt x="285" y="742" on="0"/>
        <pt x="347" y="664" on="0"/>
        <pt x="481" y="625" on="0"/>
        <pt x="590" y="625" on="1"/>
      </contour>
      <contour>
        <pt x="776" y="625" on="1"/>
        <pt x="934" y="625" on="0"/>
        <pt x="1081" y="713" on="0"/>
        <pt x="1081" y="817" on="1"/>
        <pt x="1081" y="918" on="0"/>
        <pt x="931" y="1010" on="0"/>
        <pt x="776" y="1010" on="1"/>
      </contour>
    </TTGlyph>
    <TTGlyph name="uni1246" xMin="102" yMin="0" xMax="1264" yMax="1577">
      <contour>
        <pt x="625" y="1059" on="1"/>
        <pt x="526" y="1076" on="0"/>
        <pt x="397" y="1214" on="0"/>
        <pt x="397" y="1309" on="1"/>
        <pt x="397" y="1431" on="0"/>
        <pt x="556" y="1577" on="0"/>
        <pt x="684" y="1577" on="1"/>
        <pt x="814" y="1577" on="0"/>
        <pt x="967" y="1446" on="0"/>
        <pt x="967" y="1333" on="1"/>
        <pt x="967" y="1206" on="0"/>
        <pt x="865" y="1102" on="1"/>
        <pt x="808" y="1044" on="0"/>
        <pt x="776" y="992" on="0"/>
        <pt x="776" y="975" on="1"/>
        <pt x="776" y="971" on="1"/>
        <pt x="1020" y="971" on="0"/>
        <pt x="1264" y="812" on="0"/>
        <pt x="1264" y="645" on="1"/>
        <pt x="1264" y="484" on="0"/>
        <pt x="1010" y="317" on="0"/>
        <pt x="776" y="317" on="1"/>
        <pt x="776" y="0" on="1"/>
        <pt x="590" y="0" on="1"/>
        <pt x="590" y="317" on="1"/>
        <pt x="352" y="317" on="0"/>
        <pt x="102" y="480" on="0"/>
        <pt x="102" y="645" on="1"/>
        <pt x="102" y="813" on="0"/>
        <pt x="343" y="971" on="0"/>
        <pt x="590" y="971" on="1"/>
        <pt x="596" y="1019" on="0"/>
      </contour>
      <contour>
        <pt x="590" y="838" on="1"/>
        <pt x="436" y="838" on="0"/>
        <pt x="285" y="750" on="0"/>
        <pt x="285" y="647" on="1"/>
        <pt x="285" y="570" on="0"/>
        <pt x="347" y="492" on="0"/>
        <pt x="481" y="453" on="0"/>
        <pt x="590" y="453" on="1"/>
      </contour>
      <contour>
        <pt x="776" y="453" on="1"/>
        <pt x="934" y="453" on="0"/>
        <pt x="1081" y="541" on="0"/>
        <pt x="1081" y="645" on="1"/>
        <pt x="1081" y="746" on="0"/>
        <pt x="931" y="838" on="0"/>
        <pt x="776" y="838" on="1"/>
      </contour>
      <contour>
        <pt x="682" y="1438" on="1"/>
        <pt x="637" y="1438" on="0"/>
        <pt x="580" y="1370" on="0"/>
        <pt x="580" y="1321" on="1"/>
        <pt x="580" y="1212" on="0"/>
        <pt x="713" y="1176" on="1"/>
        <pt x="784" y="1242" on="0"/>
        <pt x="784" y="1327" on="1"/>
        <pt x="784" y="1378" on="0"/>
        <pt x="733" y="1438" on="0"/>
      </contour>
    </TTGlyph>
    <TTGlyph name="uni1247" xMin="102" yMin="-164" xMax="1264" yMax="1577">
      <contour>
        <pt x="625" y="1059" on="1"/>
        <pt x="526" y="1076" on="0"/>
        <pt x="397" y="1214" on="0"/>
        <pt x="397" y="1309" on="1"/>
        <pt x="397" y="1431" on="0"/>
        <pt x="556" y="1577" on="0"/>
        <pt x="684" y="1577" on="1"/>
        <pt x="814" y="1577" on="0"/>
        <pt x="967" y="1446" on="0"/>
        <pt x="967" y="1333" on="1"/>
        <pt x="967" y="1206" on="0"/>
        <pt x="865" y="1102" on="1"/>
        <pt x="808" y="1044" on="0"/>
        <pt x="776" y="992" on="0"/>
        <pt x="776" y="975" on="1"/>
        <pt x="776" y="971" on="1"/>
        <pt x="1020" y="971" on="0"/>
        <pt x="1264" y="812" on="0"/>
        <pt x="1264" y="645" on="1"/>
        <pt x="1264" y="484" on="0"/>
        <pt x="1010" y="317" on="0"/>
        <pt x="776" y="317" on="1"/>
        <pt x="776" y="0" on="1"/>
        <pt x="315" y="0" on="1"/>
        <pt x="295" y="-71" on="0"/>
        <pt x="197" y="-164" on="0"/>
        <pt x="143" y="-164" on="1"/>
        <pt x="104" y="-164" on="1"/>
        <pt x="137" y="70" on="1"/>
        <pt x="104" y="299" on="1"/>
        <pt x="143" y="299" on="1"/>
        <pt x="197" y="299" on="0"/>
        <pt x="294" y="208" on="0"/>
        <pt x="315" y="135" on="1"/>
        <pt x="590" y="135" on="1"/>
        <pt x="590" y="317" on="1"/>
        <pt x="352" y="317" on="0"/>
        <pt x="102" y="480" on="0"/>
        <pt x="102" y="645" on="1"/>
        <pt x="102" y="813" on="0"/>
        <pt x="343" y="971" on="0"/>
        <pt x="590" y="971" on="1"/>
        <pt x="596" y="1019" on="0"/>
      </contour>
      <contour>
        <pt x="590" y="838" on="1"/>
        <pt x="436" y="838" on="0"/>
        <pt x="285" y="750" on="0"/>
        <pt x="285" y="647" on="1"/>
        <pt x="285" y="570" on="0"/>
        <pt x="347" y="492" on="0"/>
        <pt x="481" y="453" on="0"/>
        <pt x="590" y="453" on="1"/>
      </contour>
      <contour>
        <pt x="776" y="453" on="1"/>
        <pt x="934" y="453" on="0"/>
        <pt x="1081" y="541" on="0"/>
        <pt x="1081" y="645" on="1"/>
        <pt x="1081" y="746" on="0"/>
        <pt x="931" y="838" on="0"/>
        <pt x="776" y="838" on="1"/>
      </contour>
      <contour>
        <pt x="682" y="1438" on="1"/>
        <pt x="637" y="1438" on="0"/>
        <pt x="580" y="1370" on="0"/>
        <pt x="580" y="1321" on="1"/>
        <pt x="580" y="1212" on="0"/>
        <pt x="713" y="1176" on="1"/>
        <pt x="784" y="1242" on="0"/>
        <pt x="784" y="1327" on="1"/>
        <pt x="784" y="1378" on="0"/>
        <pt x="733" y="1438" on="0"/>
      </contour>
    </TTGlyph>
    <TTGlyph name="uni1248" xMin="102" yMin="0" xMax="1415" yMax="1462">
      <contour>
        <pt x="1145" y="72" on="1"/>
        <pt x="1020" y="72" on="0"/>
        <pt x="874" y="193" on="0"/>
        <pt x="874" y="299" on="1"/>
        <pt x="874" y="351" on="0"/>
        <pt x="893" y="395" on="1"/>
        <pt x="776" y="395" on="1"/>
        <pt x="776" y="0" on="1"/>
        <pt x="590" y="0" on="1"/>
        <pt x="590" y="592" on="1"/>
        <pt x="352" y="592" on="0"/>
        <pt x="102" y="755" on="0"/>
        <pt x="102" y="920" on="1"/>
        <pt x="102" y="1090" on="0"/>
        <pt x="342" y="1247" on="0"/>
        <pt x="590" y="1247" on="1"/>
        <pt x="590" y="1462" on="1"/>
        <pt x="776" y="1462" on="1"/>
        <pt x="776" y="1247" on="1"/>
        <pt x="1023" y="1247" on="0"/>
        <pt x="1264" y="1087" on="0"/>
        <pt x="1264" y="920" on="1"/>
        <pt x="1264" y="759" on="0"/>
        <pt x="1010" y="592" on="0"/>
        <pt x="776" y="592" on="1"/>
        <pt x="776" y="510" on="1"/>
        <pt x="1145" y="510" on="1"/>
        <pt x="1278" y="510" on="0"/>
        <pt x="1415" y="400" on="0"/>
        <pt x="1415" y="299" on="1"/>
        <pt x="1415" y="191" on="0"/>
        <pt x="1270" y="72" on="0"/>
      </contour>
      <contour>
        <pt x="590" y="1112" on="1"/>
        <pt x="436" y="1112" on="0"/>
        <pt x="285" y="1024" on="0"/>
        <pt x="285" y="922" on="1"/>
        <pt x="285" y="846" on="0"/>
        <pt x="345" y="767" on="0"/>
        <pt x="477" y="727" on="0"/>
        <pt x="590" y="727" on="1"/>
      </contour>
      <contour>
        <pt x="776" y="727" on="1"/>
        <pt x="931" y="727" on="0"/>
        <pt x="1081" y="815" on="0"/>
        <pt x="1081" y="920" on="1"/>
        <pt x="1081" y="1021" on="0"/>
        <pt x="931" y="1112" on="0"/>
        <pt x="776" y="1112" on="1"/>
      </contour>
      <contour>
        <pt x="1145" y="401" on="1"/>
        <pt x="1093" y="401" on="0"/>
        <pt x="1034" y="347" on="0"/>
        <pt x="1034" y="299" on="1"/>
        <pt x="1034" y="244" on="0"/>
        <pt x="1094" y="178" on="0"/>
        <pt x="1145" y="178" on="1"/>
        <pt x="1195" y="178" on="0"/>
        <pt x="1255" y="241" on="0"/>
        <pt x="1255" y="299" on="1"/>
        <pt x="1255" y="347" on="0"/>
        <pt x="1196" y="401" on="0"/>
      </contour>
    </TTGlyph>
    <TTGlyph name="uni124A" xMin="102" yMin="0" xMax="1847" yMax="1462">
      <contour>
        <pt x="1808" y="383" on="1"/>
        <pt x="1742" y="383" on="0"/>
        <pt x="1644" y="486" on="0"/>
        <pt x="1632" y="567" on="1"/>
        <pt x="1421" y="567" on="1"/>
        <pt x="1421" y="754" on="1"/>
        <pt x="1257" y="754" on="1"/>
        <pt x="1232" y="624" on="0"/>
        <pt x="989" y="489" on="0"/>
        <pt x="776" y="489" on="1"/>
        <pt x="776" y="0" on="1"/>
        <pt x="590" y="0" on="1"/>
        <pt x="590" y="489" on="1"/>
        <pt x="352" y="489" on="0"/>
        <pt x="102" y="652" on="0"/>
        <pt x="102" y="817" on="1"/>
        <pt x="102" y="989" on="0"/>
        <pt x="345" y="1145" on="0"/>
        <pt x="590" y="1145" on="1"/>
        <pt x="590" y="1462" on="1"/>
        <pt x="776" y="1462" on="1"/>
        <pt x="776" y="1145" on="1"/>
        <pt x="991" y="1145" on="0"/>
        <pt x="1233" y="1021" on="0"/>
        <pt x="1257" y="889" on="1"/>
        <pt x="1421" y="889" on="1"/>
        <pt x="1421" y="1057" on="1"/>
        <pt x="1608" y="1057" on="1"/>
        <pt x="1608" y="702" on="1"/>
        <pt x="1806" y="702" on="1"/>
        <pt x="1847" y="383" on="1"/>
      </contour>
      <contour>
        <pt x="590" y="1010" on="1"/>
        <pt x="436" y="1010" on="0"/>
        <pt x="285" y="922" on="0"/>
        <pt x="285" y="819" on="1"/>
        <pt x="285" y="742" on="0"/>
        <pt x="347" y="664" on="0"/>
        <pt x="481" y="625" on="0"/>
        <pt x="590" y="625" on="1"/>
      </contour>
      <contour>
        <pt x="776" y="625" on="1"/>
        <pt x="934" y="625" on="0"/>
        <pt x="1081" y="713" on="0"/>
        <pt x="1081" y="817" on="1"/>
        <pt x="1081" y="918" on="0"/>
        <pt x="931" y="1010" on="0"/>
        <pt x="776" y="1010" on="1"/>
      </contour>
    </TTGlyph>
    <TTGlyph name="uni124B" xMin="102" yMin="0" xMax="1264" yMax="1462">
      <contour>
        <pt x="174" y="109" on="1"/>
        <pt x="215" y="408" on="1"/>
        <pt x="590" y="408" on="1"/>
        <pt x="590" y="592" on="1"/>
        <pt x="352" y="592" on="0"/>
        <pt x="102" y="755" on="0"/>
        <pt x="102" y="920" on="1"/>
        <pt x="102" y="1090" on="0"/>
        <pt x="342" y="1247" on="0"/>
        <pt x="590" y="1247" on="1"/>
        <pt x="590" y="1462" on="1"/>
        <pt x="776" y="1462" on="1"/>
        <pt x="776" y="1247" on="1"/>
        <pt x="1023" y="1247" on="0"/>
        <pt x="1264" y="1087" on="0"/>
        <pt x="1264" y="920" on="1"/>
        <pt x="1264" y="759" on="0"/>
        <pt x="1010" y="592" on="0"/>
        <pt x="776" y="592" on="1"/>
        <pt x="776" y="408" on="1"/>
        <pt x="1178" y="408" on="1"/>
        <pt x="1178" y="0" on="1"/>
        <pt x="991" y="0" on="1"/>
        <pt x="991" y="272" on="1"/>
        <pt x="385" y="272" on="1"/>
        <pt x="364" y="198" on="0"/>
        <pt x="269" y="109" on="0"/>
        <pt x="213" y="109" on="1"/>
      </contour>
      <contour>
        <pt x="590" y="1112" on="1"/>
        <pt x="436" y="1112" on="0"/>
        <pt x="285" y="1024" on="0"/>
        <pt x="285" y="922" on="1"/>
        <pt x="285" y="846" on="0"/>
        <pt x="345" y="767" on="0"/>
        <pt x="477" y="727" on="0"/>
        <pt x="590" y="727" on="1"/>
      </contour>
      <contour>
        <pt x="776" y="727" on="1"/>
        <pt x="931" y="727" on="0"/>
        <pt x="1081" y="815" on="0"/>
        <pt x="1081" y="920" on="1"/>
        <pt x="1081" y="1021" on="0"/>
        <pt x="931" y="1112" on="0"/>
        <pt x="776" y="1112" on="1"/>
      </contour>
    </TTGlyph>
    <TTGlyph name="uni124C" xMin="102" yMin="-184" xMax="1264" yMax="1577">
      <contour>
        <pt x="412" y="0" on="1"/>
        <pt x="400" y="-82" on="0"/>
        <pt x="301" y="-184" on="0"/>
        <pt x="236" y="-184" on="1"/>
        <pt x="197" y="-184" on="1"/>
        <pt x="238" y="135" on="1"/>
        <pt x="590" y="135" on="1"/>
        <pt x="590" y="592" on="1"/>
        <pt x="352" y="592" on="0"/>
        <pt x="102" y="755" on="0"/>
        <pt x="102" y="920" on="1"/>
        <pt x="102" y="1090" on="0"/>
        <pt x="342" y="1247" on="0"/>
        <pt x="590" y="1247" on="1"/>
        <pt x="590" y="1577" on="1"/>
        <pt x="776" y="1577" on="1"/>
        <pt x="776" y="1247" on="1"/>
        <pt x="1023" y="1247" on="0"/>
        <pt x="1264" y="1087" on="0"/>
        <pt x="1264" y="920" on="1"/>
        <pt x="1264" y="759" on="0"/>
        <pt x="1010" y="592" on="0"/>
        <pt x="776" y="592" on="1"/>
        <pt x="776" y="479" on="1"/>
        <pt x="967" y="479" on="1"/>
        <pt x="1105" y="479" on="0"/>
        <pt x="1245" y="363" on="0"/>
        <pt x="1245" y="252" on="1"/>
        <pt x="1245" y="124" on="0"/>
        <pt x="1073" y="0" on="0"/>
        <pt x="887" y="0" on="1"/>
      </contour>
      <contour>
        <pt x="590" y="1112" on="1"/>
        <pt x="436" y="1112" on="0"/>
        <pt x="285" y="1024" on="0"/>
        <pt x="285" y="922" on="1"/>
        <pt x="285" y="846" on="0"/>
        <pt x="345" y="767" on="0"/>
        <pt x="477" y="727" on="0"/>
        <pt x="590" y="727" on="1"/>
      </contour>
      <contour>
        <pt x="776" y="727" on="1"/>
        <pt x="931" y="727" on="0"/>
        <pt x="1081" y="815" on="0"/>
        <pt x="1081" y="920" on="1"/>
        <pt x="1081" y="1021" on="0"/>
        <pt x="931" y="1112" on="0"/>
        <pt x="776" y="1112" on="1"/>
      </contour>
      <contour>
        <pt x="776" y="340" on="1"/>
        <pt x="776" y="135" on="1"/>
        <pt x="852" y="135" on="1"/>
        <pt x="974" y="135" on="0"/>
        <pt x="1063" y="182" on="0"/>
        <pt x="1063" y="246" on="1"/>
        <pt x="1063" y="297" on="0"/>
        <pt x="1001" y="340" on="0"/>
        <pt x="907" y="340" on="1"/>
      </contour>
    </TTGlyph>
    <TTGlyph name="uni124D" xMin="102" yMin="0" xMax="1847" yMax="1462">
      <contour>
        <pt x="1808" y="569" on="1"/>
        <pt x="1742" y="569" on="0"/>
        <pt x="1644" y="672" on="0"/>
        <pt x="1632" y="754" on="1"/>
        <pt x="1257" y="754" on="1"/>
        <pt x="1232" y="624" on="0"/>
        <pt x="989" y="489" on="0"/>
        <pt x="776" y="489" on="1"/>
        <pt x="776" y="0" on="1"/>
        <pt x="590" y="0" on="1"/>
        <pt x="590" y="489" on="1"/>
        <pt x="352" y="489" on="0"/>
        <pt x="102" y="652" on="0"/>
        <pt x="102" y="817" on="1"/>
        <pt x="102" y="989" on="0"/>
        <pt x="345" y="1145" on="0"/>
        <pt x="590" y="1145" on="1"/>
        <pt x="590" y="1462" on="1"/>
        <pt x="776" y="1462" on="1"/>
        <pt x="776" y="1145" on="1"/>
        <pt x="991" y="1145" on="0"/>
        <pt x="1233" y="1021" on="0"/>
        <pt x="1257" y="889" on="1"/>
        <pt x="1421" y="889" on="1"/>
        <pt x="1421" y="1190" on="1"/>
        <pt x="1608" y="1190" on="1"/>
        <pt x="1608" y="889" on="1"/>
        <pt x="1806" y="889" on="1"/>
        <pt x="1847" y="569" on="1"/>
      </contour>
      <contour>
        <pt x="590" y="1010" on="1"/>
        <pt x="436" y="1010" on="0"/>
        <pt x="285" y="922" on="0"/>
        <pt x="285" y="819" on="1"/>
        <pt x="285" y="742" on="0"/>
        <pt x="347" y="664" on="0"/>
        <pt x="481" y="625" on="0"/>
        <pt x="590" y="625" on="1"/>
      </contour>
      <contour>
        <pt x="776" y="625" on="1"/>
        <pt x="934" y="625" on="0"/>
        <pt x="1081" y="713" on="0"/>
        <pt x="1081" y="817" on="1"/>
        <pt x="1081" y="918" on="0"/>
        <pt x="931" y="1010" on="0"/>
        <pt x="776" y="1010" on="1"/>
      </contour>
    </TTGlyph>
    <TTGlyph name="uni1250" xMin="102" yMin="0" xMax="1264" yMax="1720">
      <contour>
        <pt x="1176" y="1720" on="1"/>
        <pt x="1143" y="1520" on="1"/>
        <pt x="1176" y="1319" on="1"/>
        <pt x="1137" y="1319" on="1"/>
        <pt x="1075" y="1319" on="0"/>
        <pt x="981" y="1404" on="0"/>
        <pt x="965" y="1462" on="1"/>
        <pt x="776" y="1462" on="1"/>
        <pt x="776" y="1145" on="1"/>
        <pt x="1019" y="1145" on="0"/>
        <pt x="1264" y="986" on="0"/>
        <pt x="1264" y="817" on="1"/>
        <pt x="1264" y="656" on="0"/>
        <pt x="1010" y="489" on="0"/>
        <pt x="776" y="489" on="1"/>
        <pt x="776" y="0" on="1"/>
        <pt x="590" y="0" on="1"/>
        <pt x="590" y="489" on="1"/>
        <pt x="352" y="489" on="0"/>
        <pt x="102" y="652" on="0"/>
        <pt x="102" y="817" on="1"/>
        <pt x="102" y="989" on="0"/>
        <pt x="345" y="1145" on="0"/>
        <pt x="590" y="1145" on="1"/>
        <pt x="590" y="1462" on="1"/>
        <pt x="403" y="1462" on="1"/>
        <pt x="386" y="1402" on="0"/>
        <pt x="291" y="1319" on="0"/>
        <pt x="231" y="1319" on="1"/>
        <pt x="193" y="1319" on="1"/>
        <pt x="225" y="1520" on="1"/>
        <pt x="193" y="1720" on="1"/>
        <pt x="231" y="1720" on="1"/>
        <pt x="290" y="1720" on="0"/>
        <pt x="386" y="1638" on="0"/>
        <pt x="403" y="1577" on="1"/>
        <pt x="965" y="1577" on="1"/>
        <pt x="982" y="1637" on="0"/>
        <pt x="1075" y="1720" on="0"/>
        <pt x="1137" y="1720" on="1"/>
      </contour>
      <contour>
        <pt x="590" y="1010" on="1"/>
        <pt x="436" y="1010" on="0"/>
        <pt x="285" y="922" on="0"/>
        <pt x="285" y="819" on="1"/>
        <pt x="285" y="742" on="0"/>
        <pt x="347" y="664" on="0"/>
        <pt x="481" y="625" on="0"/>
        <pt x="590" y="625" on="1"/>
      </contour>
      <contour>
        <pt x="776" y="625" on="1"/>
        <pt x="934" y="625" on="0"/>
        <pt x="1081" y="713" on="0"/>
        <pt x="1081" y="817" on="1"/>
        <pt x="1081" y="918" on="0"/>
        <pt x="931" y="1010" on="0"/>
        <pt x="776" y="1010" on="1"/>
      </contour>
    </TTGlyph>
    <TTGlyph name="uni1251" xMin="102" yMin="0" xMax="1264" yMax="1720">
      <contour>
        <pt x="776" y="381" on="1"/>
        <pt x="1141" y="381" on="1"/>
        <pt x="1182" y="61" on="1"/>
        <pt x="1143" y="61" on="1"/>
        <pt x="1075" y="61" on="0"/>
        <pt x="979" y="165" on="0"/>
        <pt x="967" y="246" on="1"/>
        <pt x="776" y="246" on="1"/>
        <pt x="776" y="0" on="1"/>
        <pt x="590" y="0" on="1"/>
        <pt x="590" y="530" on="1"/>
        <pt x="352" y="530" on="0"/>
        <pt x="102" y="693" on="0"/>
        <pt x="102" y="858" on="1"/>
        <pt x="102" y="1030" on="0"/>
        <pt x="345" y="1186" on="0"/>
        <pt x="590" y="1186" on="1"/>
        <pt x="590" y="1462" on="1"/>
        <pt x="403" y="1462" on="1"/>
        <pt x="386" y="1402" on="0"/>
        <pt x="291" y="1319" on="0"/>
        <pt x="231" y="1319" on="1"/>
        <pt x="193" y="1319" on="1"/>
        <pt x="225" y="1520" on="1"/>
        <pt x="193" y="1720" on="1"/>
        <pt x="231" y="1720" on="1"/>
        <pt x="290" y="1720" on="0"/>
        <pt x="386" y="1638" on="0"/>
        <pt x="403" y="1577" on="1"/>
        <pt x="965" y="1577" on="1"/>
        <pt x="982" y="1637" on="0"/>
        <pt x="1075" y="1720" on="0"/>
        <pt x="1137" y="1720" on="1"/>
        <pt x="1176" y="1720" on="1"/>
        <pt x="1143" y="1520" on="1"/>
        <pt x="1176" y="1319" on="1"/>
        <pt x="1137" y="1319" on="1"/>
        <pt x="1075" y="1319" on="0"/>
        <pt x="981" y="1404" on="0"/>
        <pt x="965" y="1462" on="1"/>
        <pt x="776" y="1462" on="1"/>
        <pt x="776" y="1186" on="1"/>
        <pt x="1019" y="1186" on="0"/>
        <pt x="1264" y="1027" on="0"/>
        <pt x="1264" y="858" on="1"/>
        <pt x="1264" y="697" on="0"/>
        <pt x="1010" y="530" on="0"/>
        <pt x="776" y="530" on="1"/>
      </contour>
      <contour>
        <pt x="590" y="1051" on="1"/>
        <pt x="436" y="1051" on="0"/>
        <pt x="285" y="963" on="0"/>
        <pt x="285" y="860" on="1"/>
        <pt x="285" y="783" on="0"/>
        <pt x="347" y="705" on="0"/>
        <pt x="481" y="666" on="0"/>
        <pt x="590" y="666" on="1"/>
      </contour>
      <contour>
        <pt x="776" y="666" on="1"/>
        <pt x="934" y="666" on="0"/>
        <pt x="1081" y="754" on="0"/>
        <pt x="1081" y="858" on="1"/>
        <pt x="1081" y="959" on="0"/>
        <pt x="931" y="1051" on="0"/>
        <pt x="776" y="1051" on="1"/>
      </contour>
    </TTGlyph>
    <TTGlyph name="uni1252" xMin="102" yMin="-164" xMax="1264" yMax="1720">
      <contour>
        <pt x="1176" y="1720" on="1"/>
        <pt x="1143" y="1520" on="1"/>
        <pt x="1176" y="1319" on="1"/>
        <pt x="1137" y="1319" on="1"/>
        <pt x="1075" y="1319" on="0"/>
        <pt x="981" y="1404" on="0"/>
        <pt x="965" y="1462" on="1"/>
        <pt x="776" y="1462" on="1"/>
        <pt x="776" y="1186" on="1"/>
        <pt x="1019" y="1186" on="0"/>
        <pt x="1264" y="1027" on="0"/>
        <pt x="1264" y="858" on="1"/>
        <pt x="1264" y="697" on="0"/>
        <pt x="1010" y="530" on="0"/>
        <pt x="776" y="530" on="1"/>
        <pt x="776" y="135" on="1"/>
        <pt x="991" y="135" on="1"/>
        <pt x="1012" y="207" on="0"/>
        <pt x="1109" y="299" on="0"/>
        <pt x="1163" y="299" on="1"/>
        <pt x="1202" y="299" on="1"/>
        <pt x="1169" y="70" on="1"/>
        <pt x="1202" y="-164" on="1"/>
        <pt x="1163" y="-164" on="1"/>
        <pt x="1109" y="-164" on="0"/>
        <pt x="1011" y="-71" on="0"/>
        <pt x="991" y="0" on="1"/>
        <pt x="590" y="0" on="1"/>
        <pt x="590" y="530" on="1"/>
        <pt x="352" y="530" on="0"/>
        <pt x="102" y="693" on="0"/>
        <pt x="102" y="858" on="1"/>
        <pt x="102" y="1030" on="0"/>
        <pt x="345" y="1186" on="0"/>
        <pt x="590" y="1186" on="1"/>
        <pt x="590" y="1462" on="1"/>
        <pt x="403" y="1462" on="1"/>
        <pt x="386" y="1402" on="0"/>
        <pt x="291" y="1319" on="0"/>
        <pt x="231" y="1319" on="1"/>
        <pt x="193" y="1319" on="1"/>
        <pt x="225" y="1520" on="1"/>
        <pt x="193" y="1720" on="1"/>
        <pt x="231" y="1720" on="1"/>
        <pt x="290" y="1720" on="0"/>
        <pt x="386" y="1638" on="0"/>
        <pt x="403" y="1577" on="1"/>
        <pt x="965" y="1577" on="1"/>
        <pt x="982" y="1637" on="0"/>
        <pt x="1075" y="1720" on="0"/>
        <pt x="1137" y="1720" on="1"/>
      </contour>
      <contour>
        <pt x="590" y="1051" on="1"/>
        <pt x="436" y="1051" on="0"/>
        <pt x="285" y="963" on="0"/>
        <pt x="285" y="860" on="1"/>
        <pt x="285" y="783" on="0"/>
        <pt x="347" y="705" on="0"/>
        <pt x="481" y="666" on="0"/>
        <pt x="590" y="666" on="1"/>
      </contour>
      <contour>
        <pt x="776" y="666" on="1"/>
        <pt x="934" y="666" on="0"/>
        <pt x="1081" y="754" on="0"/>
        <pt x="1081" y="858" on="1"/>
        <pt x="1081" y="959" on="0"/>
        <pt x="931" y="1051" on="0"/>
        <pt x="776" y="1051" on="1"/>
      </contour>
    </TTGlyph>
    <TTGlyph name="uni1253" xMin="82" yMin="-164" xMax="1284" yMax="1720">
      <contour>
        <pt x="1192" y="1720" on="1"/>
        <pt x="1159" y="1520" on="1"/>
        <pt x="1192" y="1319" on="1"/>
        <pt x="1153" y="1319" on="1"/>
        <pt x="1093" y="1319" on="0"/>
        <pt x="1001" y="1398" on="0"/>
        <pt x="981" y="1462" on="1"/>
        <pt x="797" y="1462" on="1"/>
        <pt x="797" y="1145" on="1"/>
        <pt x="1039" y="1145" on="0"/>
        <pt x="1284" y="988" on="0"/>
        <pt x="1284" y="817" on="1"/>
        <pt x="1284" y="656" on="0"/>
        <pt x="1033" y="489" on="0"/>
        <pt x="797" y="489" on="1"/>
        <pt x="794" y="300" on="0"/>
        <pt x="701" y="94" on="0"/>
        <pt x="500" y="0" on="0"/>
        <pt x="326" y="0" on="1"/>
        <pt x="293" y="0" on="1"/>
        <pt x="270" y="-76" on="0"/>
        <pt x="176" y="-164" on="0"/>
        <pt x="121" y="-164" on="1"/>
        <pt x="82" y="-164" on="1"/>
        <pt x="123" y="135" on="1"/>
        <pt x="319" y="135" on="1"/>
        <pt x="434" y="135" on="0"/>
        <pt x="556" y="198" on="0"/>
        <pt x="610" y="342" on="0"/>
        <pt x="610" y="489" on="1"/>
        <pt x="372" y="489" on="0"/>
        <pt x="123" y="651" on="0"/>
        <pt x="123" y="817" on="1"/>
        <pt x="123" y="990" on="0"/>
        <pt x="366" y="1145" on="0"/>
        <pt x="610" y="1145" on="1"/>
        <pt x="610" y="1462" on="1"/>
        <pt x="420" y="1462" on="1"/>
        <pt x="401" y="1400" on="0"/>
        <pt x="308" y="1319" on="0"/>
        <pt x="248" y="1319" on="1"/>
        <pt x="209" y="1319" on="1"/>
        <pt x="242" y="1520" on="1"/>
        <pt x="209" y="1720" on="1"/>
        <pt x="248" y="1720" on="1"/>
        <pt x="307" y="1720" on="0"/>
        <pt x="400" y="1640" on="0"/>
        <pt x="420" y="1577" on="1"/>
        <pt x="981" y="1577" on="1"/>
        <pt x="1002" y="1643" on="0"/>
        <pt x="1094" y="1720" on="0"/>
        <pt x="1153" y="1720" on="1"/>
      </contour>
      <contour>
        <pt x="610" y="1010" on="1"/>
        <pt x="456" y="1010" on="0"/>
        <pt x="305" y="922" on="0"/>
        <pt x="305" y="819" on="1"/>
        <pt x="305" y="742" on="0"/>
        <pt x="367" y="664" on="0"/>
        <pt x="501" y="625" on="0"/>
        <pt x="610" y="625" on="1"/>
      </contour>
      <contour>
        <pt x="797" y="625" on="1"/>
        <pt x="955" y="625" on="0"/>
        <pt x="1102" y="713" on="0"/>
        <pt x="1102" y="817" on="1"/>
        <pt x="1102" y="917" on="0"/>
        <pt x="953" y="1010" on="0"/>
        <pt x="797" y="1010" on="1"/>
      </contour>
    </TTGlyph>
    <TTGlyph name="uni1254" xMin="102" yMin="0" xMax="1264" yMax="1720">
      <contour>
        <pt x="1176" y="1720" on="1"/>
        <pt x="1143" y="1520" on="1"/>
        <pt x="1176" y="1319" on="1"/>
        <pt x="1137" y="1319" on="1"/>
        <pt x="1075" y="1319" on="0"/>
        <pt x="981" y="1404" on="0"/>
        <pt x="965" y="1462" on="1"/>
        <pt x="776" y="1462" on="1"/>
        <pt x="776" y="1247" on="1"/>
        <pt x="1023" y="1247" on="0"/>
        <pt x="1264" y="1087" on="0"/>
        <pt x="1264" y="920" on="1"/>
        <pt x="1264" y="759" on="0"/>
        <pt x="1010" y="592" on="0"/>
        <pt x="776" y="592" on="1"/>
        <pt x="776" y="479" on="1"/>
        <pt x="967" y="479" on="1"/>
        <pt x="1105" y="479" on="0"/>
        <pt x="1245" y="363" on="0"/>
        <pt x="1245" y="252" on="1"/>
        <pt x="1245" y="124" on="0"/>
        <pt x="1073" y="0" on="0"/>
        <pt x="887" y="0" on="1"/>
        <pt x="590" y="0" on="1"/>
        <pt x="590" y="592" on="1"/>
        <pt x="352" y="592" on="0"/>
        <pt x="102" y="755" on="0"/>
        <pt x="102" y="920" on="1"/>
        <pt x="102" y="1090" on="0"/>
        <pt x="342" y="1247" on="0"/>
        <pt x="590" y="1247" on="1"/>
        <pt x="590" y="1462" on="1"/>
        <pt x="403" y="1462" on="1"/>
        <pt x="386" y="1402" on="0"/>
        <pt x="291" y="1319" on="0"/>
        <pt x="231" y="1319" on="1"/>
        <pt x="193" y="1319" on="1"/>
        <pt x="225" y="1520" on="1"/>
        <pt x="193" y="1720" on="1"/>
        <pt x="231" y="1720" on="1"/>
        <pt x="290" y="1720" on="0"/>
        <pt x="386" y="1638" on="0"/>
        <pt x="403" y="1577" on="1"/>
        <pt x="965" y="1577" on="1"/>
        <pt x="982" y="1637" on="0"/>
        <pt x="1075" y="1720" on="0"/>
        <pt x="1137" y="1720" on="1"/>
      </contour>
      <contour>
        <pt x="590" y="1112" on="1"/>
        <pt x="436" y="1112" on="0"/>
        <pt x="285" y="1024" on="0"/>
        <pt x="285" y="922" on="1"/>
        <pt x="285" y="846" on="0"/>
        <pt x="345" y="767" on="0"/>
        <pt x="477" y="727" on="0"/>
        <pt x="590" y="727" on="1"/>
      </contour>
      <contour>
        <pt x="776" y="727" on="1"/>
        <pt x="931" y="727" on="0"/>
        <pt x="1081" y="815" on="0"/>
        <pt x="1081" y="920" on="1"/>
        <pt x="1081" y="1021" on="0"/>
        <pt x="931" y="1112" on="0"/>
        <pt x="776" y="1112" on="1"/>
      </contour>
      <contour>
        <pt x="776" y="340" on="1"/>
        <pt x="776" y="135" on="1"/>
        <pt x="852" y="135" on="1"/>
        <pt x="974" y="135" on="0"/>
        <pt x="1063" y="182" on="0"/>
        <pt x="1063" y="246" on="1"/>
        <pt x="1063" y="297" on="0"/>
        <pt x="1001" y="340" on="0"/>
        <pt x="907" y="340" on="1"/>
      </contour>
    </TTGlyph>
    <TTGlyph name="uni1255" xMin="102" yMin="0" xMax="1518" yMax="1720">
      <contour>
        <pt x="1085" y="1720" on="1"/>
        <pt x="1053" y="1520" on="1"/>
        <pt x="1085" y="1319" on="1"/>
        <pt x="1047" y="1319" on="1"/>
        <pt x="987" y="1319" on="0"/>
        <pt x="894" y="1399" on="0"/>
        <pt x="874" y="1462" on="1"/>
        <pt x="686" y="1462" on="1"/>
        <pt x="686" y="1339" on="0"/>
        <pt x="772" y="1229" on="0"/>
        <pt x="872" y="1229" on="1"/>
        <pt x="1030" y="1229" on="1"/>
        <pt x="1030" y="981" on="1"/>
        <pt x="1277" y="981" on="0"/>
        <pt x="1518" y="821" on="0"/>
        <pt x="1518" y="653" on="1"/>
        <pt x="1518" y="493" on="0"/>
        <pt x="1266" y="326" on="0"/>
        <pt x="1030" y="326" on="1"/>
        <pt x="1030" y="0" on="1"/>
        <pt x="844" y="0" on="1"/>
        <pt x="844" y="326" on="1"/>
        <pt x="356" y="326" on="0"/>
        <pt x="356" y="653" on="1"/>
        <pt x="356" y="825" on="0"/>
        <pt x="599" y="981" on="0"/>
        <pt x="844" y="981" on="1"/>
        <pt x="844" y="1081" on="1"/>
        <pt x="711" y="1089" on="0"/>
        <pt x="569" y="1170" on="0"/>
        <pt x="500" y="1331" on="0"/>
        <pt x="500" y="1462" on="1"/>
        <pt x="313" y="1462" on="1"/>
        <pt x="296" y="1402" on="0"/>
        <pt x="201" y="1319" on="0"/>
        <pt x="141" y="1319" on="1"/>
        <pt x="102" y="1319" on="1"/>
        <pt x="135" y="1520" on="1"/>
        <pt x="102" y="1720" on="1"/>
        <pt x="141" y="1720" on="1"/>
        <pt x="200" y="1720" on="0"/>
        <pt x="296" y="1638" on="0"/>
        <pt x="313" y="1577" on="1"/>
        <pt x="874" y="1577" on="1"/>
        <pt x="894" y="1641" on="0"/>
        <pt x="987" y="1720" on="0"/>
        <pt x="1047" y="1720" on="1"/>
      </contour>
      <contour>
        <pt x="844" y="846" on="1"/>
        <pt x="690" y="846" on="0"/>
        <pt x="539" y="758" on="0"/>
        <pt x="539" y="655" on="1"/>
        <pt x="539" y="578" on="0"/>
        <pt x="601" y="500" on="0"/>
        <pt x="735" y="461" on="0"/>
        <pt x="844" y="461" on="1"/>
      </contour>
      <contour>
        <pt x="1030" y="461" on="1"/>
        <pt x="1188" y="461" on="0"/>
        <pt x="1335" y="549" on="0"/>
        <pt x="1335" y="653" on="1"/>
        <pt x="1335" y="754" on="0"/>
        <pt x="1185" y="846" on="0"/>
        <pt x="1030" y="846" on="1"/>
      </contour>
    </TTGlyph>
    <TTGlyph name="uni1256" xMin="100" yMin="0" xMax="1264" yMax="1720">
      <contour>
        <pt x="776" y="940" on="1"/>
        <pt x="1023" y="940" on="0"/>
        <pt x="1264" y="780" on="0"/>
        <pt x="1264" y="612" on="1"/>
        <pt x="1264" y="452" on="0"/>
        <pt x="1012" y="285" on="0"/>
        <pt x="776" y="285" on="1"/>
        <pt x="776" y="0" on="1"/>
        <pt x="590" y="0" on="1"/>
        <pt x="590" y="285" on="1"/>
        <pt x="102" y="285" on="0"/>
        <pt x="102" y="612" on="1"/>
        <pt x="102" y="779" on="0"/>
        <pt x="340" y="938" on="0"/>
        <pt x="590" y="940" on="1"/>
        <pt x="590" y="948" on="1"/>
        <pt x="590" y="1008" on="0"/>
        <pt x="627" y="1059" on="1"/>
        <pt x="528" y="1076" on="0"/>
        <pt x="399" y="1214" on="0"/>
        <pt x="399" y="1309" on="1"/>
        <pt x="399" y="1396" on="0"/>
        <pt x="442" y="1462" on="1"/>
        <pt x="311" y="1462" on="1"/>
        <pt x="294" y="1402" on="0"/>
        <pt x="199" y="1319" on="0"/>
        <pt x="139" y="1319" on="1"/>
        <pt x="100" y="1319" on="1"/>
        <pt x="133" y="1520" on="1"/>
        <pt x="100" y="1720" on="1"/>
        <pt x="139" y="1720" on="1"/>
        <pt x="198" y="1720" on="0"/>
        <pt x="294" y="1638" on="0"/>
        <pt x="311" y="1577" on="1"/>
        <pt x="1036" y="1577" on="1"/>
        <pt x="1057" y="1643" on="0"/>
        <pt x="1149" y="1720" on="0"/>
        <pt x="1208" y="1720" on="1"/>
        <pt x="1247" y="1720" on="1"/>
        <pt x="1214" y="1520" on="1"/>
        <pt x="1247" y="1319" on="1"/>
        <pt x="1208" y="1319" on="1"/>
        <pt x="1148" y="1319" on="0"/>
        <pt x="1056" y="1398" on="0"/>
        <pt x="1036" y="1462" on="1"/>
        <pt x="934" y="1462" on="1"/>
        <pt x="969" y="1404" on="0"/>
        <pt x="969" y="1333" on="1"/>
        <pt x="969" y="1208" on="0"/>
        <pt x="867" y="1102" on="1"/>
        <pt x="819" y="1051" on="1"/>
        <pt x="776" y="1004" on="0"/>
        <pt x="776" y="954" on="1"/>
      </contour>
      <contour>
        <pt x="590" y="805" on="1"/>
        <pt x="436" y="805" on="0"/>
        <pt x="285" y="717" on="0"/>
        <pt x="285" y="614" on="1"/>
        <pt x="285" y="537" on="0"/>
        <pt x="347" y="459" on="0"/>
        <pt x="481" y="420" on="0"/>
        <pt x="590" y="420" on="1"/>
      </contour>
      <contour>
        <pt x="776" y="420" on="1"/>
        <pt x="934" y="420" on="0"/>
        <pt x="1081" y="508" on="0"/>
        <pt x="1081" y="612" on="1"/>
        <pt x="1081" y="713" on="0"/>
        <pt x="931" y="805" on="0"/>
        <pt x="776" y="805" on="1"/>
      </contour>
      <contour>
        <pt x="684" y="1438" on="1"/>
        <pt x="639" y="1438" on="0"/>
        <pt x="582" y="1370" on="0"/>
        <pt x="582" y="1321" on="1"/>
        <pt x="582" y="1212" on="0"/>
        <pt x="715" y="1176" on="1"/>
        <pt x="786" y="1242" on="0"/>
        <pt x="786" y="1327" on="1"/>
        <pt x="786" y="1378" on="0"/>
        <pt x="735" y="1438" on="0"/>
      </contour>
    </TTGlyph>
    <TTGlyph name="uni1258" xMin="102" yMin="0" xMax="1374" yMax="1720">
      <contour>
        <pt x="1176" y="1720" on="1"/>
        <pt x="1143" y="1520" on="1"/>
        <pt x="1176" y="1319" on="1"/>
        <pt x="1137" y="1319" on="1"/>
        <pt x="1075" y="1319" on="0"/>
        <pt x="981" y="1404" on="0"/>
        <pt x="965" y="1462" on="1"/>
        <pt x="776" y="1462" on="1"/>
        <pt x="776" y="1247" on="1"/>
        <pt x="1023" y="1247" on="0"/>
        <pt x="1264" y="1087" on="0"/>
        <pt x="1264" y="920" on="1"/>
        <pt x="1264" y="759" on="0"/>
        <pt x="1010" y="592" on="0"/>
        <pt x="776" y="592" on="1"/>
        <pt x="776" y="510" on="1"/>
        <pt x="1104" y="510" on="1"/>
        <pt x="1237" y="510" on="0"/>
        <pt x="1374" y="400" on="0"/>
        <pt x="1374" y="299" on="1"/>
        <pt x="1374" y="191" on="0"/>
        <pt x="1229" y="72" on="0"/>
        <pt x="1104" y="72" on="1"/>
        <pt x="978" y="72" on="0"/>
        <pt x="834" y="194" on="0"/>
        <pt x="834" y="299" on="1"/>
        <pt x="834" y="353" on="0"/>
        <pt x="852" y="395" on="1"/>
        <pt x="776" y="395" on="1"/>
        <pt x="776" y="0" on="1"/>
        <pt x="590" y="0" on="1"/>
        <pt x="590" y="592" on="1"/>
        <pt x="352" y="592" on="0"/>
        <pt x="102" y="755" on="0"/>
        <pt x="102" y="920" on="1"/>
        <pt x="102" y="1090" on="0"/>
        <pt x="342" y="1247" on="0"/>
        <pt x="590" y="1247" on="1"/>
        <pt x="590" y="1462" on="1"/>
        <pt x="403" y="1462" on="1"/>
        <pt x="386" y="1402" on="0"/>
        <pt x="291" y="1319" on="0"/>
        <pt x="231" y="1319" on="1"/>
        <pt x="193" y="1319" on="1"/>
        <pt x="225" y="1520" on="1"/>
        <pt x="193" y="1720" on="1"/>
        <pt x="231" y="1720" on="1"/>
        <pt x="290" y="1720" on="0"/>
        <pt x="386" y="1638" on="0"/>
        <pt x="403" y="1577" on="1"/>
        <pt x="965" y="1577" on="1"/>
        <pt x="982" y="1637" on="0"/>
        <pt x="1075" y="1720" on="0"/>
        <pt x="1137" y="1720" on="1"/>
      </contour>
      <contour>
        <pt x="590" y="1112" on="1"/>
        <pt x="436" y="1112" on="0"/>
        <pt x="285" y="1024" on="0"/>
        <pt x="285" y="922" on="1"/>
        <pt x="285" y="846" on="0"/>
        <pt x="345" y="767" on="0"/>
        <pt x="477" y="727" on="0"/>
        <pt x="590" y="727" on="1"/>
      </contour>
      <contour>
        <pt x="776" y="727" on="1"/>
        <pt x="931" y="727" on="0"/>
        <pt x="1081" y="815" on="0"/>
        <pt x="1081" y="920" on="1"/>
        <pt x="1081" y="1021" on="0"/>
        <pt x="931" y="1112" on="0"/>
        <pt x="776" y="1112" on="1"/>
      </contour>
      <contour>
        <pt x="1104" y="401" on="1"/>
        <pt x="1052" y="401" on="0"/>
        <pt x="993" y="347" on="0"/>
        <pt x="993" y="299" on="1"/>
        <pt x="993" y="244" on="0"/>
        <pt x="1053" y="178" on="0"/>
        <pt x="1104" y="178" on="1"/>
        <pt x="1154" y="178" on="0"/>
        <pt x="1214" y="241" on="0"/>
        <pt x="1214" y="299" on="1"/>
        <pt x="1214" y="347" on="0"/>
        <pt x="1155" y="401" on="0"/>
      </contour>
    </TTGlyph>
    <TTGlyph name="uni125A" xMin="102" yMin="0" xMax="1847" yMax="1720">
      <contour>
        <pt x="1421" y="754" on="1"/>
        <pt x="1257" y="754" on="1"/>
        <pt x="1232" y="624" on="0"/>
        <pt x="989" y="489" on="0"/>
        <pt x="776" y="489" on="1"/>
        <pt x="776" y="0" on="1"/>
        <pt x="590" y="0" on="1"/>
        <pt x="590" y="489" on="1"/>
        <pt x="352" y="489" on="0"/>
        <pt x="102" y="652" on="0"/>
        <pt x="102" y="817" on="1"/>
        <pt x="102" y="989" on="0"/>
        <pt x="345" y="1145" on="0"/>
        <pt x="590" y="1145" on="1"/>
        <pt x="590" y="1462" on="1"/>
        <pt x="403" y="1462" on="1"/>
        <pt x="386" y="1402" on="0"/>
        <pt x="291" y="1319" on="0"/>
        <pt x="231" y="1319" on="1"/>
        <pt x="193" y="1319" on="1"/>
        <pt x="225" y="1520" on="1"/>
        <pt x="193" y="1720" on="1"/>
        <pt x="231" y="1720" on="1"/>
        <pt x="290" y="1720" on="0"/>
        <pt x="386" y="1638" on="0"/>
        <pt x="403" y="1577" on="1"/>
        <pt x="965" y="1577" on="1"/>
        <pt x="982" y="1637" on="0"/>
        <pt x="1075" y="1720" on="0"/>
        <pt x="1137" y="1720" on="1"/>
        <pt x="1176" y="1720" on="1"/>
        <pt x="1143" y="1520" on="1"/>
        <pt x="1176" y="1319" on="1"/>
        <pt x="1137" y="1319" on="1"/>
        <pt x="1075" y="1319" on="0"/>
        <pt x="981" y="1404" on="0"/>
        <pt x="965" y="1462" on="1"/>
        <pt x="776" y="1462" on="1"/>
        <pt x="776" y="1145" on="1"/>
        <pt x="991" y="1145" on="0"/>
        <pt x="1233" y="1021" on="0"/>
        <pt x="1257" y="889" on="1"/>
        <pt x="1421" y="889" on="1"/>
        <pt x="1421" y="1057" on="1"/>
        <pt x="1608" y="1057" on="1"/>
        <pt x="1608" y="702" on="1"/>
        <pt x="1806" y="702" on="1"/>
        <pt x="1847" y="383" on="1"/>
        <pt x="1808" y="383" on="1"/>
        <pt x="1742" y="383" on="0"/>
        <pt x="1644" y="486" on="0"/>
        <pt x="1632" y="567" on="1"/>
        <pt x="1421" y="567" on="1"/>
      </contour>
      <contour>
        <pt x="590" y="1010" on="1"/>
        <pt x="436" y="1010" on="0"/>
        <pt x="285" y="922" on="0"/>
        <pt x="285" y="819" on="1"/>
        <pt x="285" y="742" on="0"/>
        <pt x="347" y="664" on="0"/>
        <pt x="481" y="625" on="0"/>
        <pt x="590" y="625" on="1"/>
      </contour>
      <contour>
        <pt x="776" y="625" on="1"/>
        <pt x="934" y="625" on="0"/>
        <pt x="1081" y="713" on="0"/>
        <pt x="1081" y="817" on="1"/>
        <pt x="1081" y="918" on="0"/>
        <pt x="931" y="1010" on="0"/>
        <pt x="776" y="1010" on="1"/>
      </contour>
    </TTGlyph>
    <TTGlyph name="uni125B" xMin="102" yMin="0" xMax="1264" yMax="1720">
      <contour>
        <pt x="1176" y="1720" on="1"/>
        <pt x="1143" y="1520" on="1"/>
        <pt x="1176" y="1319" on="1"/>
        <pt x="1137" y="1319" on="1"/>
        <pt x="1075" y="1319" on="0"/>
        <pt x="981" y="1404" on="0"/>
        <pt x="965" y="1462" on="1"/>
        <pt x="776" y="1462" on="1"/>
        <pt x="776" y="1247" on="1"/>
        <pt x="1023" y="1247" on="0"/>
        <pt x="1264" y="1087" on="0"/>
        <pt x="1264" y="920" on="1"/>
        <pt x="1264" y="759" on="0"/>
        <pt x="1010" y="592" on="0"/>
        <pt x="776" y="592" on="1"/>
        <pt x="776" y="408" on="1"/>
        <pt x="1178" y="408" on="1"/>
        <pt x="1178" y="0" on="1"/>
        <pt x="991" y="0" on="1"/>
        <pt x="991" y="272" on="1"/>
        <pt x="406" y="272" on="1"/>
        <pt x="385" y="201" on="0"/>
        <pt x="290" y="109" on="0"/>
        <pt x="233" y="109" on="1"/>
        <pt x="195" y="109" on="1"/>
        <pt x="236" y="408" on="1"/>
        <pt x="590" y="408" on="1"/>
        <pt x="590" y="592" on="1"/>
        <pt x="352" y="592" on="0"/>
        <pt x="102" y="755" on="0"/>
        <pt x="102" y="920" on="1"/>
        <pt x="102" y="1090" on="0"/>
        <pt x="342" y="1247" on="0"/>
        <pt x="590" y="1247" on="1"/>
        <pt x="590" y="1462" on="1"/>
        <pt x="403" y="1462" on="1"/>
        <pt x="386" y="1402" on="0"/>
        <pt x="291" y="1319" on="0"/>
        <pt x="231" y="1319" on="1"/>
        <pt x="193" y="1319" on="1"/>
        <pt x="225" y="1520" on="1"/>
        <pt x="193" y="1720" on="1"/>
        <pt x="231" y="1720" on="1"/>
        <pt x="290" y="1720" on="0"/>
        <pt x="386" y="1638" on="0"/>
        <pt x="403" y="1577" on="1"/>
        <pt x="965" y="1577" on="1"/>
        <pt x="982" y="1637" on="0"/>
        <pt x="1075" y="1720" on="0"/>
        <pt x="1137" y="1720" on="1"/>
      </contour>
      <contour>
        <pt x="590" y="1112" on="1"/>
        <pt x="436" y="1112" on="0"/>
        <pt x="285" y="1024" on="0"/>
        <pt x="285" y="922" on="1"/>
        <pt x="285" y="846" on="0"/>
        <pt x="345" y="767" on="0"/>
        <pt x="477" y="727" on="0"/>
        <pt x="590" y="727" on="1"/>
      </contour>
      <contour>
        <pt x="776" y="727" on="1"/>
        <pt x="931" y="727" on="0"/>
        <pt x="1081" y="815" on="0"/>
        <pt x="1081" y="920" on="1"/>
        <pt x="1081" y="1021" on="0"/>
        <pt x="931" y="1112" on="0"/>
        <pt x="776" y="1112" on="1"/>
      </contour>
    </TTGlyph>
    <TTGlyph name="uni125C" xMin="102" yMin="-184" xMax="1264" yMax="1720">
      <contour>
        <pt x="1176" y="1720" on="1"/>
        <pt x="1143" y="1520" on="1"/>
        <pt x="1176" y="1319" on="1"/>
        <pt x="1137" y="1319" on="1"/>
        <pt x="1075" y="1319" on="0"/>
        <pt x="981" y="1404" on="0"/>
        <pt x="965" y="1462" on="1"/>
        <pt x="776" y="1462" on="1"/>
        <pt x="776" y="1247" on="1"/>
        <pt x="1023" y="1247" on="0"/>
        <pt x="1264" y="1087" on="0"/>
        <pt x="1264" y="920" on="1"/>
        <pt x="1264" y="759" on="0"/>
        <pt x="1010" y="592" on="0"/>
        <pt x="776" y="592" on="1"/>
        <pt x="776" y="479" on="1"/>
        <pt x="967" y="479" on="1"/>
        <pt x="1105" y="479" on="0"/>
        <pt x="1245" y="363" on="0"/>
        <pt x="1245" y="252" on="1"/>
        <pt x="1245" y="124" on="0"/>
        <pt x="1073" y="0" on="0"/>
        <pt x="887" y="0" on="1"/>
        <pt x="412" y="0" on="1"/>
        <pt x="400" y="-82" on="0"/>
        <pt x="301" y="-184" on="0"/>
        <pt x="236" y="-184" on="1"/>
        <pt x="197" y="-184" on="1"/>
        <pt x="238" y="135" on="1"/>
        <pt x="590" y="135" on="1"/>
        <pt x="590" y="592" on="1"/>
        <pt x="352" y="592" on="0"/>
        <pt x="102" y="755" on="0"/>
        <pt x="102" y="920" on="1"/>
        <pt x="102" y="1090" on="0"/>
        <pt x="342" y="1247" on="0"/>
        <pt x="590" y="1247" on="1"/>
        <pt x="590" y="1462" on="1"/>
        <pt x="403" y="1462" on="1"/>
        <pt x="386" y="1402" on="0"/>
        <pt x="291" y="1319" on="0"/>
        <pt x="231" y="1319" on="1"/>
        <pt x="193" y="1319" on="1"/>
        <pt x="225" y="1520" on="1"/>
        <pt x="193" y="1720" on="1"/>
        <pt x="231" y="1720" on="1"/>
        <pt x="290" y="1720" on="0"/>
        <pt x="386" y="1638" on="0"/>
        <pt x="403" y="1577" on="1"/>
        <pt x="965" y="1577" on="1"/>
        <pt x="982" y="1637" on="0"/>
        <pt x="1075" y="1720" on="0"/>
        <pt x="1137" y="1720" on="1"/>
      </contour>
      <contour>
        <pt x="590" y="1112" on="1"/>
        <pt x="436" y="1112" on="0"/>
        <pt x="285" y="1024" on="0"/>
        <pt x="285" y="922" on="1"/>
        <pt x="285" y="846" on="0"/>
        <pt x="345" y="767" on="0"/>
        <pt x="477" y="727" on="0"/>
        <pt x="590" y="727" on="1"/>
      </contour>
      <contour>
        <pt x="776" y="727" on="1"/>
        <pt x="931" y="727" on="0"/>
        <pt x="1081" y="815" on="0"/>
        <pt x="1081" y="920" on="1"/>
        <pt x="1081" y="1021" on="0"/>
        <pt x="931" y="1112" on="0"/>
        <pt x="776" y="1112" on="1"/>
      </contour>
      <contour>
        <pt x="776" y="340" on="1"/>
        <pt x="776" y="135" on="1"/>
        <pt x="852" y="135" on="1"/>
        <pt x="974" y="135" on="0"/>
        <pt x="1063" y="182" on="0"/>
        <pt x="1063" y="246" on="1"/>
        <pt x="1063" y="297" on="0"/>
        <pt x="1001" y="340" on="0"/>
        <pt x="907" y="340" on="1"/>
      </contour>
    </TTGlyph>
    <TTGlyph name="uni125D" xMin="102" yMin="0" xMax="1847" yMax="1720">
      <contour>
        <pt x="1808" y="569" on="1"/>
        <pt x="1742" y="569" on="0"/>
        <pt x="1644" y="672" on="0"/>
        <pt x="1632" y="754" on="1"/>
        <pt x="1257" y="754" on="1"/>
        <pt x="1232" y="624" on="0"/>
        <pt x="989" y="489" on="0"/>
        <pt x="776" y="489" on="1"/>
        <pt x="776" y="0" on="1"/>
        <pt x="590" y="0" on="1"/>
        <pt x="590" y="489" on="1"/>
        <pt x="352" y="489" on="0"/>
        <pt x="102" y="652" on="0"/>
        <pt x="102" y="817" on="1"/>
        <pt x="102" y="989" on="0"/>
        <pt x="345" y="1145" on="0"/>
        <pt x="590" y="1145" on="1"/>
        <pt x="590" y="1462" on="1"/>
        <pt x="403" y="1462" on="1"/>
        <pt x="386" y="1402" on="0"/>
        <pt x="291" y="1319" on="0"/>
        <pt x="231" y="1319" on="1"/>
        <pt x="193" y="1319" on="1"/>
        <pt x="225" y="1520" on="1"/>
        <pt x="193" y="1720" on="1"/>
        <pt x="231" y="1720" on="1"/>
        <pt x="290" y="1720" on="0"/>
        <pt x="386" y="1638" on="0"/>
        <pt x="403" y="1577" on="1"/>
        <pt x="965" y="1577" on="1"/>
        <pt x="982" y="1637" on="0"/>
        <pt x="1075" y="1720" on="0"/>
        <pt x="1137" y="1720" on="1"/>
        <pt x="1176" y="1720" on="1"/>
        <pt x="1143" y="1520" on="1"/>
        <pt x="1176" y="1319" on="1"/>
        <pt x="1137" y="1319" on="1"/>
        <pt x="1075" y="1319" on="0"/>
        <pt x="981" y="1404" on="0"/>
        <pt x="965" y="1462" on="1"/>
        <pt x="776" y="1462" on="1"/>
        <pt x="776" y="1145" on="1"/>
        <pt x="991" y="1145" on="0"/>
        <pt x="1233" y="1021" on="0"/>
        <pt x="1257" y="889" on="1"/>
        <pt x="1421" y="889" on="1"/>
        <pt x="1421" y="1190" on="1"/>
        <pt x="1608" y="1190" on="1"/>
        <pt x="1608" y="889" on="1"/>
        <pt x="1806" y="889" on="1"/>
        <pt x="1847" y="569" on="1"/>
      </contour>
      <contour>
        <pt x="590" y="1010" on="1"/>
        <pt x="436" y="1010" on="0"/>
        <pt x="285" y="922" on="0"/>
        <pt x="285" y="819" on="1"/>
        <pt x="285" y="742" on="0"/>
        <pt x="347" y="664" on="0"/>
        <pt x="481" y="625" on="0"/>
        <pt x="590" y="625" on="1"/>
      </contour>
      <contour>
        <pt x="776" y="625" on="1"/>
        <pt x="934" y="625" on="0"/>
        <pt x="1081" y="713" on="0"/>
        <pt x="1081" y="817" on="1"/>
        <pt x="1081" y="918" on="0"/>
        <pt x="931" y="1010" on="0"/>
        <pt x="776" y="1010" on="1"/>
      </contour>
    </TTGlyph>
    <TTGlyph name="uni1260" xMin="184" yMin="0" xMax="1081" yMax="1481">
      <contour>
        <pt x="895" y="0" on="1"/>
        <pt x="895" y="948" on="1"/>
        <pt x="895" y="1141" on="0"/>
        <pt x="768" y="1317" on="0"/>
        <pt x="637" y="1317" on="1"/>
        <pt x="501" y="1317" on="0"/>
        <pt x="371" y="1144" on="0"/>
        <pt x="371" y="950" on="1"/>
        <pt x="371" y="0" on="1"/>
        <pt x="184" y="0" on="1"/>
        <pt x="184" y="940" on="1"/>
        <pt x="184" y="1202" on="0"/>
        <pt x="409" y="1481" on="0"/>
        <pt x="627" y="1481" on="1"/>
        <pt x="849" y="1481" on="0"/>
        <pt x="1081" y="1211" on="0"/>
        <pt x="1081" y="944" on="1"/>
        <pt x="1081" y="0" on="1"/>
      </contour>
    </TTGlyph>
    <TTGlyph name="uni1261" xMin="184" yMin="0" xMax="1487" yMax="1481">
      <contour>
        <pt x="1081" y="729" on="1"/>
        <pt x="1446" y="729" on="1"/>
        <pt x="1487" y="410" on="1"/>
        <pt x="1448" y="410" on="1"/>
        <pt x="1378" y="410" on="0"/>
        <pt x="1284" y="514" on="0"/>
        <pt x="1272" y="594" on="1"/>
        <pt x="1081" y="594" on="1"/>
        <pt x="1081" y="0" on="1"/>
        <pt x="895" y="0" on="1"/>
        <pt x="895" y="948" on="1"/>
        <pt x="895" y="1141" on="0"/>
        <pt x="768" y="1317" on="0"/>
        <pt x="637" y="1317" on="1"/>
        <pt x="501" y="1317" on="0"/>
        <pt x="371" y="1144" on="0"/>
        <pt x="371" y="950" on="1"/>
        <pt x="371" y="0" on="1"/>
        <pt x="184" y="0" on="1"/>
        <pt x="184" y="940" on="1"/>
        <pt x="184" y="1202" on="0"/>
        <pt x="409" y="1481" on="0"/>
        <pt x="627" y="1481" on="1"/>
        <pt x="849" y="1481" on="0"/>
        <pt x="1081" y="1211" on="0"/>
        <pt x="1081" y="944" on="1"/>
      </contour>
    </TTGlyph>
    <TTGlyph name="uni1262" xMin="184" yMin="-164" xMax="1495" yMax="1481">
      <contour>
        <pt x="895" y="948" on="1"/>
        <pt x="895" y="1141" on="0"/>
        <pt x="768" y="1317" on="0"/>
        <pt x="637" y="1317" on="1"/>
        <pt x="501" y="1317" on="0"/>
        <pt x="371" y="1144" on="0"/>
        <pt x="371" y="950" on="1"/>
        <pt x="371" y="0" on="1"/>
        <pt x="184" y="0" on="1"/>
        <pt x="184" y="940" on="1"/>
        <pt x="184" y="1202" on="0"/>
        <pt x="409" y="1481" on="0"/>
        <pt x="627" y="1481" on="1"/>
        <pt x="849" y="1481" on="0"/>
        <pt x="1081" y="1211" on="0"/>
        <pt x="1081" y="944" on="1"/>
        <pt x="1081" y="135" on="1"/>
        <pt x="1284" y="135" on="1"/>
        <pt x="1305" y="207" on="0"/>
        <pt x="1402" y="299" on="0"/>
        <pt x="1456" y="299" on="1"/>
        <pt x="1495" y="299" on="1"/>
        <pt x="1462" y="70" on="1"/>
        <pt x="1495" y="-164" on="1"/>
        <pt x="1456" y="-164" on="1"/>
        <pt x="1402" y="-164" on="0"/>
        <pt x="1304" y="-71" on="0"/>
        <pt x="1284" y="0" on="1"/>
        <pt x="895" y="0" on="1"/>
      </contour>
    </TTGlyph>
    <TTGlyph name="uni1263" xMin="164" yMin="0" xMax="1061" yMax="1481">
      <contour>
        <pt x="874" y="0" on="1"/>
        <pt x="874" y="948" on="1"/>
        <pt x="874" y="1141" on="0"/>
        <pt x="747" y="1317" on="0"/>
        <pt x="616" y="1317" on="1"/>
        <pt x="480" y="1317" on="0"/>
        <pt x="350" y="1143" on="0"/>
        <pt x="350" y="950" on="1"/>
        <pt x="350" y="485" on="1"/>
        <pt x="164" y="485" on="1"/>
        <pt x="164" y="940" on="1"/>
        <pt x="164" y="1202" on="0"/>
        <pt x="389" y="1481" on="0"/>
        <pt x="606" y="1481" on="1"/>
        <pt x="829" y="1481" on="0"/>
        <pt x="1061" y="1210" on="0"/>
        <pt x="1061" y="944" on="1"/>
        <pt x="1061" y="0" on="1"/>
      </contour>
    </TTGlyph>
    <TTGlyph name="uni1264" xMin="184" yMin="0" xMax="1548" yMax="1481">
      <contour>
        <pt x="895" y="948" on="1"/>
        <pt x="895" y="1141" on="0"/>
        <pt x="768" y="1317" on="0"/>
        <pt x="637" y="1317" on="1"/>
        <pt x="501" y="1317" on="0"/>
        <pt x="371" y="1144" on="0"/>
        <pt x="371" y="950" on="1"/>
        <pt x="371" y="0" on="1"/>
        <pt x="184" y="0" on="1"/>
        <pt x="184" y="940" on="1"/>
        <pt x="184" y="1202" on="0"/>
        <pt x="409" y="1481" on="0"/>
        <pt x="627" y="1481" on="1"/>
        <pt x="849" y="1481" on="0"/>
        <pt x="1081" y="1211" on="0"/>
        <pt x="1081" y="944" on="1"/>
        <pt x="1081" y="541" on="1"/>
        <pt x="1270" y="541" on="1"/>
        <pt x="1398" y="541" on="0"/>
        <pt x="1548" y="405" on="0"/>
        <pt x="1548" y="287" on="1"/>
        <pt x="1548" y="149" on="0"/>
        <pt x="1363" y="0" on="0"/>
        <pt x="1190" y="0" on="1"/>
        <pt x="895" y="0" on="1"/>
      </contour>
      <contour>
        <pt x="1081" y="401" on="1"/>
        <pt x="1081" y="135" on="1"/>
        <pt x="1155" y="135" on="1"/>
        <pt x="1261" y="135" on="0"/>
        <pt x="1366" y="206" on="0"/>
        <pt x="1366" y="281" on="1"/>
        <pt x="1366" y="401" on="0"/>
        <pt x="1210" y="401" on="1"/>
      </contour>
    </TTGlyph>
    <TTGlyph name="uni1265" xMin="82" yMin="0" xMax="1384" yMax="1481">
      <contour>
        <pt x="1198" y="0" on="1"/>
        <pt x="1198" y="948" on="1"/>
        <pt x="1198" y="1141" on="0"/>
        <pt x="1071" y="1317" on="0"/>
        <pt x="940" y="1317" on="1"/>
        <pt x="804" y="1317" on="0"/>
        <pt x="674" y="1144" on="0"/>
        <pt x="674" y="950" on="1"/>
        <pt x="674" y="0" on="1"/>
        <pt x="487" y="0" on="1"/>
        <pt x="487" y="594" on="1"/>
        <pt x="293" y="594" on="1"/>
        <pt x="271" y="518" on="0"/>
        <pt x="177" y="430" on="0"/>
        <pt x="121" y="430" on="1"/>
        <pt x="82" y="430" on="1"/>
        <pt x="123" y="729" on="1"/>
        <pt x="487" y="729" on="1"/>
        <pt x="487" y="940" on="1"/>
        <pt x="487" y="1203" on="0"/>
        <pt x="714" y="1481" on="0"/>
        <pt x="930" y="1481" on="1"/>
        <pt x="1152" y="1481" on="0"/>
        <pt x="1384" y="1211" on="0"/>
        <pt x="1384" y="944" on="1"/>
        <pt x="1384" y="0" on="1"/>
      </contour>
    </TTGlyph>
    <TTGlyph name="uni1266" xMin="184" yMin="0" xMax="1081" yMax="1481">
      <contour>
        <pt x="895" y="485" on="1"/>
        <pt x="895" y="948" on="1"/>
        <pt x="895" y="1141" on="0"/>
        <pt x="768" y="1317" on="0"/>
        <pt x="637" y="1317" on="1"/>
        <pt x="501" y="1317" on="0"/>
        <pt x="371" y="1144" on="0"/>
        <pt x="371" y="950" on="1"/>
        <pt x="371" y="0" on="1"/>
        <pt x="184" y="0" on="1"/>
        <pt x="184" y="940" on="1"/>
        <pt x="184" y="1202" on="0"/>
        <pt x="409" y="1481" on="0"/>
        <pt x="627" y="1481" on="1"/>
        <pt x="849" y="1481" on="0"/>
        <pt x="1081" y="1211" on="0"/>
        <pt x="1081" y="944" on="1"/>
        <pt x="1081" y="485" on="1"/>
      </contour>
    </TTGlyph>
    <TTGlyph name="uni1267" xMin="164" yMin="-164" xMax="1458" yMax="1481">
      <contour>
        <pt x="164" y="-164" on="1"/>
        <pt x="205" y="135" on="1"/>
        <pt x="915" y="135" on="1"/>
        <pt x="915" y="948" on="1"/>
        <pt x="915" y="1141" on="0"/>
        <pt x="788" y="1317" on="0"/>
        <pt x="657" y="1317" on="1"/>
        <pt x="521" y="1317" on="0"/>
        <pt x="391" y="1143" on="0"/>
        <pt x="391" y="950" on="1"/>
        <pt x="391" y="485" on="1"/>
        <pt x="205" y="485" on="1"/>
        <pt x="205" y="940" on="1"/>
        <pt x="205" y="1202" on="0"/>
        <pt x="430" y="1481" on="0"/>
        <pt x="647" y="1481" on="1"/>
        <pt x="870" y="1481" on="0"/>
        <pt x="1102" y="1210" on="0"/>
        <pt x="1102" y="944" on="1"/>
        <pt x="1102" y="135" on="1"/>
        <pt x="1417" y="135" on="1"/>
        <pt x="1458" y="-164" on="1"/>
        <pt x="1419" y="-164" on="1"/>
        <pt x="1364" y="-164" on="0"/>
        <pt x="1268" y="-75" on="0"/>
        <pt x="1245" y="0" on="1"/>
        <pt x="375" y="0" on="1"/>
        <pt x="352" y="-76" on="0"/>
        <pt x="258" y="-164" on="0"/>
        <pt x="203" y="-164" on="1"/>
      </contour>
    </TTGlyph>
    <TTGlyph name="uni1268" xMin="162" yMin="0" xMax="1104" yMax="1720">
      <contour>
        <pt x="1104" y="1720" on="1"/>
        <pt x="1071" y="1520" on="1"/>
        <pt x="1104" y="1319" on="1"/>
        <pt x="1065" y="1319" on="1"/>
        <pt x="1003" y="1319" on="0"/>
        <pt x="909" y="1404" on="0"/>
        <pt x="893" y="1462" on="1"/>
        <pt x="373" y="1462" on="1"/>
        <pt x="354" y="1400" on="0"/>
        <pt x="261" y="1319" on="0"/>
        <pt x="201" y="1319" on="1"/>
        <pt x="162" y="1319" on="1"/>
        <pt x="195" y="1520" on="1"/>
        <pt x="162" y="1720" on="1"/>
        <pt x="201" y="1720" on="1"/>
        <pt x="260" y="1720" on="0"/>
        <pt x="353" y="1640" on="0"/>
        <pt x="373" y="1577" on="1"/>
        <pt x="893" y="1577" on="1"/>
        <pt x="910" y="1637" on="0"/>
        <pt x="1003" y="1720" on="0"/>
        <pt x="1065" y="1720" on="1"/>
      </contour>
      <contour>
        <pt x="895" y="0" on="1"/>
        <pt x="895" y="729" on="1"/>
        <pt x="895" y="922" on="0"/>
        <pt x="768" y="1098" on="0"/>
        <pt x="637" y="1098" on="1"/>
        <pt x="501" y="1098" on="0"/>
        <pt x="371" y="925" on="0"/>
        <pt x="371" y="731" on="1"/>
        <pt x="371" y="0" on="1"/>
        <pt x="184" y="0" on="1"/>
        <pt x="184" y="721" on="1"/>
        <pt x="184" y="983" on="0"/>
        <pt x="409" y="1262" on="0"/>
        <pt x="627" y="1262" on="1"/>
        <pt x="849" y="1262" on="0"/>
        <pt x="1081" y="992" on="0"/>
        <pt x="1081" y="725" on="1"/>
        <pt x="1081" y="0" on="1"/>
      </contour>
    </TTGlyph>
    <TTGlyph name="uni1269" xMin="162" yMin="0" xMax="1487" yMax="1720">
      <contour>
        <pt x="1081" y="633" on="1"/>
        <pt x="1446" y="633" on="1"/>
        <pt x="1487" y="313" on="1"/>
        <pt x="1448" y="313" on="1"/>
        <pt x="1380" y="313" on="0"/>
        <pt x="1284" y="417" on="0"/>
        <pt x="1272" y="498" on="1"/>
        <pt x="1081" y="498" on="1"/>
        <pt x="1081" y="0" on="1"/>
        <pt x="895" y="0" on="1"/>
        <pt x="895" y="729" on="1"/>
        <pt x="895" y="922" on="0"/>
        <pt x="768" y="1098" on="0"/>
        <pt x="637" y="1098" on="1"/>
        <pt x="501" y="1098" on="0"/>
        <pt x="371" y="925" on="0"/>
        <pt x="371" y="731" on="1"/>
        <pt x="371" y="0" on="1"/>
        <pt x="184" y="0" on="1"/>
        <pt x="184" y="721" on="1"/>
        <pt x="184" y="983" on="0"/>
        <pt x="409" y="1262" on="0"/>
        <pt x="627" y="1262" on="1"/>
        <pt x="849" y="1262" on="0"/>
        <pt x="1081" y="992" on="0"/>
        <pt x="1081" y="725" on="1"/>
      </contour>
      <contour>
        <pt x="1104" y="1720" on="1"/>
        <pt x="1071" y="1520" on="1"/>
        <pt x="1104" y="1319" on="1"/>
        <pt x="1065" y="1319" on="1"/>
        <pt x="1003" y="1319" on="0"/>
        <pt x="909" y="1404" on="0"/>
        <pt x="893" y="1462" on="1"/>
        <pt x="373" y="1462" on="1"/>
        <pt x="354" y="1400" on="0"/>
        <pt x="261" y="1319" on="0"/>
        <pt x="201" y="1319" on="1"/>
        <pt x="162" y="1319" on="1"/>
        <pt x="195" y="1520" on="1"/>
        <pt x="162" y="1720" on="1"/>
        <pt x="201" y="1720" on="1"/>
        <pt x="260" y="1720" on="0"/>
        <pt x="353" y="1640" on="0"/>
        <pt x="373" y="1577" on="1"/>
        <pt x="893" y="1577" on="1"/>
        <pt x="910" y="1637" on="0"/>
        <pt x="1003" y="1720" on="0"/>
        <pt x="1065" y="1720" on="1"/>
      </contour>
    </TTGlyph>
    <TTGlyph name="uni126A" xMin="162" yMin="-164" xMax="1507" yMax="1720">
      <contour>
        <pt x="895" y="729" on="1"/>
        <pt x="895" y="922" on="0"/>
        <pt x="768" y="1098" on="0"/>
        <pt x="637" y="1098" on="1"/>
        <pt x="501" y="1098" on="0"/>
        <pt x="371" y="925" on="0"/>
        <pt x="371" y="731" on="1"/>
        <pt x="371" y="0" on="1"/>
        <pt x="184" y="0" on="1"/>
        <pt x="184" y="721" on="1"/>
        <pt x="184" y="983" on="0"/>
        <pt x="409" y="1262" on="0"/>
        <pt x="627" y="1262" on="1"/>
        <pt x="849" y="1262" on="0"/>
        <pt x="1081" y="992" on="0"/>
        <pt x="1081" y="725" on="1"/>
        <pt x="1081" y="135" on="1"/>
        <pt x="1296" y="135" on="1"/>
        <pt x="1317" y="207" on="0"/>
        <pt x="1414" y="299" on="0"/>
        <pt x="1468" y="299" on="1"/>
        <pt x="1507" y="299" on="1"/>
        <pt x="1475" y="70" on="1"/>
        <pt x="1507" y="-164" on="1"/>
        <pt x="1468" y="-164" on="1"/>
        <pt x="1414" y="-164" on="0"/>
        <pt x="1316" y="-71" on="0"/>
        <pt x="1296" y="0" on="1"/>
        <pt x="895" y="0" on="1"/>
      </contour>
      <contour>
        <pt x="1104" y="1720" on="1"/>
        <pt x="1071" y="1520" on="1"/>
        <pt x="1104" y="1319" on="1"/>
        <pt x="1065" y="1319" on="1"/>
        <pt x="1003" y="1319" on="0"/>
        <pt x="909" y="1404" on="0"/>
        <pt x="893" y="1462" on="1"/>
        <pt x="373" y="1462" on="1"/>
        <pt x="354" y="1400" on="0"/>
        <pt x="261" y="1319" on="0"/>
        <pt x="201" y="1319" on="1"/>
        <pt x="162" y="1319" on="1"/>
        <pt x="195" y="1520" on="1"/>
        <pt x="162" y="1720" on="1"/>
        <pt x="201" y="1720" on="1"/>
        <pt x="260" y="1720" on="0"/>
        <pt x="353" y="1640" on="0"/>
        <pt x="373" y="1577" on="1"/>
        <pt x="893" y="1577" on="1"/>
        <pt x="910" y="1637" on="0"/>
        <pt x="1003" y="1720" on="0"/>
        <pt x="1065" y="1720" on="1"/>
      </contour>
    </TTGlyph>
    <TTGlyph name="uni126B" xMin="141" yMin="0" xMax="1063" yMax="1720">
      <contour>
        <pt x="1063" y="1720" on="1"/>
        <pt x="1030" y="1520" on="1"/>
        <pt x="1063" y="1319" on="1"/>
        <pt x="1024" y="1319" on="1"/>
        <pt x="962" y="1319" on="0"/>
        <pt x="868" y="1404" on="0"/>
        <pt x="852" y="1462" on="1"/>
        <pt x="352" y="1462" on="1"/>
        <pt x="335" y="1402" on="0"/>
        <pt x="240" y="1319" on="0"/>
        <pt x="180" y="1319" on="1"/>
        <pt x="141" y="1319" on="1"/>
        <pt x="174" y="1520" on="1"/>
        <pt x="141" y="1720" on="1"/>
        <pt x="180" y="1720" on="1"/>
        <pt x="239" y="1720" on="0"/>
        <pt x="335" y="1638" on="0"/>
        <pt x="352" y="1577" on="1"/>
        <pt x="852" y="1577" on="1"/>
        <pt x="869" y="1637" on="0"/>
        <pt x="962" y="1720" on="0"/>
        <pt x="1024" y="1720" on="1"/>
      </contour>
      <contour>
        <pt x="874" y="0" on="1"/>
        <pt x="874" y="729" on="1"/>
        <pt x="874" y="922" on="0"/>
        <pt x="747" y="1098" on="0"/>
        <pt x="616" y="1098" on="1"/>
        <pt x="480" y="1098" on="0"/>
        <pt x="350" y="924" on="0"/>
        <pt x="350" y="731" on="1"/>
        <pt x="350" y="485" on="1"/>
        <pt x="164" y="485" on="1"/>
        <pt x="164" y="721" on="1"/>
        <pt x="164" y="983" on="0"/>
        <pt x="389" y="1262" on="0"/>
        <pt x="606" y="1262" on="1"/>
        <pt x="829" y="1262" on="0"/>
        <pt x="1061" y="991" on="0"/>
        <pt x="1061" y="725" on="1"/>
        <pt x="1061" y="0" on="1"/>
      </contour>
    </TTGlyph>
    <TTGlyph name="uni126C" xMin="162" yMin="0" xMax="1548" yMax="1720">
      <contour>
        <pt x="895" y="0" on="1"/>
        <pt x="895" y="729" on="1"/>
        <pt x="895" y="922" on="0"/>
        <pt x="768" y="1098" on="0"/>
        <pt x="637" y="1098" on="1"/>
        <pt x="501" y="1098" on="0"/>
        <pt x="371" y="925" on="0"/>
        <pt x="371" y="731" on="1"/>
        <pt x="371" y="0" on="1"/>
        <pt x="184" y="0" on="1"/>
        <pt x="184" y="721" on="1"/>
        <pt x="184" y="983" on="0"/>
        <pt x="409" y="1262" on="0"/>
        <pt x="627" y="1262" on="1"/>
        <pt x="849" y="1262" on="0"/>
        <pt x="1081" y="992" on="0"/>
        <pt x="1081" y="725" on="1"/>
        <pt x="1081" y="541" on="1"/>
        <pt x="1270" y="541" on="1"/>
        <pt x="1398" y="541" on="0"/>
        <pt x="1548" y="405" on="0"/>
        <pt x="1548" y="287" on="1"/>
        <pt x="1548" y="149" on="0"/>
        <pt x="1363" y="0" on="0"/>
        <pt x="1190" y="0" on="1"/>
      </contour>
      <contour>
        <pt x="1104" y="1720" on="1"/>
        <pt x="1071" y="1520" on="1"/>
        <pt x="1104" y="1319" on="1"/>
        <pt x="1065" y="1319" on="1"/>
        <pt x="1003" y="1319" on="0"/>
        <pt x="909" y="1404" on="0"/>
        <pt x="893" y="1462" on="1"/>
        <pt x="373" y="1462" on="1"/>
        <pt x="354" y="1400" on="0"/>
        <pt x="261" y="1319" on="0"/>
        <pt x="201" y="1319" on="1"/>
        <pt x="162" y="1319" on="1"/>
        <pt x="195" y="1520" on="1"/>
        <pt x="162" y="1720" on="1"/>
        <pt x="201" y="1720" on="1"/>
        <pt x="260" y="1720" on="0"/>
        <pt x="353" y="1640" on="0"/>
        <pt x="373" y="1577" on="1"/>
        <pt x="893" y="1577" on="1"/>
        <pt x="910" y="1637" on="0"/>
        <pt x="1003" y="1720" on="0"/>
        <pt x="1065" y="1720" on="1"/>
      </contour>
      <contour>
        <pt x="1081" y="401" on="1"/>
        <pt x="1081" y="135" on="1"/>
        <pt x="1155" y="135" on="1"/>
        <pt x="1261" y="135" on="0"/>
        <pt x="1366" y="206" on="0"/>
        <pt x="1366" y="281" on="1"/>
        <pt x="1366" y="401" on="0"/>
        <pt x="1210" y="401" on="1"/>
      </contour>
    </TTGlyph>
    <TTGlyph name="uni126D" xMin="82" yMin="0" xMax="1407" yMax="1720">
      <contour>
        <pt x="1198" y="0" on="1"/>
        <pt x="1198" y="729" on="1"/>
        <pt x="1198" y="922" on="0"/>
        <pt x="1071" y="1098" on="0"/>
        <pt x="940" y="1098" on="1"/>
        <pt x="804" y="1098" on="0"/>
        <pt x="674" y="925" on="0"/>
        <pt x="674" y="731" on="1"/>
        <pt x="674" y="0" on="1"/>
        <pt x="487" y="0" on="1"/>
        <pt x="487" y="471" on="1"/>
        <pt x="293" y="471" on="1"/>
        <pt x="271" y="395" on="0"/>
        <pt x="177" y="307" on="0"/>
        <pt x="121" y="307" on="1"/>
        <pt x="82" y="307" on="1"/>
        <pt x="123" y="606" on="1"/>
        <pt x="487" y="606" on="1"/>
        <pt x="487" y="721" on="1"/>
        <pt x="487" y="984" on="0"/>
        <pt x="714" y="1262" on="0"/>
        <pt x="930" y="1262" on="1"/>
        <pt x="1152" y="1262" on="0"/>
        <pt x="1384" y="992" on="0"/>
        <pt x="1384" y="725" on="1"/>
        <pt x="1384" y="0" on="1"/>
      </contour>
      <contour>
        <pt x="1407" y="1720" on="1"/>
        <pt x="1374" y="1520" on="1"/>
        <pt x="1407" y="1319" on="1"/>
        <pt x="1368" y="1319" on="1"/>
        <pt x="1308" y="1319" on="0"/>
        <pt x="1216" y="1398" on="0"/>
        <pt x="1196" y="1462" on="1"/>
        <pt x="676" y="1462" on="1"/>
        <pt x="657" y="1400" on="0"/>
        <pt x="564" y="1319" on="0"/>
        <pt x="504" y="1319" on="1"/>
        <pt x="465" y="1319" on="1"/>
        <pt x="498" y="1520" on="1"/>
        <pt x="465" y="1720" on="1"/>
        <pt x="504" y="1720" on="1"/>
        <pt x="563" y="1720" on="0"/>
        <pt x="656" y="1640" on="0"/>
        <pt x="676" y="1577" on="1"/>
        <pt x="1196" y="1577" on="1"/>
        <pt x="1217" y="1643" on="0"/>
        <pt x="1309" y="1720" on="0"/>
        <pt x="1368" y="1720" on="1"/>
      </contour>
    </TTGlyph>
    <TTGlyph name="uni126E" xMin="162" yMin="0" xMax="1104" yMax="1720">
      <contour>
        <pt x="201" y="1720" on="1"/>
        <pt x="260" y="1720" on="0"/>
        <pt x="352" y="1643" on="0"/>
        <pt x="373" y="1577" on="1"/>
        <pt x="893" y="1577" on="1"/>
        <pt x="911" y="1638" on="0"/>
        <pt x="1005" y="1720" on="0"/>
        <pt x="1065" y="1720" on="1"/>
        <pt x="1104" y="1720" on="1"/>
        <pt x="1071" y="1520" on="1"/>
        <pt x="1104" y="1319" on="1"/>
        <pt x="1065" y="1319" on="1"/>
        <pt x="1005" y="1319" on="0"/>
        <pt x="909" y="1402" on="0"/>
        <pt x="893" y="1462" on="1"/>
        <pt x="373" y="1462" on="1"/>
        <pt x="353" y="1397" on="0"/>
        <pt x="260" y="1319" on="0"/>
        <pt x="201" y="1319" on="1"/>
        <pt x="162" y="1319" on="1"/>
        <pt x="195" y="1520" on="1"/>
        <pt x="162" y="1720" on="1"/>
      </contour>
      <contour>
        <pt x="895" y="485" on="1"/>
        <pt x="895" y="729" on="1"/>
        <pt x="895" y="922" on="0"/>
        <pt x="768" y="1098" on="0"/>
        <pt x="637" y="1098" on="1"/>
        <pt x="501" y="1098" on="0"/>
        <pt x="371" y="925" on="0"/>
        <pt x="371" y="731" on="1"/>
        <pt x="371" y="0" on="1"/>
        <pt x="184" y="0" on="1"/>
        <pt x="184" y="721" on="1"/>
        <pt x="184" y="983" on="0"/>
        <pt x="409" y="1262" on="0"/>
        <pt x="627" y="1262" on="1"/>
        <pt x="849" y="1262" on="0"/>
        <pt x="1081" y="992" on="0"/>
        <pt x="1081" y="725" on="1"/>
        <pt x="1081" y="485" on="1"/>
      </contour>
    </TTGlyph>
    <TTGlyph name="uni126F" xMin="141" yMin="-164" xMax="1395" yMax="1720">
      <contour>
        <pt x="141" y="-164" on="1"/>
        <pt x="182" y="135" on="1"/>
        <pt x="893" y="135" on="1"/>
        <pt x="893" y="729" on="1"/>
        <pt x="893" y="922" on="0"/>
        <pt x="766" y="1098" on="0"/>
        <pt x="635" y="1098" on="1"/>
        <pt x="499" y="1098" on="0"/>
        <pt x="369" y="925" on="0"/>
        <pt x="369" y="731" on="1"/>
        <pt x="369" y="485" on="1"/>
        <pt x="182" y="485" on="1"/>
        <pt x="182" y="721" on="1"/>
        <pt x="182" y="983" on="0"/>
        <pt x="407" y="1262" on="0"/>
        <pt x="625" y="1262" on="1"/>
        <pt x="847" y="1262" on="0"/>
        <pt x="1079" y="992" on="0"/>
        <pt x="1079" y="725" on="1"/>
        <pt x="1079" y="135" on="1"/>
        <pt x="1354" y="135" on="1"/>
        <pt x="1395" y="-164" on="1"/>
        <pt x="1356" y="-164" on="1"/>
        <pt x="1299" y="-164" on="0"/>
        <pt x="1200" y="-70" on="0"/>
        <pt x="1182" y="0" on="1"/>
        <pt x="352" y="0" on="1"/>
        <pt x="333" y="-70" on="0"/>
        <pt x="237" y="-164" on="0"/>
        <pt x="180" y="-164" on="1"/>
      </contour>
      <contour>
        <pt x="219" y="1720" on="1"/>
        <pt x="280" y="1720" on="0"/>
        <pt x="374" y="1637" on="0"/>
        <pt x="391" y="1577" on="1"/>
        <pt x="891" y="1577" on="1"/>
        <pt x="909" y="1638" on="0"/>
        <pt x="1003" y="1720" on="0"/>
        <pt x="1063" y="1720" on="1"/>
        <pt x="1102" y="1720" on="1"/>
        <pt x="1069" y="1520" on="1"/>
        <pt x="1102" y="1319" on="1"/>
        <pt x="1063" y="1319" on="1"/>
        <pt x="1003" y="1319" on="0"/>
        <pt x="907" y="1402" on="0"/>
        <pt x="891" y="1462" on="1"/>
        <pt x="391" y="1462" on="1"/>
        <pt x="375" y="1403" on="0"/>
        <pt x="281" y="1319" on="0"/>
        <pt x="219" y="1319" on="1"/>
        <pt x="180" y="1319" on="1"/>
        <pt x="213" y="1520" on="1"/>
        <pt x="180" y="1720" on="1"/>
      </contour>
    </TTGlyph>
    <TTGlyph name="uni1270" xMin="102" yMin="0" xMax="1161" yMax="1462">
      <contour>
        <pt x="102" y="778" on="1"/>
        <pt x="143" y="1077" on="1"/>
        <pt x="539" y="1077" on="1"/>
        <pt x="539" y="1462" on="1"/>
        <pt x="725" y="1462" on="1"/>
        <pt x="725" y="1077" on="1"/>
        <pt x="1120" y="1077" on="1"/>
        <pt x="1161" y="778" on="1"/>
        <pt x="1122" y="778" on="1"/>
        <pt x="1066" y="778" on="0"/>
        <pt x="970" y="868" on="0"/>
        <pt x="948" y="942" on="1"/>
        <pt x="725" y="942" on="1"/>
        <pt x="725" y="0" on="1"/>
        <pt x="539" y="0" on="1"/>
        <pt x="539" y="942" on="1"/>
        <pt x="313" y="942" on="1"/>
        <pt x="295" y="873" on="0"/>
        <pt x="200" y="778" on="0"/>
        <pt x="141" y="778" on="1"/>
      </contour>
    </TTGlyph>
    <TTGlyph name="uni1271" xMin="102" yMin="0" xMax="1161" yMax="1462">
      <contour>
        <pt x="725" y="541" on="1"/>
        <pt x="1120" y="541" on="1"/>
        <pt x="1161" y="242" on="1"/>
        <pt x="1122" y="242" on="1"/>
        <pt x="1066" y="242" on="0"/>
        <pt x="970" y="332" on="0"/>
        <pt x="948" y="406" on="1"/>
        <pt x="725" y="406" on="1"/>
        <pt x="725" y="0" on="1"/>
        <pt x="539" y="0" on="1"/>
        <pt x="539" y="942" on="1"/>
        <pt x="313" y="942" on="1"/>
        <pt x="295" y="873" on="0"/>
        <pt x="200" y="778" on="0"/>
        <pt x="141" y="778" on="1"/>
        <pt x="102" y="778" on="1"/>
        <pt x="143" y="1077" on="1"/>
        <pt x="539" y="1077" on="1"/>
        <pt x="539" y="1462" on="1"/>
        <pt x="725" y="1462" on="1"/>
        <pt x="725" y="1077" on="1"/>
        <pt x="1120" y="1077" on="1"/>
        <pt x="1161" y="778" on="1"/>
        <pt x="1122" y="778" on="1"/>
        <pt x="1066" y="778" on="0"/>
        <pt x="970" y="868" on="0"/>
        <pt x="948" y="942" on="1"/>
        <pt x="725" y="942" on="1"/>
      </contour>
    </TTGlyph>
    <TTGlyph name="uni1272" xMin="102" yMin="-164" xMax="1161" yMax="1462">
      <contour>
        <pt x="102" y="778" on="1"/>
        <pt x="143" y="1077" on="1"/>
        <pt x="539" y="1077" on="1"/>
        <pt x="539" y="1462" on="1"/>
        <pt x="725" y="1462" on="1"/>
        <pt x="725" y="1077" on="1"/>
        <pt x="1120" y="1077" on="1"/>
        <pt x="1161" y="778" on="1"/>
        <pt x="1122" y="778" on="1"/>
        <pt x="1066" y="778" on="0"/>
        <pt x="970" y="868" on="0"/>
        <pt x="948" y="942" on="1"/>
        <pt x="725" y="942" on="1"/>
        <pt x="725" y="135" on="1"/>
        <pt x="950" y="135" on="1"/>
        <pt x="971" y="207" on="0"/>
        <pt x="1068" y="299" on="0"/>
        <pt x="1122" y="299" on="1"/>
        <pt x="1161" y="299" on="1"/>
        <pt x="1128" y="70" on="1"/>
        <pt x="1161" y="-164" on="1"/>
        <pt x="1122" y="-164" on="1"/>
        <pt x="1068" y="-164" on="0"/>
        <pt x="970" y="-71" on="0"/>
        <pt x="950" y="0" on="1"/>
        <pt x="539" y="0" on="1"/>
        <pt x="539" y="942" on="1"/>
        <pt x="313" y="942" on="1"/>
        <pt x="295" y="873" on="0"/>
        <pt x="200" y="778" on="0"/>
        <pt x="141" y="778" on="1"/>
      </contour>
    </TTGlyph>
    <TTGlyph name="uni1273" xMin="102" yMin="-164" xMax="1161" yMax="1462">
      <contour>
        <pt x="102" y="778" on="1"/>
        <pt x="143" y="1077" on="1"/>
        <pt x="539" y="1077" on="1"/>
        <pt x="539" y="1462" on="1"/>
        <pt x="725" y="1462" on="1"/>
        <pt x="725" y="1077" on="1"/>
        <pt x="1120" y="1077" on="1"/>
        <pt x="1161" y="778" on="1"/>
        <pt x="1122" y="778" on="1"/>
        <pt x="1066" y="778" on="0"/>
        <pt x="970" y="868" on="0"/>
        <pt x="948" y="942" on="1"/>
        <pt x="725" y="942" on="1"/>
        <pt x="725" y="514" on="1"/>
        <pt x="725" y="239" on="0"/>
        <pt x="542" y="0" on="0"/>
        <pt x="326" y="0" on="1"/>
        <pt x="313" y="0" on="1"/>
        <pt x="293" y="-74" on="0"/>
        <pt x="194" y="-164" on="0"/>
        <pt x="135" y="-164" on="1"/>
        <pt x="102" y="-164" on="1"/>
        <pt x="143" y="135" on="1"/>
        <pt x="293" y="135" on="1"/>
        <pt x="426" y="135" on="0"/>
        <pt x="539" y="297" on="0"/>
        <pt x="539" y="494" on="1"/>
        <pt x="539" y="942" on="1"/>
        <pt x="313" y="942" on="1"/>
        <pt x="295" y="873" on="0"/>
        <pt x="200" y="778" on="0"/>
        <pt x="141" y="778" on="1"/>
      </contour>
    </TTGlyph>
    <TTGlyph name="uni1274" xMin="102" yMin="0" xMax="1233" yMax="1462">
      <contour>
        <pt x="102" y="778" on="1"/>
        <pt x="143" y="1077" on="1"/>
        <pt x="539" y="1077" on="1"/>
        <pt x="539" y="1462" on="1"/>
        <pt x="725" y="1462" on="1"/>
        <pt x="725" y="1077" on="1"/>
        <pt x="1120" y="1077" on="1"/>
        <pt x="1161" y="778" on="1"/>
        <pt x="1122" y="778" on="1"/>
        <pt x="1066" y="778" on="0"/>
        <pt x="970" y="868" on="0"/>
        <pt x="948" y="942" on="1"/>
        <pt x="725" y="942" on="1"/>
        <pt x="725" y="541" on="1"/>
        <pt x="954" y="541" on="1"/>
        <pt x="1083" y="541" on="0"/>
        <pt x="1233" y="403" on="0"/>
        <pt x="1233" y="287" on="1"/>
        <pt x="1233" y="148" on="0"/>
        <pt x="1045" y="0" on="0"/>
        <pt x="874" y="0" on="1"/>
        <pt x="539" y="0" on="1"/>
        <pt x="539" y="942" on="1"/>
        <pt x="313" y="942" on="1"/>
        <pt x="295" y="873" on="0"/>
        <pt x="200" y="778" on="0"/>
        <pt x="141" y="778" on="1"/>
      </contour>
      <contour>
        <pt x="725" y="401" on="1"/>
        <pt x="725" y="135" on="1"/>
        <pt x="840" y="135" on="1"/>
        <pt x="946" y="135" on="0"/>
        <pt x="1051" y="206" on="0"/>
        <pt x="1051" y="281" on="1"/>
        <pt x="1051" y="401" on="0"/>
        <pt x="895" y="401" on="1"/>
      </contour>
    </TTGlyph>
    <TTGlyph name="uni1275" xMin="102" yMin="0" xMax="1161" yMax="1556">
      <contour>
        <pt x="725" y="1227" on="1"/>
        <pt x="725" y="975" on="1"/>
        <pt x="1120" y="975" on="1"/>
        <pt x="1161" y="676" on="1"/>
        <pt x="1122" y="676" on="1"/>
        <pt x="1066" y="676" on="0"/>
        <pt x="970" y="766" on="0"/>
        <pt x="948" y="840" on="1"/>
        <pt x="725" y="840" on="1"/>
        <pt x="725" y="0" on="1"/>
        <pt x="539" y="0" on="1"/>
        <pt x="539" y="840" on="1"/>
        <pt x="313" y="840" on="1"/>
        <pt x="295" y="771" on="0"/>
        <pt x="200" y="676" on="0"/>
        <pt x="141" y="676" on="1"/>
        <pt x="102" y="676" on="1"/>
        <pt x="143" y="975" on="1"/>
        <pt x="539" y="975" on="1"/>
        <pt x="539" y="1081" on="1"/>
        <pt x="406" y="1089" on="0"/>
        <pt x="265" y="1168" on="0"/>
        <pt x="195" y="1329" on="0"/>
        <pt x="195" y="1462" on="1"/>
        <pt x="195" y="1556" on="1"/>
        <pt x="381" y="1556" on="1"/>
        <pt x="381" y="1462" on="1"/>
        <pt x="381" y="1373" on="0"/>
        <pt x="423" y="1272" on="0"/>
        <pt x="506" y="1227" on="0"/>
        <pt x="612" y="1227" on="1"/>
      </contour>
    </TTGlyph>
    <TTGlyph name="uni1276" xMin="102" yMin="0" xMax="1161" yMax="1577">
      <contour>
        <pt x="1122" y="637" on="1"/>
        <pt x="1066" y="637" on="0"/>
        <pt x="970" y="727" on="0"/>
        <pt x="948" y="801" on="1"/>
        <pt x="725" y="801" on="1"/>
        <pt x="725" y="0" on="1"/>
        <pt x="539" y="0" on="1"/>
        <pt x="539" y="801" on="1"/>
        <pt x="313" y="801" on="1"/>
        <pt x="295" y="732" on="0"/>
        <pt x="200" y="637" on="0"/>
        <pt x="141" y="637" on="1"/>
        <pt x="102" y="637" on="1"/>
        <pt x="143" y="936" on="1"/>
        <pt x="539" y="936" on="1"/>
        <pt x="539" y="948" on="1"/>
        <pt x="539" y="1007" on="0"/>
        <pt x="575" y="1059" on="1"/>
        <pt x="475" y="1076" on="0"/>
        <pt x="348" y="1215" on="0"/>
        <pt x="348" y="1309" on="1"/>
        <pt x="348" y="1431" on="0"/>
        <pt x="507" y="1577" on="0"/>
        <pt x="635" y="1577" on="1"/>
        <pt x="765" y="1577" on="0"/>
        <pt x="918" y="1446" on="0"/>
        <pt x="918" y="1333" on="1"/>
        <pt x="918" y="1206" on="0"/>
        <pt x="816" y="1102" on="1"/>
        <pt x="755" y="1041" on="0"/>
        <pt x="725" y="982" on="0"/>
        <pt x="725" y="954" on="1"/>
        <pt x="725" y="936" on="1"/>
        <pt x="1120" y="936" on="1"/>
        <pt x="1161" y="637" on="1"/>
      </contour>
      <contour>
        <pt x="633" y="1438" on="1"/>
        <pt x="588" y="1438" on="0"/>
        <pt x="530" y="1369" on="0"/>
        <pt x="530" y="1321" on="1"/>
        <pt x="530" y="1213" on="0"/>
        <pt x="664" y="1176" on="1"/>
        <pt x="735" y="1242" on="0"/>
        <pt x="735" y="1327" on="1"/>
        <pt x="735" y="1378" on="0"/>
        <pt x="684" y="1438" on="0"/>
      </contour>
    </TTGlyph>
    <TTGlyph name="uni1277" xMin="102" yMin="-164" xMax="1161" yMax="1462">
      <contour>
        <pt x="539" y="942" on="1"/>
        <pt x="313" y="942" on="1"/>
        <pt x="295" y="873" on="0"/>
        <pt x="200" y="778" on="0"/>
        <pt x="141" y="778" on="1"/>
        <pt x="102" y="778" on="1"/>
        <pt x="143" y="1077" on="1"/>
        <pt x="539" y="1077" on="1"/>
        <pt x="539" y="1462" on="1"/>
        <pt x="725" y="1462" on="1"/>
        <pt x="725" y="1077" on="1"/>
        <pt x="1120" y="1077" on="1"/>
        <pt x="1161" y="778" on="1"/>
        <pt x="1122" y="778" on="1"/>
        <pt x="1066" y="778" on="0"/>
        <pt x="970" y="868" on="0"/>
        <pt x="948" y="942" on="1"/>
        <pt x="725" y="942" on="1"/>
        <pt x="725" y="135" on="1"/>
        <pt x="1120" y="135" on="1"/>
        <pt x="1161" y="-164" on="1"/>
        <pt x="1122" y="-164" on="1"/>
        <pt x="1067" y="-164" on="0"/>
        <pt x="971" y="-75" on="0"/>
        <pt x="948" y="0" on="1"/>
        <pt x="313" y="0" on="1"/>
        <pt x="294" y="-70" on="0"/>
        <pt x="198" y="-164" on="0"/>
        <pt x="141" y="-164" on="1"/>
        <pt x="102" y="-164" on="1"/>
        <pt x="143" y="135" on="1"/>
        <pt x="539" y="135" on="1"/>
      </contour>
    </TTGlyph>
    <TTGlyph name="uni1278" xMin="102" yMin="0" xMax="1161" yMax="1720">
      <contour>
        <pt x="1122" y="778" on="1"/>
        <pt x="1066" y="778" on="0"/>
        <pt x="970" y="868" on="0"/>
        <pt x="948" y="942" on="1"/>
        <pt x="725" y="942" on="1"/>
        <pt x="725" y="0" on="1"/>
        <pt x="539" y="0" on="1"/>
        <pt x="539" y="942" on="1"/>
        <pt x="313" y="942" on="1"/>
        <pt x="295" y="873" on="0"/>
        <pt x="200" y="778" on="0"/>
        <pt x="141" y="778" on="1"/>
        <pt x="102" y="778" on="1"/>
        <pt x="143" y="1077" on="1"/>
        <pt x="539" y="1077" on="1"/>
        <pt x="539" y="1462" on="1"/>
        <pt x="313" y="1462" on="1"/>
        <pt x="296" y="1402" on="0"/>
        <pt x="201" y="1319" on="0"/>
        <pt x="141" y="1319" on="1"/>
        <pt x="102" y="1319" on="1"/>
        <pt x="135" y="1520" on="1"/>
        <pt x="102" y="1720" on="1"/>
        <pt x="141" y="1720" on="1"/>
        <pt x="200" y="1720" on="0"/>
        <pt x="296" y="1638" on="0"/>
        <pt x="313" y="1577" on="1"/>
        <pt x="950" y="1577" on="1"/>
        <pt x="971" y="1643" on="0"/>
        <pt x="1063" y="1720" on="0"/>
        <pt x="1122" y="1720" on="1"/>
        <pt x="1161" y="1720" on="1"/>
        <pt x="1128" y="1520" on="1"/>
        <pt x="1161" y="1319" on="1"/>
        <pt x="1122" y="1319" on="1"/>
        <pt x="1062" y="1319" on="0"/>
        <pt x="970" y="1398" on="0"/>
        <pt x="950" y="1462" on="1"/>
        <pt x="725" y="1462" on="1"/>
        <pt x="725" y="1077" on="1"/>
        <pt x="1120" y="1077" on="1"/>
        <pt x="1161" y="778" on="1"/>
      </contour>
    </TTGlyph>
    <TTGlyph name="uni1279" xMin="102" yMin="0" xMax="1161" yMax="1720">
      <contour>
        <pt x="725" y="541" on="1"/>
        <pt x="1120" y="541" on="1"/>
        <pt x="1161" y="242" on="1"/>
        <pt x="1122" y="242" on="1"/>
        <pt x="1066" y="242" on="0"/>
        <pt x="970" y="332" on="0"/>
        <pt x="948" y="406" on="1"/>
        <pt x="725" y="406" on="1"/>
        <pt x="725" y="0" on="1"/>
        <pt x="539" y="0" on="1"/>
        <pt x="539" y="942" on="1"/>
        <pt x="313" y="942" on="1"/>
        <pt x="295" y="873" on="0"/>
        <pt x="200" y="778" on="0"/>
        <pt x="141" y="778" on="1"/>
        <pt x="102" y="778" on="1"/>
        <pt x="143" y="1077" on="1"/>
        <pt x="539" y="1077" on="1"/>
        <pt x="539" y="1462" on="1"/>
        <pt x="313" y="1462" on="1"/>
        <pt x="296" y="1402" on="0"/>
        <pt x="201" y="1319" on="0"/>
        <pt x="141" y="1319" on="1"/>
        <pt x="102" y="1319" on="1"/>
        <pt x="135" y="1520" on="1"/>
        <pt x="102" y="1720" on="1"/>
        <pt x="141" y="1720" on="1"/>
        <pt x="200" y="1720" on="0"/>
        <pt x="296" y="1638" on="0"/>
        <pt x="313" y="1577" on="1"/>
        <pt x="950" y="1577" on="1"/>
        <pt x="971" y="1643" on="0"/>
        <pt x="1063" y="1720" on="0"/>
        <pt x="1122" y="1720" on="1"/>
        <pt x="1161" y="1720" on="1"/>
        <pt x="1128" y="1520" on="1"/>
        <pt x="1161" y="1319" on="1"/>
        <pt x="1122" y="1319" on="1"/>
        <pt x="1062" y="1319" on="0"/>
        <pt x="970" y="1398" on="0"/>
        <pt x="950" y="1462" on="1"/>
        <pt x="725" y="1462" on="1"/>
        <pt x="725" y="1077" on="1"/>
        <pt x="1120" y="1077" on="1"/>
        <pt x="1161" y="778" on="1"/>
        <pt x="1122" y="778" on="1"/>
        <pt x="1066" y="778" on="0"/>
        <pt x="970" y="868" on="0"/>
        <pt x="948" y="942" on="1"/>
        <pt x="725" y="942" on="1"/>
      </contour>
    </TTGlyph>
    <TTGlyph name="uni127A" xMin="102" yMin="-164" xMax="1161" yMax="1720">
      <contour>
        <pt x="102" y="778" on="1"/>
        <pt x="143" y="1077" on="1"/>
        <pt x="539" y="1077" on="1"/>
        <pt x="539" y="1462" on="1"/>
        <pt x="313" y="1462" on="1"/>
        <pt x="296" y="1402" on="0"/>
        <pt x="201" y="1319" on="0"/>
        <pt x="141" y="1319" on="1"/>
        <pt x="102" y="1319" on="1"/>
        <pt x="135" y="1520" on="1"/>
        <pt x="102" y="1720" on="1"/>
        <pt x="141" y="1720" on="1"/>
        <pt x="200" y="1720" on="0"/>
        <pt x="296" y="1638" on="0"/>
        <pt x="313" y="1577" on="1"/>
        <pt x="950" y="1577" on="1"/>
        <pt x="971" y="1643" on="0"/>
        <pt x="1063" y="1720" on="0"/>
        <pt x="1122" y="1720" on="1"/>
        <pt x="1161" y="1720" on="1"/>
        <pt x="1128" y="1520" on="1"/>
        <pt x="1161" y="1319" on="1"/>
        <pt x="1122" y="1319" on="1"/>
        <pt x="1062" y="1319" on="0"/>
        <pt x="970" y="1398" on="0"/>
        <pt x="950" y="1462" on="1"/>
        <pt x="725" y="1462" on="1"/>
        <pt x="725" y="1077" on="1"/>
        <pt x="1120" y="1077" on="1"/>
        <pt x="1161" y="778" on="1"/>
        <pt x="1122" y="778" on="1"/>
        <pt x="1066" y="778" on="0"/>
        <pt x="970" y="868" on="0"/>
        <pt x="948" y="942" on="1"/>
        <pt x="725" y="942" on="1"/>
        <pt x="725" y="135" on="1"/>
        <pt x="950" y="135" on="1"/>
        <pt x="971" y="207" on="0"/>
        <pt x="1068" y="299" on="0"/>
        <pt x="1122" y="299" on="1"/>
        <pt x="1161" y="299" on="1"/>
        <pt x="1128" y="70" on="1"/>
        <pt x="1161" y="-164" on="1"/>
        <pt x="1122" y="-164" on="1"/>
        <pt x="1068" y="-164" on="0"/>
        <pt x="970" y="-71" on="0"/>
        <pt x="950" y="0" on="1"/>
        <pt x="539" y="0" on="1"/>
        <pt x="539" y="942" on="1"/>
        <pt x="313" y="942" on="1"/>
        <pt x="295" y="873" on="0"/>
        <pt x="200" y="778" on="0"/>
        <pt x="141" y="778" on="1"/>
      </contour>
    </TTGlyph>
    <TTGlyph name="uni127B" xMin="102" yMin="-164" xMax="1161" yMax="1720">
      <contour>
        <pt x="1161" y="1720" on="1"/>
        <pt x="1128" y="1520" on="1"/>
        <pt x="1161" y="1319" on="1"/>
        <pt x="1122" y="1319" on="1"/>
        <pt x="1062" y="1319" on="0"/>
        <pt x="970" y="1398" on="0"/>
        <pt x="950" y="1462" on="1"/>
        <pt x="725" y="1462" on="1"/>
        <pt x="725" y="1077" on="1"/>
        <pt x="1120" y="1077" on="1"/>
        <pt x="1161" y="778" on="1"/>
        <pt x="1122" y="778" on="1"/>
        <pt x="1066" y="778" on="0"/>
        <pt x="970" y="868" on="0"/>
        <pt x="948" y="942" on="1"/>
        <pt x="725" y="942" on="1"/>
        <pt x="725" y="514" on="1"/>
        <pt x="725" y="239" on="0"/>
        <pt x="542" y="0" on="0"/>
        <pt x="326" y="0" on="1"/>
        <pt x="313" y="0" on="1"/>
        <pt x="293" y="-74" on="0"/>
        <pt x="194" y="-164" on="0"/>
        <pt x="135" y="-164" on="1"/>
        <pt x="102" y="-164" on="1"/>
        <pt x="143" y="135" on="1"/>
        <pt x="293" y="135" on="1"/>
        <pt x="426" y="135" on="0"/>
        <pt x="539" y="297" on="0"/>
        <pt x="539" y="494" on="1"/>
        <pt x="539" y="942" on="1"/>
        <pt x="313" y="942" on="1"/>
        <pt x="295" y="873" on="0"/>
        <pt x="200" y="778" on="0"/>
        <pt x="141" y="778" on="1"/>
        <pt x="102" y="778" on="1"/>
        <pt x="143" y="1077" on="1"/>
        <pt x="539" y="1077" on="1"/>
        <pt x="539" y="1462" on="1"/>
        <pt x="313" y="1462" on="1"/>
        <pt x="296" y="1402" on="0"/>
        <pt x="201" y="1319" on="0"/>
        <pt x="141" y="1319" on="1"/>
        <pt x="102" y="1319" on="1"/>
        <pt x="135" y="1520" on="1"/>
        <pt x="102" y="1720" on="1"/>
        <pt x="141" y="1720" on="1"/>
        <pt x="200" y="1720" on="0"/>
        <pt x="296" y="1638" on="0"/>
        <pt x="313" y="1577" on="1"/>
        <pt x="950" y="1577" on="1"/>
        <pt x="971" y="1643" on="0"/>
        <pt x="1063" y="1720" on="0"/>
        <pt x="1122" y="1720" on="1"/>
      </contour>
    </TTGlyph>
</ttFont>
